<ttFont>
    <TTGlyph name="A" xMin="82" yMin="0" xMax="1456" yMax="1434">
      <contour>
        <pt x="82" y="0" on="1"/>
        <pt x="674" y="1434" on="1"/>
        <pt x="858" y="1434" on="1"/>
        <pt x="1456" y="0" on="1"/>
        <pt x="1272" y="0" on="1"/>
        <pt x="1071" y="479" on="1"/>
        <pt x="463" y="479" on="1"/>
        <pt x="266" y="0" on="1"/>
      </contour>
      <contour>
        <pt x="520" y="614" on="1"/>
        <pt x="1016" y="614" on="1"/>
        <pt x="766" y="1245" on="1"/>
      </contour>
    </TTGlyph>
    <TTGlyph name="AE" xMin="84" yMin="0" xMax="1841" yMax="1434">
      <contour>
        <pt x="84" y="0" on="1"/>
        <pt x="801" y="1434" on="1"/>
        <pt x="1841" y="1434" on="1"/>
        <pt x="1841" y="1303" on="1"/>
        <pt x="1112" y="1303" on="1"/>
        <pt x="1112" y="848" on="1"/>
        <pt x="1718" y="848" on="1"/>
        <pt x="1718" y="717" on="1"/>
        <pt x="1112" y="717" on="1"/>
        <pt x="1112" y="131" on="1"/>
        <pt x="1841" y="131" on="1"/>
        <pt x="1841" y="0" on="1"/>
        <pt x="928" y="0" on="1"/>
        <pt x="928" y="479" on="1"/>
        <pt x="506" y="479" on="1"/>
        <pt x="268" y="0" on="1"/>
      </contour>
      <contour>
        <pt x="575" y="614" on="1"/>
        <pt x="928" y="614" on="1"/>
        <pt x="928" y="1303" on="1"/>
      </contour>
    </TTGlyph>
    <TTGlyph name="Aacute" xMin="82" yMin="0" xMax="1456" yMax="1946">
      <contour>
        <pt x="82" y="0" on="1"/>
        <pt x="674" y="1434" on="1"/>
        <pt x="858" y="1434" on="1"/>
        <pt x="1456" y="0" on="1"/>
        <pt x="1272" y="0" on="1"/>
        <pt x="1071" y="479" on="1"/>
        <pt x="463" y="479" on="1"/>
        <pt x="266" y="0" on="1"/>
      </contour>
      <contour>
        <pt x="520" y="614" on="1"/>
        <pt x="1016" y="614" on="1"/>
        <pt x="766" y="1245" on="1"/>
      </contour>
      <contour>
        <pt x="596" y="1673" on="1"/>
        <pt x="797" y="1946" on="1"/>
        <pt x="1022" y="1946" on="1"/>
        <pt x="780" y="1673" on="1"/>
      </contour>
    </TTGlyph>
    <TTGlyph name="Acircumflex" xMin="82" yMin="0" xMax="1456" yMax="1946">
      <contour>
        <pt x="82" y="0" on="1"/>
        <pt x="674" y="1434" on="1"/>
        <pt x="858" y="1434" on="1"/>
        <pt x="1456" y="0" on="1"/>
        <pt x="1272" y="0" on="1"/>
        <pt x="1071" y="479" on="1"/>
        <pt x="463" y="479" on="1"/>
        <pt x="266" y="0" on="1"/>
      </contour>
      <contour>
        <pt x="442" y="1673" on="1"/>
        <pt x="643" y="1946" on="1"/>
        <pt x="893" y="1946" on="1"/>
        <pt x="1094" y="1673" on="1"/>
        <pt x="909" y="1673" on="1"/>
        <pt x="768" y="1874" on="1"/>
        <pt x="627" y="1673" on="1"/>
      </contour>
      <contour>
        <pt x="520" y="614" on="1"/>
        <pt x="1016" y="614" on="1"/>
        <pt x="766" y="1245" on="1"/>
      </contour>
    </TTGlyph>
    <TTGlyph name="Adieresis" xMin="82" yMin="0" xMax="1456" yMax="1946">
      <contour>
        <pt x="82" y="0" on="1"/>
        <pt x="674" y="1434" on="1"/>
        <pt x="858" y="1434" on="1"/>
        <pt x="1456" y="0" on="1"/>
        <pt x="1272" y="0" on="1"/>
        <pt x="1071" y="479" on="1"/>
        <pt x="463" y="479" on="1"/>
        <pt x="266" y="0" on="1"/>
      </contour>
      <contour>
        <pt x="502" y="1757" on="1"/>
        <pt x="502" y="1946" on="1"/>
        <pt x="676" y="1946" on="1"/>
        <pt x="676" y="1757" on="1"/>
      </contour>
      <contour>
        <pt x="520" y="614" on="1"/>
        <pt x="1016" y="614" on="1"/>
        <pt x="766" y="1245" on="1"/>
      </contour>
      <contour>
        <pt x="860" y="1757" on="1"/>
        <pt x="860" y="1946" on="1"/>
        <pt x="1034" y="1946" on="1"/>
        <pt x="1034" y="1757" on="1"/>
      </contour>
    </TTGlyph>
    <TTGlyph name="Agrave" xMin="82" yMin="0" xMax="1456" yMax="1946">
      <contour>
        <pt x="82" y="0" on="1"/>
        <pt x="674" y="1434" on="1"/>
        <pt x="858" y="1434" on="1"/>
        <pt x="1456" y="0" on="1"/>
        <pt x="1272" y="0" on="1"/>
        <pt x="1071" y="479" on="1"/>
        <pt x="463" y="479" on="1"/>
        <pt x="266" y="0" on="1"/>
      </contour>
      <contour>
        <pt x="514" y="1946" on="1"/>
        <pt x="739" y="1946" on="1"/>
        <pt x="940" y="1673" on="1"/>
        <pt x="756" y="1673" on="1"/>
      </contour>
      <contour>
        <pt x="520" y="614" on="1"/>
        <pt x="1016" y="614" on="1"/>
        <pt x="766" y="1245" on="1"/>
      </contour>
    </TTGlyph>
    <TTGlyph name="Aring" xMin="82" yMin="0" xMax="1456" yMax="1946">
      <contour>
        <pt x="82" y="0" on="1"/>
        <pt x="674" y="1434" on="1"/>
        <pt x="858" y="1434" on="1"/>
        <pt x="1456" y="0" on="1"/>
        <pt x="1272" y="0" on="1"/>
        <pt x="1071" y="479" on="1"/>
        <pt x="463" y="479" on="1"/>
        <pt x="266" y="0" on="1"/>
      </contour>
      <contour>
        <pt x="520" y="614" on="1"/>
        <pt x="1016" y="614" on="1"/>
        <pt x="766" y="1245" on="1"/>
      </contour>
      <contour>
        <pt x="600" y="1708" on="0"/>
        <pt x="600" y="1847" on="0"/>
        <pt x="698" y="1946" on="0"/>
        <pt x="838" y="1946" on="0"/>
        <pt x="936" y="1847" on="0"/>
        <pt x="936" y="1708" on="0"/>
        <pt x="838" y="1610" on="0"/>
        <pt x="698" y="1610" on="0"/>
      </contour>
      <contour>
        <pt x="682" y="1812" on="0"/>
        <pt x="682" y="1743" on="0"/>
        <pt x="733" y="1692" on="0"/>
        <pt x="803" y="1692" on="0"/>
        <pt x="854" y="1743" on="0"/>
        <pt x="854" y="1812" on="0"/>
        <pt x="803" y="1864" on="0"/>
        <pt x="733" y="1864" on="0"/>
      </contour>
    </TTGlyph>
    <TTGlyph name="Atilde" xMin="82" yMin="0" xMax="1456" yMax="1946">
      <contour>
        <pt x="82" y="0" on="1"/>
        <pt x="674" y="1434" on="1"/>
        <pt x="858" y="1434" on="1"/>
        <pt x="1456" y="0" on="1"/>
        <pt x="1272" y="0" on="1"/>
        <pt x="1071" y="479" on="1"/>
        <pt x="463" y="479" on="1"/>
        <pt x="266" y="0" on="1"/>
      </contour>
      <contour>
        <pt x="459" y="1722" on="1"/>
        <pt x="459" y="1816" on="0"/>
        <pt x="573" y="1946" on="0"/>
        <pt x="633" y="1946" on="1"/>
        <pt x="678" y="1946" on="0"/>
        <pt x="768" y="1903" on="1"/>
        <pt x="838" y="1866" on="0"/>
        <pt x="887" y="1866" on="1"/>
        <pt x="938" y="1868" on="0"/>
        <pt x="942" y="1946" on="1"/>
        <pt x="1077" y="1946" on="1"/>
        <pt x="1077" y="1856" on="0"/>
        <pt x="995" y="1722" on="0"/>
        <pt x="913" y="1722" on="1"/>
        <pt x="862" y="1722" on="0"/>
        <pt x="745" y="1772" on="1"/>
        <pt x="675" y="1803" on="0"/>
        <pt x="649" y="1802" on="1"/>
        <pt x="631" y="1802" on="0"/>
        <pt x="600" y="1761" on="0"/>
        <pt x="594" y="1741" on="1"/>
        <pt x="588" y="1722" on="1"/>
      </contour>
      <contour>
        <pt x="520" y="614" on="1"/>
        <pt x="1016" y="614" on="1"/>
        <pt x="766" y="1245" on="1"/>
      </contour>
    </TTGlyph>
    <TTGlyph name="B" xMin="176" yMin="0" xMax="1212" yMax="1434">
      <contour>
        <pt x="176" y="0" on="1"/>
        <pt x="176" y="1434" on="1"/>
        <pt x="668" y="1434" on="1"/>
        <pt x="795" y="1434" on="0"/>
        <pt x="981" y="1364" on="0"/>
        <pt x="1075" y="1249" on="0"/>
        <pt x="1116" y="1135" on="0"/>
        <pt x="1116" y="1075" on="1"/>
        <pt x="1116" y="907" on="0"/>
        <pt x="981" y="815" on="1"/>
        <pt x="1212" y="706" on="0"/>
        <pt x="1212" y="453" on="1"/>
        <pt x="1212" y="254" on="0"/>
        <pt x="932" y="0" on="0"/>
        <pt x="682" y="0" on="1"/>
      </contour>
      <contour>
        <pt x="360" y="135" on="1"/>
        <pt x="647" y="135" on="1"/>
        <pt x="1028" y="135" on="0"/>
        <pt x="1028" y="453" on="1"/>
        <pt x="1028" y="598" on="0"/>
        <pt x="852" y="731" on="0"/>
        <pt x="666" y="735" on="1"/>
        <pt x="360" y="735" on="1"/>
      </contour>
      <contour>
        <pt x="360" y="872" on="1"/>
        <pt x="633" y="872" on="1"/>
        <pt x="803" y="872" on="0"/>
        <pt x="932" y="965" on="0"/>
        <pt x="932" y="1075" on="1"/>
        <pt x="932" y="1190" on="0"/>
        <pt x="801" y="1298" on="0"/>
        <pt x="633" y="1298" on="1"/>
        <pt x="602" y="1296" on="0"/>
        <pt x="537" y="1296" on="1"/>
        <pt x="360" y="1296" on="1"/>
      </contour>
    </TTGlyph>
    <TTGlyph name="C" xMin="123" yMin="-31" xMax="1325" yMax="1464">
      <contour>
        <pt x="123" y="410" on="0"/>
        <pt x="123" y="1024" on="0"/>
        <pt x="563" y="1464" on="0"/>
        <pt x="870" y="1464" on="1"/>
        <pt x="1120" y="1464" on="0"/>
        <pt x="1325" y="1309" on="1"/>
        <pt x="1206" y="1190" on="1"/>
        <pt x="1050" y="1309" on="0"/>
        <pt x="870" y="1309" on="1"/>
        <pt x="637" y="1309" on="0"/>
        <pt x="307" y="961" on="0"/>
        <pt x="307" y="473" on="0"/>
        <pt x="637" y="125" on="0"/>
        <pt x="870" y="125" on="1"/>
        <pt x="1054" y="125" on="0"/>
        <pt x="1206" y="242" on="1"/>
        <pt x="1325" y="123" on="1"/>
        <pt x="1118" y="-31" on="0"/>
        <pt x="870" y="-31" on="1"/>
        <pt x="563" y="-31" on="0"/>
      </contour>
    </TTGlyph>
    <TTGlyph name="Ccedilla" xMin="49" yMin="-436" xMax="1251" yMax="1464">
      <contour>
        <pt x="49" y="717" on="1"/>
        <pt x="49" y="1024" on="0"/>
        <pt x="489" y="1464" on="0"/>
        <pt x="797" y="1464" on="1"/>
        <pt x="1047" y="1464" on="0"/>
        <pt x="1251" y="1309" on="1"/>
        <pt x="1133" y="1190" on="1"/>
        <pt x="977" y="1309" on="0"/>
        <pt x="797" y="1309" on="1"/>
        <pt x="564" y="1309" on="0"/>
        <pt x="233" y="961" on="0"/>
        <pt x="233" y="473" on="0"/>
        <pt x="563" y="125" on="0"/>
        <pt x="797" y="125" on="1"/>
        <pt x="981" y="125" on="0"/>
        <pt x="1133" y="242" on="1"/>
        <pt x="1251" y="123" on="1"/>
        <pt x="1153" y="49" on="0"/>
        <pt x="1040" y="10" on="1"/>
        <pt x="948" y="-23" on="0"/>
        <pt x="838" y="-29" on="1"/>
        <pt x="825" y="-86" on="1"/>
        <pt x="977" y="-113" on="0"/>
        <pt x="977" y="-240" on="1"/>
        <pt x="977" y="-332" on="0"/>
        <pt x="815" y="-436" on="0"/>
        <pt x="690" y="-436" on="1"/>
        <pt x="641" y="-436" on="0"/>
        <pt x="580" y="-426" on="1"/>
        <pt x="604" y="-309" on="1"/>
        <pt x="659" y="-317" on="0"/>
        <pt x="694" y="-317" on="1"/>
        <pt x="821" y="-317" on="0"/>
        <pt x="821" y="-240" on="1"/>
        <pt x="821" y="-154" on="0"/>
        <pt x="653" y="-154" on="1"/>
        <pt x="680" y="-23" on="1"/>
        <pt x="584" y="-7" on="0"/>
        <pt x="506" y="29" on="1"/>
        <pt x="301" y="119" on="0"/>
        <pt x="49" y="490" on="0"/>
      </contour>
    </TTGlyph>
    <TTGlyph name="D" xMin="176" yMin="0" xMax="1343" yMax="1434">
      <contour>
        <pt x="176" y="0" on="1"/>
        <pt x="176" y="1434" on="1"/>
        <pt x="616" y="1434" on="1"/>
        <pt x="940" y="1434" on="0"/>
        <pt x="1343" y="1016" on="0"/>
        <pt x="1343" y="418" on="0"/>
        <pt x="940" y="0" on="0"/>
        <pt x="616" y="0" on="1"/>
      </contour>
      <contour>
        <pt x="360" y="135" on="1"/>
        <pt x="535" y="135" on="1"/>
        <pt x="685" y="135" on="0"/>
        <pt x="913" y="213" on="0"/>
        <pt x="1047" y="332" on="0"/>
        <pt x="1130" y="494" on="0"/>
        <pt x="1159" y="639" on="0"/>
        <pt x="1159" y="795" on="0"/>
        <pt x="1130" y="940" on="0"/>
        <pt x="1047" y="1102" on="0"/>
        <pt x="913" y="1221" on="0"/>
        <pt x="684" y="1298" on="0"/>
        <pt x="535" y="1298" on="1"/>
        <pt x="360" y="1298" on="1"/>
      </contour>
    </TTGlyph>
    <TTGlyph name="E" xMin="176" yMin="0" xMax="1090" yMax="1434">
      <contour>
        <pt x="176" y="0" on="1"/>
        <pt x="176" y="1434" on="1"/>
        <pt x="1090" y="1434" on="1"/>
        <pt x="1090" y="1303" on="1"/>
        <pt x="360" y="1303" on="1"/>
        <pt x="360" y="848" on="1"/>
        <pt x="967" y="848" on="1"/>
        <pt x="967" y="717" on="1"/>
        <pt x="360" y="717" on="1"/>
        <pt x="360" y="131" on="1"/>
        <pt x="1090" y="131" on="1"/>
        <pt x="1090" y="0" on="1"/>
      </contour>
    </TTGlyph>
    <TTGlyph name="Eacute" xMin="176" yMin="0" xMax="1090" yMax="1946">
      <contour>
        <pt x="176" y="0" on="1"/>
        <pt x="176" y="1434" on="1"/>
        <pt x="1090" y="1434" on="1"/>
        <pt x="1090" y="1303" on="1"/>
        <pt x="360" y="1303" on="1"/>
        <pt x="360" y="848" on="1"/>
        <pt x="967" y="848" on="1"/>
        <pt x="967" y="717" on="1"/>
        <pt x="360" y="717" on="1"/>
        <pt x="360" y="131" on="1"/>
        <pt x="1090" y="131" on="1"/>
        <pt x="1090" y="0" on="1"/>
      </contour>
      <contour>
        <pt x="457" y="1673" on="1"/>
        <pt x="657" y="1946" on="1"/>
        <pt x="883" y="1946" on="1"/>
        <pt x="641" y="1673" on="1"/>
      </contour>
    </TTGlyph>
    <TTGlyph name="Ecircumflex" xMin="176" yMin="0" xMax="1090" yMax="1946">
      <contour>
        <pt x="176" y="0" on="1"/>
        <pt x="176" y="1434" on="1"/>
        <pt x="1090" y="1434" on="1"/>
        <pt x="1090" y="1303" on="1"/>
        <pt x="360" y="1303" on="1"/>
        <pt x="360" y="848" on="1"/>
        <pt x="967" y="848" on="1"/>
        <pt x="967" y="717" on="1"/>
        <pt x="360" y="717" on="1"/>
        <pt x="360" y="131" on="1"/>
        <pt x="1090" y="131" on="1"/>
        <pt x="1090" y="0" on="1"/>
      </contour>
      <contour>
        <pt x="262" y="1673" on="1"/>
        <pt x="463" y="1946" on="1"/>
        <pt x="713" y="1946" on="1"/>
        <pt x="913" y="1673" on="1"/>
        <pt x="729" y="1673" on="1"/>
        <pt x="588" y="1874" on="1"/>
        <pt x="446" y="1673" on="1"/>
      </contour>
    </TTGlyph>
    <TTGlyph name="Edieresis" xMin="176" yMin="0" xMax="1090" yMax="1946">
      <contour>
        <pt x="176" y="0" on="1"/>
        <pt x="176" y="1434" on="1"/>
        <pt x="1090" y="1434" on="1"/>
        <pt x="1090" y="1303" on="1"/>
        <pt x="360" y="1303" on="1"/>
        <pt x="360" y="848" on="1"/>
        <pt x="967" y="848" on="1"/>
        <pt x="967" y="717" on="1"/>
        <pt x="360" y="717" on="1"/>
        <pt x="360" y="131" on="1"/>
        <pt x="1090" y="131" on="1"/>
        <pt x="1090" y="0" on="1"/>
      </contour>
      <contour>
        <pt x="322" y="1757" on="1"/>
        <pt x="322" y="1946" on="1"/>
        <pt x="496" y="1946" on="1"/>
        <pt x="496" y="1757" on="1"/>
      </contour>
      <contour>
        <pt x="680" y="1757" on="1"/>
        <pt x="680" y="1946" on="1"/>
        <pt x="854" y="1946" on="1"/>
        <pt x="854" y="1757" on="1"/>
      </contour>
    </TTGlyph>
    <TTGlyph name="Egrave" xMin="176" yMin="0" xMax="1090" yMax="1946">
      <contour>
        <pt x="176" y="0" on="1"/>
        <pt x="176" y="1434" on="1"/>
        <pt x="1090" y="1434" on="1"/>
        <pt x="1090" y="1303" on="1"/>
        <pt x="360" y="1303" on="1"/>
        <pt x="360" y="848" on="1"/>
        <pt x="967" y="848" on="1"/>
        <pt x="967" y="717" on="1"/>
        <pt x="360" y="717" on="1"/>
        <pt x="360" y="131" on="1"/>
        <pt x="1090" y="131" on="1"/>
        <pt x="1090" y="0" on="1"/>
      </contour>
      <contour>
        <pt x="313" y="1946" on="1"/>
        <pt x="539" y="1946" on="1"/>
        <pt x="739" y="1673" on="1"/>
        <pt x="555" y="1673" on="1"/>
      </contour>
    </TTGlyph>
    <TTGlyph name="Eth" xMin="20" yMin="0" xMax="1343" yMax="1434">
      <contour>
        <pt x="20" y="604" on="1"/>
        <pt x="20" y="748" on="1"/>
        <pt x="176" y="748" on="1"/>
        <pt x="176" y="1434" on="1"/>
        <pt x="616" y="1434" on="1"/>
        <pt x="940" y="1434" on="0"/>
        <pt x="1343" y="1016" on="0"/>
        <pt x="1343" y="418" on="0"/>
        <pt x="940" y="0" on="0"/>
        <pt x="616" y="0" on="1"/>
        <pt x="176" y="0" on="1"/>
        <pt x="176" y="604" on="1"/>
      </contour>
      <contour>
        <pt x="360" y="135" on="1"/>
        <pt x="535" y="135" on="1"/>
        <pt x="685" y="135" on="0"/>
        <pt x="913" y="213" on="0"/>
        <pt x="1047" y="332" on="0"/>
        <pt x="1130" y="494" on="0"/>
        <pt x="1159" y="639" on="0"/>
        <pt x="1159" y="795" on="0"/>
        <pt x="1130" y="940" on="0"/>
        <pt x="1047" y="1102" on="0"/>
        <pt x="913" y="1221" on="0"/>
        <pt x="684" y="1298" on="0"/>
        <pt x="535" y="1298" on="1"/>
        <pt x="360" y="1298" on="1"/>
        <pt x="360" y="748" on="1"/>
        <pt x="717" y="748" on="1"/>
        <pt x="717" y="604" on="1"/>
        <pt x="360" y="604" on="1"/>
      </contour>
    </TTGlyph>
    <TTGlyph name="Euro" xMin="137" yMin="-31" xMax="1296" yMax="1464">
      <contour>
        <pt x="137" y="406" on="1"/>
        <pt x="137" y="590" on="1"/>
        <pt x="272" y="590" on="1"/>
        <pt x="264" y="645" on="0"/>
        <pt x="264" y="717" on="1"/>
        <pt x="264" y="762" on="1"/>
        <pt x="137" y="762" on="1"/>
        <pt x="137" y="946" on="1"/>
        <pt x="295" y="946" on="1"/>
        <pt x="356" y="1173" on="0"/>
        <pt x="694" y="1464" on="0"/>
        <pt x="903" y="1464" on="1"/>
        <pt x="1132" y="1464" on="0"/>
        <pt x="1296" y="1307" on="1"/>
        <pt x="1184" y="1169" on="1"/>
        <pt x="1059" y="1288" on="0"/>
        <pt x="903" y="1288" on="1"/>
        <pt x="770" y="1288" on="0"/>
        <pt x="553" y="1102" on="0"/>
        <pt x="504" y="946" on="1"/>
        <pt x="1133" y="946" on="1"/>
        <pt x="1133" y="762" on="1"/>
        <pt x="469" y="762" on="1"/>
        <pt x="469" y="717" on="1"/>
        <pt x="469" y="641" on="0"/>
        <pt x="479" y="590" on="1"/>
        <pt x="1133" y="590" on="1"/>
        <pt x="1133" y="406" on="1"/>
        <pt x="537" y="406" on="1"/>
        <pt x="598" y="283" on="0"/>
        <pt x="788" y="145" on="0"/>
        <pt x="903" y="145" on="1"/>
        <pt x="1061" y="145" on="0"/>
        <pt x="1184" y="262" on="1"/>
        <pt x="1296" y="125" on="1"/>
        <pt x="1130" y="-31" on="0"/>
        <pt x="903" y="-31" on="1"/>
        <pt x="713" y="-31" on="0"/>
        <pt x="401" y="209" on="0"/>
        <pt x="322" y="406" on="1"/>
      </contour>
    </TTGlyph>
    <TTGlyph name="F" xMin="176" yMin="0" xMax="997" yMax="1434">
      <contour>
        <pt x="176" y="0" on="1"/>
        <pt x="176" y="1434" on="1"/>
        <pt x="997" y="1434" on="1"/>
        <pt x="997" y="1303" on="1"/>
        <pt x="360" y="1303" on="1"/>
        <pt x="360" y="848" on="1"/>
        <pt x="911" y="848" on="1"/>
        <pt x="911" y="717" on="1"/>
        <pt x="360" y="717" on="1"/>
        <pt x="360" y="0" on="1"/>
      </contour>
    </TTGlyph>
    <TTGlyph name="G" xMin="123" yMin="-31" xMax="1407" yMax="1464">
      <contour>
        <pt x="123" y="410" on="0"/>
        <pt x="123" y="1024" on="0"/>
        <pt x="563" y="1464" on="0"/>
        <pt x="870" y="1464" on="1"/>
        <pt x="1120" y="1464" on="0"/>
        <pt x="1325" y="1309" on="1"/>
        <pt x="1206" y="1190" on="1"/>
        <pt x="1050" y="1309" on="0"/>
        <pt x="870" y="1309" on="1"/>
        <pt x="637" y="1309" on="0"/>
        <pt x="307" y="961" on="0"/>
        <pt x="307" y="473" on="0"/>
        <pt x="637" y="125" on="0"/>
        <pt x="870" y="125" on="1"/>
        <pt x="1069" y="125" on="0"/>
        <pt x="1223" y="256" on="1"/>
        <pt x="1223" y="614" on="1"/>
        <pt x="948" y="614" on="1"/>
        <pt x="948" y="745" on="1"/>
        <pt x="1407" y="745" on="1"/>
        <pt x="1407" y="197" on="1"/>
        <pt x="1344" y="134" on="0"/>
        <pt x="1284" y="94" on="1"/>
        <pt x="1096" y="-31" on="0"/>
        <pt x="870" y="-31" on="1"/>
        <pt x="563" y="-31" on="0"/>
      </contour>
    </TTGlyph>
    <TTGlyph name="H" xMin="176" yMin="0" xMax="1262" yMax="1434">
      <contour>
        <pt x="176" y="0" on="1"/>
        <pt x="176" y="1434" on="1"/>
        <pt x="360" y="1434" on="1"/>
        <pt x="360" y="784" on="1"/>
        <pt x="1077" y="784" on="1"/>
        <pt x="1077" y="1434" on="1"/>
        <pt x="1262" y="1434" on="1"/>
        <pt x="1262" y="0" on="1"/>
        <pt x="1077" y="0" on="1"/>
        <pt x="1077" y="649" on="1"/>
        <pt x="360" y="649" on="1"/>
        <pt x="360" y="0" on="1"/>
      </contour>
    </TTGlyph>
    <TTGlyph name="I" xMin="176" yMin="0" xMax="360" yMax="1434">
      <contour>
        <pt x="176" y="0" on="1"/>
        <pt x="176" y="1434" on="1"/>
        <pt x="360" y="1434" on="1"/>
        <pt x="360" y="0" on="1"/>
      </contour>
    </TTGlyph>
    <TTGlyph name="Iacute" xMin="80" yMin="0" xMax="506" yMax="1946">
      <contour>
        <pt x="80" y="1673" on="1"/>
        <pt x="281" y="1946" on="1"/>
        <pt x="506" y="1946" on="1"/>
        <pt x="264" y="1673" on="1"/>
      </contour>
      <contour>
        <pt x="201" y="0" on="1"/>
        <pt x="201" y="1434" on="1"/>
        <pt x="385" y="1434" on="1"/>
        <pt x="385" y="0" on="1"/>
      </contour>
    </TTGlyph>
    <TTGlyph name="Icircumflex" xMin="176" yMin="0" xMax="827" yMax="1946">
      <contour>
        <pt x="176" y="1673" on="1"/>
        <pt x="377" y="1946" on="1"/>
        <pt x="627" y="1946" on="1"/>
        <pt x="827" y="1673" on="1"/>
        <pt x="643" y="1673" on="1"/>
        <pt x="502" y="1874" on="1"/>
        <pt x="360" y="1673" on="1"/>
      </contour>
      <contour>
        <pt x="410" y="0" on="1"/>
        <pt x="410" y="1434" on="1"/>
        <pt x="594" y="1434" on="1"/>
        <pt x="594" y="0" on="1"/>
      </contour>
    </TTGlyph>
    <TTGlyph name="Idieresis" xMin="16" yMin="0" xMax="549" yMax="1946">
      <contour>
        <pt x="16" y="1757" on="1"/>
        <pt x="16" y="1946" on="1"/>
        <pt x="190" y="1946" on="1"/>
        <pt x="190" y="1757" on="1"/>
      </contour>
      <contour>
        <pt x="190" y="0" on="1"/>
        <pt x="190" y="1434" on="1"/>
        <pt x="375" y="1434" on="1"/>
        <pt x="375" y="0" on="1"/>
      </contour>
      <contour>
        <pt x="375" y="1757" on="1"/>
        <pt x="375" y="1946" on="1"/>
        <pt x="549" y="1946" on="1"/>
        <pt x="549" y="1757" on="1"/>
      </contour>
    </TTGlyph>
    <TTGlyph name="Igrave" xMin="76" yMin="0" xMax="502" yMax="1946">
      <contour>
        <pt x="76" y="1946" on="1"/>
        <pt x="301" y="1946" on="1"/>
        <pt x="502" y="1673" on="1"/>
        <pt x="317" y="1673" on="1"/>
      </contour>
      <contour>
        <pt x="197" y="0" on="1"/>
        <pt x="197" y="1434" on="1"/>
        <pt x="381" y="1434" on="1"/>
        <pt x="381" y="0" on="1"/>
      </contour>
    </TTGlyph>
    <TTGlyph name="J" xMin="82" yMin="-37" xMax="526" yMax="1434">
      <contour>
        <pt x="82" y="-37" on="1"/>
        <pt x="82" y="106" on="1"/>
        <pt x="238" y="110" on="0"/>
        <pt x="342" y="268" on="0"/>
        <pt x="342" y="479" on="1"/>
        <pt x="342" y="1434" on="1"/>
        <pt x="526" y="1434" on="1"/>
        <pt x="526" y="672" on="1"/>
        <pt x="526" y="551" on="0"/>
        <pt x="522" y="393" on="0"/>
        <pt x="506" y="238" on="0"/>
        <pt x="479" y="143" on="0"/>
        <pt x="432" y="57" on="0"/>
        <pt x="371" y="12" on="0"/>
        <pt x="274" y="-23" on="0"/>
        <pt x="162" y="-35" on="0"/>
      </contour>
    </TTGlyph>
    <TTGlyph name="K" xMin="176" yMin="0" xMax="1274" yMax="1434">
      <contour>
        <pt x="176" y="0" on="1"/>
        <pt x="176" y="1434" on="1"/>
        <pt x="360" y="1434" on="1"/>
        <pt x="360" y="684" on="1"/>
        <pt x="1016" y="1434" on="1"/>
        <pt x="1221" y="1434" on="1"/>
        <pt x="664" y="803" on="1"/>
        <pt x="1274" y="0" on="1"/>
        <pt x="1057" y="0" on="1"/>
        <pt x="547" y="666" on="1"/>
        <pt x="360" y="453" on="1"/>
        <pt x="360" y="0" on="1"/>
      </contour>
    </TTGlyph>
    <TTGlyph name="L" xMin="176" yMin="0" xMax="1055" yMax="1434">
      <contour>
        <pt x="176" y="0" on="1"/>
        <pt x="176" y="1434" on="1"/>
        <pt x="360" y="1434" on="1"/>
        <pt x="360" y="135" on="1"/>
        <pt x="1055" y="135" on="1"/>
        <pt x="1055" y="0" on="1"/>
      </contour>
    </TTGlyph>
    <TTGlyph name="M" xMin="156" yMin="0" xMax="1405" yMax="1434">
      <contour>
        <pt x="156" y="0" on="1"/>
        <pt x="156" y="1434" on="1"/>
        <pt x="340" y="1434" on="1"/>
        <pt x="780" y="801" on="1"/>
        <pt x="1221" y="1434" on="1"/>
        <pt x="1405" y="1434" on="1"/>
        <pt x="1405" y="0" on="1"/>
        <pt x="1221" y="0" on="1"/>
        <pt x="1221" y="1147" on="1"/>
        <pt x="850" y="631" on="1"/>
        <pt x="709" y="631" on="1"/>
        <pt x="340" y="1145" on="1"/>
        <pt x="340" y="0" on="1"/>
      </contour>
    </TTGlyph>
    <TTGlyph name="N" xMin="156" yMin="0" xMax="1243" yMax="1434">
      <contour>
        <pt x="156" y="0" on="1"/>
        <pt x="156" y="1434" on="1"/>
        <pt x="340" y="1434" on="1"/>
        <pt x="1059" y="307" on="1"/>
        <pt x="1059" y="1434" on="1"/>
        <pt x="1243" y="1434" on="1"/>
        <pt x="1243" y="0" on="1"/>
        <pt x="1059" y="0" on="1"/>
        <pt x="340" y="1128" on="1"/>
        <pt x="340" y="0" on="1"/>
      </contour>
    </TTGlyph>
    <TTGlyph name="Ntilde" xMin="156" yMin="0" xMax="1243" yMax="1946">
      <contour>
        <pt x="156" y="0" on="1"/>
        <pt x="340" y="0" on="1"/>
        <pt x="340" y="1128" on="1"/>
        <pt x="1059" y="0" on="1"/>
        <pt x="1243" y="0" on="1"/>
        <pt x="1243" y="1434" on="1"/>
        <pt x="1059" y="1434" on="1"/>
        <pt x="1059" y="307" on="1"/>
        <pt x="340" y="1434" on="1"/>
        <pt x="156" y="1434" on="1"/>
      </contour>
      <contour>
        <pt x="389" y="1722" on="1"/>
        <pt x="389" y="1816" on="0"/>
        <pt x="504" y="1946" on="0"/>
        <pt x="563" y="1946" on="1"/>
        <pt x="608" y="1946" on="0"/>
        <pt x="698" y="1903" on="1"/>
        <pt x="768" y="1866" on="0"/>
        <pt x="817" y="1866" on="1"/>
        <pt x="868" y="1868" on="0"/>
        <pt x="872" y="1946" on="1"/>
        <pt x="1008" y="1946" on="1"/>
        <pt x="1008" y="1856" on="0"/>
        <pt x="926" y="1722" on="0"/>
        <pt x="844" y="1722" on="1"/>
        <pt x="793" y="1722" on="0"/>
        <pt x="676" y="1772" on="1"/>
        <pt x="606" y="1803" on="0"/>
        <pt x="580" y="1802" on="1"/>
        <pt x="562" y="1802" on="0"/>
        <pt x="530" y="1761" on="0"/>
        <pt x="524" y="1741" on="1"/>
        <pt x="518" y="1722" on="1"/>
      </contour>
    </TTGlyph>
    <TTGlyph name="O" xMin="123" yMin="-31" xMax="1618" yMax="1464">
      <contour>
        <pt x="123" y="406" on="0"/>
        <pt x="123" y="1028" on="0"/>
        <pt x="541" y="1464" on="0"/>
        <pt x="1180" y="1464" on="0"/>
        <pt x="1618" y="1026" on="0"/>
        <pt x="1618" y="408" on="0"/>
        <pt x="1180" y="-31" on="0"/>
        <pt x="541" y="-31" on="0"/>
      </contour>
      <contour>
        <pt x="307" y="965" on="0"/>
        <pt x="307" y="469" on="0"/>
        <pt x="618" y="125" on="0"/>
        <pt x="1102" y="125" on="0"/>
        <pt x="1434" y="471" on="0"/>
        <pt x="1434" y="963" on="0"/>
        <pt x="1102" y="1309" on="0"/>
        <pt x="618" y="1309" on="0"/>
      </contour>
    </TTGlyph>
    <TTGlyph name="OE" xMin="123" yMin="-31" xMax="2132" yMax="1464">
      <contour>
        <pt x="123" y="406" on="0"/>
        <pt x="123" y="1028" on="0"/>
        <pt x="541" y="1464" on="0"/>
        <pt x="860" y="1464" on="1"/>
        <pt x="1022" y="1464" on="0"/>
        <pt x="1133" y="1415" on="1"/>
        <pt x="1219" y="1374" on="1"/>
        <pt x="1219" y="1434" on="1"/>
        <pt x="2132" y="1434" on="1"/>
        <pt x="2132" y="1303" on="1"/>
        <pt x="1403" y="1303" on="1"/>
        <pt x="1403" y="848" on="1"/>
        <pt x="2009" y="848" on="1"/>
        <pt x="2009" y="717" on="1"/>
        <pt x="1403" y="717" on="1"/>
        <pt x="1403" y="131" on="1"/>
        <pt x="2132" y="131" on="1"/>
        <pt x="2132" y="0" on="1"/>
        <pt x="1219" y="0" on="1"/>
        <pt x="1219" y="55" on="1"/>
        <pt x="1133" y="16" on="1"/>
        <pt x="1020" y="-31" on="0"/>
        <pt x="860" y="-31" on="1"/>
        <pt x="541" y="-31" on="0"/>
      </contour>
      <contour>
        <pt x="307" y="965" on="0"/>
        <pt x="307" y="469" on="0"/>
        <pt x="618" y="125" on="0"/>
        <pt x="860" y="125" on="1"/>
        <pt x="981" y="125" on="0"/>
        <pt x="1087" y="172" on="1"/>
        <pt x="1173" y="213" on="0"/>
        <pt x="1219" y="248" on="1"/>
        <pt x="1219" y="1184" on="1"/>
        <pt x="1172" y="1225" on="0"/>
        <pt x="1087" y="1262" on="1"/>
        <pt x="981" y="1309" on="0"/>
        <pt x="860" y="1309" on="1"/>
        <pt x="618" y="1309" on="0"/>
      </contour>
    </TTGlyph>
    <TTGlyph name="Oacute" xMin="123" yMin="-31" xMax="1618" yMax="1946">
      <contour>
        <pt x="123" y="406" on="0"/>
        <pt x="123" y="1028" on="0"/>
        <pt x="541" y="1464" on="0"/>
        <pt x="1180" y="1464" on="0"/>
        <pt x="1618" y="1026" on="0"/>
        <pt x="1618" y="408" on="0"/>
        <pt x="1180" y="-31" on="0"/>
        <pt x="541" y="-31" on="0"/>
      </contour>
      <contour>
        <pt x="307" y="965" on="0"/>
        <pt x="307" y="469" on="0"/>
        <pt x="618" y="125" on="0"/>
        <pt x="1102" y="125" on="0"/>
        <pt x="1434" y="471" on="0"/>
        <pt x="1434" y="963" on="0"/>
        <pt x="1102" y="1309" on="0"/>
        <pt x="618" y="1309" on="0"/>
      </contour>
      <contour>
        <pt x="739" y="1673" on="1"/>
        <pt x="940" y="1946" on="1"/>
        <pt x="1165" y="1946" on="1"/>
        <pt x="924" y="1673" on="1"/>
      </contour>
    </TTGlyph>
    <TTGlyph name="Ocircumflex" xMin="123" yMin="-31" xMax="1618" yMax="1946">
      <contour>
        <pt x="123" y="406" on="0"/>
        <pt x="123" y="1028" on="0"/>
        <pt x="541" y="1464" on="0"/>
        <pt x="1180" y="1464" on="0"/>
        <pt x="1618" y="1026" on="0"/>
        <pt x="1618" y="408" on="0"/>
        <pt x="1180" y="-31" on="0"/>
        <pt x="541" y="-31" on="0"/>
      </contour>
      <contour>
        <pt x="307" y="965" on="0"/>
        <pt x="307" y="469" on="0"/>
        <pt x="618" y="125" on="0"/>
        <pt x="1102" y="125" on="0"/>
        <pt x="1434" y="471" on="0"/>
        <pt x="1434" y="963" on="0"/>
        <pt x="1102" y="1309" on="0"/>
        <pt x="618" y="1309" on="0"/>
      </contour>
      <contour>
        <pt x="545" y="1673" on="1"/>
        <pt x="745" y="1946" on="1"/>
        <pt x="995" y="1946" on="1"/>
        <pt x="1196" y="1673" on="1"/>
        <pt x="1012" y="1673" on="1"/>
        <pt x="870" y="1874" on="1"/>
        <pt x="729" y="1673" on="1"/>
      </contour>
    </TTGlyph>
    <TTGlyph name="Odieresis" xMin="123" yMin="-31" xMax="1618" yMax="1946">
      <contour>
        <pt x="123" y="406" on="0"/>
        <pt x="123" y="1028" on="0"/>
        <pt x="541" y="1464" on="0"/>
        <pt x="1180" y="1464" on="0"/>
        <pt x="1618" y="1026" on="0"/>
        <pt x="1618" y="408" on="0"/>
        <pt x="1180" y="-31" on="0"/>
        <pt x="541" y="-31" on="0"/>
      </contour>
      <contour>
        <pt x="307" y="965" on="0"/>
        <pt x="307" y="469" on="0"/>
        <pt x="618" y="125" on="0"/>
        <pt x="1102" y="125" on="0"/>
        <pt x="1434" y="471" on="0"/>
        <pt x="1434" y="963" on="0"/>
        <pt x="1102" y="1309" on="0"/>
        <pt x="618" y="1309" on="0"/>
      </contour>
      <contour>
        <pt x="604" y="1757" on="1"/>
        <pt x="604" y="1946" on="1"/>
        <pt x="778" y="1946" on="1"/>
        <pt x="778" y="1757" on="1"/>
      </contour>
      <contour>
        <pt x="963" y="1757" on="1"/>
        <pt x="963" y="1946" on="1"/>
        <pt x="1137" y="1946" on="1"/>
        <pt x="1137" y="1757" on="1"/>
      </contour>
    </TTGlyph>
    <TTGlyph name="Ograve" xMin="123" yMin="-31" xMax="1618" yMax="1946">
      <contour>
        <pt x="123" y="406" on="0"/>
        <pt x="123" y="1028" on="0"/>
        <pt x="541" y="1464" on="0"/>
        <pt x="1180" y="1464" on="0"/>
        <pt x="1618" y="1026" on="0"/>
        <pt x="1618" y="408" on="0"/>
        <pt x="1180" y="-31" on="0"/>
        <pt x="541" y="-31" on="0"/>
      </contour>
      <contour>
        <pt x="307" y="965" on="0"/>
        <pt x="307" y="469" on="0"/>
        <pt x="618" y="125" on="0"/>
        <pt x="1102" y="125" on="0"/>
        <pt x="1434" y="471" on="0"/>
        <pt x="1434" y="963" on="0"/>
        <pt x="1102" y="1309" on="0"/>
        <pt x="618" y="1309" on="0"/>
      </contour>
      <contour>
        <pt x="575" y="1946" on="1"/>
        <pt x="801" y="1946" on="1"/>
        <pt x="1001" y="1673" on="1"/>
        <pt x="817" y="1673" on="1"/>
      </contour>
    </TTGlyph>
    <TTGlyph name="Oslash" xMin="123" yMin="-31" xMax="1618" yMax="1464">
      <contour>
        <pt x="123" y="406" on="0"/>
        <pt x="123" y="1028" on="0"/>
        <pt x="541" y="1464" on="0"/>
        <pt x="1180" y="1464" on="0"/>
        <pt x="1618" y="1026" on="0"/>
        <pt x="1618" y="408" on="0"/>
        <pt x="1180" y="-31" on="0"/>
        <pt x="541" y="-31" on="0"/>
      </contour>
      <contour>
        <pt x="307" y="717" on="1"/>
        <pt x="307" y="465" on="0"/>
        <pt x="461" y="299" on="1"/>
        <pt x="487" y="270" on="1"/>
        <pt x="1106" y="1251" on="1"/>
        <pt x="1094" y="1259" on="0"/>
        <pt x="1087" y="1262" on="1"/>
        <pt x="981" y="1309" on="0"/>
        <pt x="860" y="1309" on="1"/>
        <pt x="618" y="1309" on="0"/>
        <pt x="307" y="965" on="0"/>
      </contour>
      <contour>
        <pt x="616" y="180" on="1"/>
        <pt x="635" y="172" on="1"/>
        <pt x="739" y="125" on="0"/>
        <pt x="860" y="125" on="1"/>
        <pt x="1102" y="125" on="0"/>
        <pt x="1434" y="471" on="0"/>
        <pt x="1434" y="717" on="1"/>
        <pt x="1434" y="965" on="0"/>
        <pt x="1268" y="1135" on="1"/>
        <pt x="1235" y="1165" on="1"/>
      </contour>
    </TTGlyph>
    <TTGlyph name="Otilde" xMin="123" yMin="-31" xMax="1618" yMax="1946">
      <contour>
        <pt x="123" y="406" on="0"/>
        <pt x="123" y="1028" on="0"/>
        <pt x="541" y="1464" on="0"/>
        <pt x="1180" y="1464" on="0"/>
        <pt x="1618" y="1026" on="0"/>
        <pt x="1618" y="408" on="0"/>
        <pt x="1180" y="-31" on="0"/>
        <pt x="541" y="-31" on="0"/>
      </contour>
      <contour>
        <pt x="307" y="965" on="0"/>
        <pt x="307" y="469" on="0"/>
        <pt x="618" y="125" on="0"/>
        <pt x="1102" y="125" on="0"/>
        <pt x="1434" y="471" on="0"/>
        <pt x="1434" y="963" on="0"/>
        <pt x="1102" y="1309" on="0"/>
        <pt x="618" y="1309" on="0"/>
      </contour>
      <contour>
        <pt x="561" y="1722" on="1"/>
        <pt x="561" y="1816" on="0"/>
        <pt x="676" y="1946" on="0"/>
        <pt x="735" y="1946" on="1"/>
        <pt x="780" y="1946" on="0"/>
        <pt x="870" y="1903" on="1"/>
        <pt x="940" y="1866" on="0"/>
        <pt x="989" y="1866" on="1"/>
        <pt x="1040" y="1868" on="0"/>
        <pt x="1044" y="1946" on="1"/>
        <pt x="1180" y="1946" on="1"/>
        <pt x="1180" y="1856" on="0"/>
        <pt x="1098" y="1722" on="0"/>
        <pt x="1016" y="1722" on="1"/>
        <pt x="965" y="1722" on="0"/>
        <pt x="848" y="1772" on="1"/>
        <pt x="778" y="1803" on="0"/>
        <pt x="752" y="1802" on="1"/>
        <pt x="734" y="1802" on="0"/>
        <pt x="702" y="1761" on="0"/>
        <pt x="696" y="1741" on="1"/>
        <pt x="690" y="1722" on="1"/>
      </contour>
    </TTGlyph>
    <TTGlyph name="P" xMin="176" yMin="0" xMax="1167" yMax="1434">
      <contour>
        <pt x="176" y="0" on="1"/>
        <pt x="176" y="1434" on="1"/>
        <pt x="672" y="1434" on="1"/>
        <pt x="877" y="1434" on="0"/>
        <pt x="1167" y="1153" on="0"/>
        <pt x="1167" y="760" on="0"/>
        <pt x="877" y="481" on="0"/>
        <pt x="672" y="481" on="1"/>
        <pt x="360" y="481" on="1"/>
        <pt x="360" y="0" on="1"/>
      </contour>
      <contour>
        <pt x="360" y="616" on="1"/>
        <pt x="672" y="616" on="1"/>
        <pt x="801" y="616" on="0"/>
        <pt x="983" y="815" on="0"/>
        <pt x="983" y="1098" on="0"/>
        <pt x="801" y="1298" on="0"/>
        <pt x="672" y="1298" on="1"/>
        <pt x="360" y="1298" on="1"/>
      </contour>
    </TTGlyph>
    <TTGlyph name="Q" xMin="123" yMin="-276" xMax="1516" yMax="1464">
      <contour>
        <pt x="123" y="717" on="1"/>
        <pt x="123" y="1024" on="0"/>
        <pt x="530" y="1464" on="0"/>
        <pt x="1108" y="1464" on="0"/>
        <pt x="1516" y="1024" on="0"/>
        <pt x="1516" y="717" on="1"/>
        <pt x="1516" y="453" on="0"/>
        <pt x="1208" y="45" on="0"/>
        <pt x="973" y="-12" on="1"/>
        <pt x="1391" y="-121" on="1"/>
        <pt x="1391" y="-276" on="1"/>
        <pt x="612" y="0" on="1"/>
        <pt x="395" y="80" on="0"/>
        <pt x="123" y="467" on="0"/>
      </contour>
      <contour>
        <pt x="307" y="963" on="0"/>
        <pt x="307" y="471" on="0"/>
        <pt x="606" y="125" on="0"/>
        <pt x="1032" y="125" on="0"/>
        <pt x="1331" y="471" on="0"/>
        <pt x="1331" y="963" on="0"/>
        <pt x="1032" y="1309" on="0"/>
        <pt x="606" y="1309" on="0"/>
      </contour>
    </TTGlyph>
    <TTGlyph name="R" xMin="176" yMin="0" xMax="1147" yMax="1434">
      <contour>
        <pt x="176" y="0" on="1"/>
        <pt x="176" y="1434" on="1"/>
        <pt x="631" y="1434" on="1"/>
        <pt x="838" y="1434" on="0"/>
        <pt x="1126" y="1174" on="0"/>
        <pt x="1126" y="977" on="1"/>
        <pt x="1126" y="830" on="0"/>
        <pt x="961" y="604" on="0"/>
        <pt x="823" y="555" on="1"/>
        <pt x="1147" y="0" on="1"/>
        <pt x="963" y="0" on="1"/>
        <pt x="659" y="522" on="1"/>
        <pt x="360" y="522" on="1"/>
        <pt x="360" y="0" on="1"/>
      </contour>
      <contour>
        <pt x="360" y="657" on="1"/>
        <pt x="631" y="657" on="1"/>
        <pt x="762" y="657" on="0"/>
        <pt x="942" y="838" on="0"/>
        <pt x="942" y="1116" on="0"/>
        <pt x="762" y="1298" on="0"/>
        <pt x="631" y="1298" on="1"/>
        <pt x="360" y="1298" on="1"/>
      </contour>
    </TTGlyph>
    <TTGlyph name="S" xMin="111" yMin="-31" xMax="991" yMax="1464">
      <contour>
        <pt x="111" y="1106" on="1"/>
        <pt x="111" y="1264" on="0"/>
        <pt x="383" y="1464" on="0"/>
        <pt x="561" y="1464" on="1"/>
        <pt x="698" y="1464" on="0"/>
        <pt x="834" y="1401" on="1"/>
        <pt x="879" y="1381" on="0"/>
        <pt x="936" y="1337" on="1"/>
        <pt x="866" y="1186" on="1"/>
        <pt x="821" y="1221" on="0"/>
        <pt x="772" y="1247" on="1"/>
        <pt x="657" y="1308" on="0"/>
        <pt x="561" y="1309" on="1"/>
        <pt x="457" y="1309" on="0"/>
        <pt x="295" y="1202" on="0"/>
        <pt x="295" y="1106" on="1"/>
        <pt x="295" y="1067" on="0"/>
        <pt x="326" y="1001" on="0"/>
        <pt x="364" y="972" on="1"/>
        <pt x="422" y="927" on="1"/>
        <pt x="442" y="912" on="0"/>
        <pt x="555" y="854" on="0"/>
        <pt x="561" y="850" on="1"/>
        <pt x="656" y="798" on="1"/>
        <pt x="725" y="760" on="0"/>
        <pt x="750" y="743" on="1"/>
        <pt x="825" y="693" on="1"/>
        <pt x="876" y="659" on="0"/>
        <pt x="918" y="604" on="0"/>
        <pt x="971" y="524" on="0"/>
        <pt x="991" y="430" on="0"/>
        <pt x="991" y="373" on="1"/>
        <pt x="991" y="201" on="0"/>
        <pt x="705" y="-31" on="0"/>
        <pt x="520" y="-31" on="1"/>
        <pt x="366" y="-31" on="0"/>
        <pt x="223" y="55" on="1"/>
        <pt x="160" y="92" on="0"/>
        <pt x="111" y="143" on="1"/>
        <pt x="182" y="297" on="1"/>
        <pt x="239" y="246" on="0"/>
        <pt x="295" y="211" on="1"/>
        <pt x="426" y="125" on="0"/>
        <pt x="520" y="125" on="1"/>
        <pt x="639" y="125" on="0"/>
        <pt x="807" y="264" on="0"/>
        <pt x="807" y="373" on="1"/>
        <pt x="807" y="469" on="0"/>
        <pt x="664" y="621" on="0"/>
        <pt x="561" y="673" on="1"/>
        <pt x="356" y="780" on="1"/>
        <pt x="254" y="835" on="0"/>
        <pt x="111" y="1000" on="0"/>
      </contour>
    </TTGlyph>
    <TTGlyph name="T" xMin="20" yMin="0" xMax="1065" yMax="1434">
      <contour>
        <pt x="20" y="1298" on="1"/>
        <pt x="20" y="1434" on="1"/>
        <pt x="1065" y="1434" on="1"/>
        <pt x="1065" y="1298" on="1"/>
        <pt x="635" y="1298" on="1"/>
        <pt x="635" y="0" on="1"/>
        <pt x="451" y="0" on="1"/>
        <pt x="451" y="1298" on="1"/>
      </contour>
    </TTGlyph>
    <TTGlyph name="Thorn" xMin="176" yMin="0" xMax="1096" yMax="1434">
      <contour>
        <pt x="176" y="0" on="1"/>
        <pt x="176" y="1434" on="1"/>
        <pt x="360" y="1434" on="1"/>
        <pt x="360" y="1116" on="1"/>
        <pt x="680" y="1116" on="1"/>
        <pt x="852" y="1116" on="0"/>
        <pt x="1096" y="872" on="0"/>
        <pt x="1096" y="528" on="0"/>
        <pt x="852" y="287" on="0"/>
        <pt x="680" y="287" on="1"/>
        <pt x="360" y="287" on="1"/>
        <pt x="360" y="0" on="1"/>
      </contour>
      <contour>
        <pt x="360" y="442" on="1"/>
        <pt x="680" y="442" on="1"/>
        <pt x="774" y="442" on="0"/>
        <pt x="911" y="594" on="0"/>
        <pt x="911" y="807" on="0"/>
        <pt x="774" y="961" on="0"/>
        <pt x="680" y="961" on="1"/>
        <pt x="360" y="961" on="1"/>
      </contour>
    </TTGlyph>
    <TTGlyph name="U" xMin="176" yMin="-31" xMax="1364" yMax="1434">
      <contour>
        <pt x="176" y="532" on="1"/>
        <pt x="176" y="1434" on="1"/>
        <pt x="360" y="1434" on="1"/>
        <pt x="360" y="492" on="1"/>
        <pt x="360" y="402" on="0"/>
        <pt x="442" y="260" on="0"/>
        <pt x="571" y="180" on="0"/>
        <pt x="707" y="139" on="0"/>
        <pt x="834" y="139" on="0"/>
        <pt x="969" y="180" on="0"/>
        <pt x="1098" y="260" on="0"/>
        <pt x="1180" y="401" on="0"/>
        <pt x="1180" y="492" on="1"/>
        <pt x="1180" y="1434" on="1"/>
        <pt x="1364" y="1434" on="1"/>
        <pt x="1364" y="532" on="1"/>
        <pt x="1364" y="399" on="0"/>
        <pt x="1280" y="193" on="0"/>
        <pt x="1153" y="74" on="0"/>
        <pt x="985" y="-4" on="0"/>
        <pt x="842" y="-31" on="0"/>
        <pt x="770" y="-31" on="1"/>
        <pt x="700" y="-31" on="0"/>
        <pt x="553" y="-4" on="0"/>
        <pt x="387" y="74" on="0"/>
        <pt x="260" y="195" on="0"/>
        <pt x="176" y="401" on="0"/>
      </contour>
    </TTGlyph>
    <TTGlyph name="Uacute" xMin="176" yMin="-31" xMax="1364" yMax="1946">
      <contour>
        <pt x="176" y="532" on="1"/>
        <pt x="176" y="1434" on="1"/>
        <pt x="360" y="1434" on="1"/>
        <pt x="360" y="492" on="1"/>
        <pt x="360" y="402" on="0"/>
        <pt x="442" y="260" on="0"/>
        <pt x="571" y="180" on="0"/>
        <pt x="707" y="139" on="0"/>
        <pt x="834" y="139" on="0"/>
        <pt x="969" y="180" on="0"/>
        <pt x="1098" y="260" on="0"/>
        <pt x="1180" y="401" on="0"/>
        <pt x="1180" y="492" on="1"/>
        <pt x="1180" y="1434" on="1"/>
        <pt x="1364" y="1434" on="1"/>
        <pt x="1364" y="532" on="1"/>
        <pt x="1364" y="399" on="0"/>
        <pt x="1280" y="193" on="0"/>
        <pt x="1153" y="74" on="0"/>
        <pt x="985" y="-4" on="0"/>
        <pt x="842" y="-31" on="0"/>
        <pt x="770" y="-31" on="1"/>
        <pt x="700" y="-31" on="0"/>
        <pt x="553" y="-4" on="0"/>
        <pt x="387" y="74" on="0"/>
        <pt x="260" y="195" on="0"/>
        <pt x="176" y="401" on="0"/>
      </contour>
      <contour>
        <pt x="629" y="1673" on="1"/>
        <pt x="829" y="1946" on="1"/>
        <pt x="1055" y="1946" on="1"/>
        <pt x="813" y="1673" on="1"/>
      </contour>
    </TTGlyph>
    <TTGlyph name="Ucircumflex" xMin="176" yMin="-31" xMax="1364" yMax="1946">
      <contour>
        <pt x="176" y="532" on="1"/>
        <pt x="176" y="1434" on="1"/>
        <pt x="360" y="1434" on="1"/>
        <pt x="360" y="492" on="1"/>
        <pt x="360" y="402" on="0"/>
        <pt x="442" y="260" on="0"/>
        <pt x="571" y="180" on="0"/>
        <pt x="707" y="139" on="0"/>
        <pt x="834" y="139" on="0"/>
        <pt x="969" y="180" on="0"/>
        <pt x="1098" y="260" on="0"/>
        <pt x="1180" y="401" on="0"/>
        <pt x="1180" y="492" on="1"/>
        <pt x="1180" y="1434" on="1"/>
        <pt x="1364" y="1434" on="1"/>
        <pt x="1364" y="532" on="1"/>
        <pt x="1364" y="399" on="0"/>
        <pt x="1280" y="193" on="0"/>
        <pt x="1153" y="74" on="0"/>
        <pt x="985" y="-4" on="0"/>
        <pt x="842" y="-31" on="0"/>
        <pt x="770" y="-31" on="1"/>
        <pt x="700" y="-31" on="0"/>
        <pt x="553" y="-4" on="0"/>
        <pt x="387" y="74" on="0"/>
        <pt x="260" y="195" on="0"/>
        <pt x="176" y="401" on="0"/>
      </contour>
      <contour>
        <pt x="434" y="1673" on="1"/>
        <pt x="635" y="1946" on="1"/>
        <pt x="885" y="1946" on="1"/>
        <pt x="1085" y="1673" on="1"/>
        <pt x="901" y="1673" on="1"/>
        <pt x="760" y="1874" on="1"/>
        <pt x="618" y="1673" on="1"/>
      </contour>
    </TTGlyph>
    <TTGlyph name="Udieresis" xMin="176" yMin="-31" xMax="1364" yMax="1946">
      <contour>
        <pt x="176" y="532" on="1"/>
        <pt x="176" y="1434" on="1"/>
        <pt x="360" y="1434" on="1"/>
        <pt x="360" y="492" on="1"/>
        <pt x="360" y="402" on="0"/>
        <pt x="442" y="260" on="0"/>
        <pt x="571" y="180" on="0"/>
        <pt x="707" y="139" on="0"/>
        <pt x="834" y="139" on="0"/>
        <pt x="969" y="180" on="0"/>
        <pt x="1098" y="260" on="0"/>
        <pt x="1180" y="401" on="0"/>
        <pt x="1180" y="492" on="1"/>
        <pt x="1180" y="1434" on="1"/>
        <pt x="1364" y="1434" on="1"/>
        <pt x="1364" y="532" on="1"/>
        <pt x="1364" y="399" on="0"/>
        <pt x="1280" y="193" on="0"/>
        <pt x="1153" y="74" on="0"/>
        <pt x="985" y="-4" on="0"/>
        <pt x="842" y="-31" on="0"/>
        <pt x="770" y="-31" on="1"/>
        <pt x="700" y="-31" on="0"/>
        <pt x="553" y="-4" on="0"/>
        <pt x="387" y="74" on="0"/>
        <pt x="260" y="195" on="0"/>
        <pt x="176" y="401" on="0"/>
      </contour>
      <contour>
        <pt x="494" y="1757" on="1"/>
        <pt x="494" y="1946" on="1"/>
        <pt x="668" y="1946" on="1"/>
        <pt x="668" y="1757" on="1"/>
      </contour>
      <contour>
        <pt x="852" y="1757" on="1"/>
        <pt x="852" y="1946" on="1"/>
        <pt x="1026" y="1946" on="1"/>
        <pt x="1026" y="1757" on="1"/>
      </contour>
    </TTGlyph>
    <TTGlyph name="Ugrave" xMin="176" yMin="-31" xMax="1364" yMax="1946">
      <contour>
        <pt x="176" y="532" on="1"/>
        <pt x="176" y="1434" on="1"/>
        <pt x="360" y="1434" on="1"/>
        <pt x="360" y="492" on="1"/>
        <pt x="360" y="402" on="0"/>
        <pt x="442" y="260" on="0"/>
        <pt x="571" y="180" on="0"/>
        <pt x="707" y="139" on="0"/>
        <pt x="834" y="139" on="0"/>
        <pt x="969" y="180" on="0"/>
        <pt x="1098" y="260" on="0"/>
        <pt x="1180" y="401" on="0"/>
        <pt x="1180" y="492" on="1"/>
        <pt x="1180" y="1434" on="1"/>
        <pt x="1364" y="1434" on="1"/>
        <pt x="1364" y="532" on="1"/>
        <pt x="1364" y="399" on="0"/>
        <pt x="1280" y="193" on="0"/>
        <pt x="1153" y="74" on="0"/>
        <pt x="985" y="-4" on="0"/>
        <pt x="842" y="-31" on="0"/>
        <pt x="770" y="-31" on="1"/>
        <pt x="700" y="-31" on="0"/>
        <pt x="553" y="-4" on="0"/>
        <pt x="387" y="74" on="0"/>
        <pt x="260" y="195" on="0"/>
        <pt x="176" y="401" on="0"/>
      </contour>
      <contour>
        <pt x="465" y="1946" on="1"/>
        <pt x="690" y="1946" on="1"/>
        <pt x="891" y="1673" on="1"/>
        <pt x="707" y="1673" on="1"/>
      </contour>
    </TTGlyph>
    <TTGlyph name="V" xMin="82" yMin="0" xMax="1278" yMax="1434">
      <contour>
        <pt x="82" y="1434" on="1"/>
        <pt x="264" y="1434" on="1"/>
        <pt x="680" y="240" on="1"/>
        <pt x="1094" y="1434" on="1"/>
        <pt x="1278" y="1434" on="1"/>
        <pt x="772" y="0" on="1"/>
        <pt x="588" y="0" on="1"/>
      </contour>
    </TTGlyph>
    <TTGlyph name="W" xMin="82" yMin="0" xMax="1929" yMax="1434">
      <contour>
        <pt x="82" y="1434" on="1"/>
        <pt x="266" y="1434" on="1"/>
        <pt x="582" y="272" on="1"/>
        <pt x="928" y="1434" on="1"/>
        <pt x="1110" y="1434" on="1"/>
        <pt x="1427" y="272" on="1"/>
        <pt x="1745" y="1434" on="1"/>
        <pt x="1929" y="1434" on="1"/>
        <pt x="1520" y="0" on="1"/>
        <pt x="1335" y="0" on="1"/>
        <pt x="1020" y="1159" on="1"/>
        <pt x="674" y="0" on="1"/>
        <pt x="489" y="0" on="1"/>
      </contour>
    </TTGlyph>
    <TTGlyph name="X" xMin="82" yMin="0" xMax="1264" yMax="1434">
      <contour>
        <pt x="82" y="0" on="1"/>
        <pt x="561" y="715" on="1"/>
        <pt x="82" y="1434" on="1"/>
        <pt x="305" y="1434" on="1"/>
        <pt x="672" y="881" on="1"/>
        <pt x="1040" y="1434" on="1"/>
        <pt x="1264" y="1434" on="1"/>
        <pt x="784" y="715" on="1"/>
        <pt x="1264" y="0" on="1"/>
        <pt x="1038" y="0" on="1"/>
        <pt x="672" y="547" on="1"/>
        <pt x="307" y="0" on="1"/>
      </contour>
    </TTGlyph>
    <TTGlyph name="Y" xMin="82" yMin="0" xMax="1210" yMax="1434">
      <contour>
        <pt x="82" y="1434" on="1"/>
        <pt x="266" y="1434" on="1"/>
        <pt x="637" y="819" on="1"/>
        <pt x="1026" y="1434" on="1"/>
        <pt x="1210" y="1434" on="1"/>
        <pt x="721" y="657" on="1"/>
        <pt x="721" y="0" on="1"/>
        <pt x="549" y="0" on="1"/>
        <pt x="549" y="657" on="1"/>
      </contour>
    </TTGlyph>
    <TTGlyph name="Yacute" xMin="82" yMin="0" xMax="1210" yMax="1946">
      <contour>
        <pt x="82" y="1434" on="1"/>
        <pt x="266" y="1434" on="1"/>
        <pt x="637" y="819" on="1"/>
        <pt x="1026" y="1434" on="1"/>
        <pt x="1210" y="1434" on="1"/>
        <pt x="721" y="657" on="1"/>
        <pt x="721" y="0" on="1"/>
        <pt x="549" y="0" on="1"/>
        <pt x="549" y="657" on="1"/>
      </contour>
      <contour>
        <pt x="494" y="1673" on="1"/>
        <pt x="694" y="1946" on="1"/>
        <pt x="920" y="1946" on="1"/>
        <pt x="678" y="1673" on="1"/>
      </contour>
    </TTGlyph>
    <TTGlyph name="Ydieresis" xMin="82" yMin="0" xMax="1210" yMax="1946">
      <contour>
        <pt x="82" y="1434" on="1"/>
        <pt x="266" y="1434" on="1"/>
        <pt x="637" y="819" on="1"/>
        <pt x="1026" y="1434" on="1"/>
        <pt x="1210" y="1434" on="1"/>
        <pt x="721" y="657" on="1"/>
        <pt x="721" y="0" on="1"/>
        <pt x="549" y="0" on="1"/>
        <pt x="549" y="657" on="1"/>
      </contour>
      <contour>
        <pt x="379" y="1757" on="1"/>
        <pt x="379" y="1946" on="1"/>
        <pt x="553" y="1946" on="1"/>
        <pt x="553" y="1757" on="1"/>
      </contour>
      <contour>
        <pt x="737" y="1757" on="1"/>
        <pt x="737" y="1946" on="1"/>
        <pt x="911" y="1946" on="1"/>
        <pt x="911" y="1757" on="1"/>
      </contour>
    </TTGlyph>
    <TTGlyph name="Z" xMin="88" yMin="0" xMax="1130" yMax="1434">
      <contour>
        <pt x="88" y="0" on="1"/>
        <pt x="88" y="135" on="1"/>
        <pt x="905" y="1298" on="1"/>
        <pt x="88" y="1298" on="1"/>
        <pt x="88" y="1434" on="1"/>
        <pt x="1130" y="1434" on="1"/>
        <pt x="1130" y="1298" on="1"/>
        <pt x="313" y="135" on="1"/>
        <pt x="1130" y="135" on="1"/>
        <pt x="1130" y="0" on="1"/>
      </contour>
    </TTGlyph>
    <TTGlyph name="a" xMin="111" yMin="-20" xMax="940" yMax="1055">
      <contour>
        <pt x="111" y="324" on="1"/>
        <pt x="111" y="461" on="0"/>
        <pt x="311" y="645" on="0"/>
        <pt x="492" y="645" on="1"/>
        <pt x="764" y="645" on="1"/>
        <pt x="764" y="723" on="1"/>
        <pt x="764" y="817" on="0"/>
        <pt x="690" y="897" on="0"/>
        <pt x="590" y="897" on="1"/>
        <pt x="516" y="897" on="0"/>
        <pt x="365" y="881" on="1"/>
        <pt x="227" y="864" on="1"/>
        <pt x="227" y="1024" on="1"/>
        <pt x="338" y="1032" on="0"/>
        <pt x="391" y="1038" on="1"/>
        <pt x="571" y="1054" on="0"/>
        <pt x="659" y="1055" on="1"/>
        <pt x="804" y="1055" on="0"/>
        <pt x="940" y="891" on="0"/>
        <pt x="940" y="784" on="1"/>
        <pt x="940" y="0" on="1"/>
        <pt x="811" y="0" on="1"/>
        <pt x="782" y="100" on="1"/>
        <pt x="776" y="100" on="1"/>
        <pt x="598" y="-21" on="0"/>
        <pt x="434" y="-20" on="1"/>
        <pt x="278" y="-20" on="0"/>
        <pt x="111" y="191" on="0"/>
      </contour>
      <contour>
        <pt x="289" y="324" on="1"/>
        <pt x="289" y="244" on="0"/>
        <pt x="373" y="117" on="0"/>
        <pt x="469" y="117" on="1"/>
        <pt x="537" y="117" on="0"/>
        <pt x="705" y="176" on="0"/>
        <pt x="762" y="215" on="1"/>
        <pt x="764" y="215" on="1"/>
        <pt x="764" y="508" on="1"/>
        <pt x="492" y="508" on="1"/>
        <pt x="289" y="508" on="0"/>
      </contour>
    </TTGlyph>
    <TTGlyph name="aacute" xMin="111" yMin="-20" xMax="940" yMax="1536">
      <contour>
        <pt x="111" y="324" on="1"/>
        <pt x="111" y="461" on="0"/>
        <pt x="311" y="645" on="0"/>
        <pt x="492" y="645" on="1"/>
        <pt x="764" y="645" on="1"/>
        <pt x="764" y="723" on="1"/>
        <pt x="764" y="817" on="0"/>
        <pt x="690" y="897" on="0"/>
        <pt x="590" y="897" on="1"/>
        <pt x="516" y="897" on="0"/>
        <pt x="365" y="881" on="1"/>
        <pt x="227" y="864" on="1"/>
        <pt x="227" y="1024" on="1"/>
        <pt x="338" y="1032" on="0"/>
        <pt x="391" y="1038" on="1"/>
        <pt x="571" y="1054" on="0"/>
        <pt x="659" y="1055" on="1"/>
        <pt x="804" y="1055" on="0"/>
        <pt x="940" y="891" on="0"/>
        <pt x="940" y="784" on="1"/>
        <pt x="940" y="0" on="1"/>
        <pt x="811" y="0" on="1"/>
        <pt x="782" y="100" on="1"/>
        <pt x="776" y="100" on="1"/>
        <pt x="598" y="-21" on="0"/>
        <pt x="434" y="-20" on="1"/>
        <pt x="278" y="-20" on="0"/>
        <pt x="111" y="191" on="0"/>
      </contour>
      <contour>
        <pt x="289" y="324" on="1"/>
        <pt x="289" y="244" on="0"/>
        <pt x="373" y="117" on="0"/>
        <pt x="469" y="117" on="1"/>
        <pt x="537" y="117" on="0"/>
        <pt x="705" y="176" on="0"/>
        <pt x="762" y="215" on="1"/>
        <pt x="764" y="215" on="1"/>
        <pt x="764" y="508" on="1"/>
        <pt x="492" y="508" on="1"/>
        <pt x="289" y="508" on="0"/>
      </contour>
      <contour>
        <pt x="424" y="1264" on="1"/>
        <pt x="625" y="1536" on="1"/>
        <pt x="850" y="1536" on="1"/>
        <pt x="608" y="1264" on="1"/>
      </contour>
    </TTGlyph>
    <TTGlyph name="acircumflex" xMin="111" yMin="-20" xMax="940" yMax="1536">
      <contour>
        <pt x="111" y="324" on="1"/>
        <pt x="111" y="461" on="0"/>
        <pt x="311" y="645" on="0"/>
        <pt x="492" y="645" on="1"/>
        <pt x="764" y="645" on="1"/>
        <pt x="764" y="723" on="1"/>
        <pt x="764" y="817" on="0"/>
        <pt x="690" y="897" on="0"/>
        <pt x="590" y="897" on="1"/>
        <pt x="516" y="897" on="0"/>
        <pt x="365" y="881" on="1"/>
        <pt x="227" y="864" on="1"/>
        <pt x="227" y="1024" on="1"/>
        <pt x="338" y="1032" on="0"/>
        <pt x="391" y="1038" on="1"/>
        <pt x="571" y="1054" on="0"/>
        <pt x="659" y="1055" on="1"/>
        <pt x="804" y="1055" on="0"/>
        <pt x="940" y="891" on="0"/>
        <pt x="940" y="784" on="1"/>
        <pt x="940" y="0" on="1"/>
        <pt x="811" y="0" on="1"/>
        <pt x="782" y="100" on="1"/>
        <pt x="776" y="100" on="1"/>
        <pt x="598" y="-21" on="0"/>
        <pt x="434" y="-20" on="1"/>
        <pt x="278" y="-20" on="0"/>
        <pt x="111" y="191" on="0"/>
      </contour>
      <contour>
        <pt x="217" y="1264" on="1"/>
        <pt x="418" y="1536" on="1"/>
        <pt x="668" y="1536" on="1"/>
        <pt x="868" y="1264" on="1"/>
        <pt x="684" y="1264" on="1"/>
        <pt x="543" y="1464" on="1"/>
        <pt x="401" y="1264" on="1"/>
      </contour>
      <contour>
        <pt x="289" y="324" on="1"/>
        <pt x="289" y="244" on="0"/>
        <pt x="373" y="117" on="0"/>
        <pt x="469" y="117" on="1"/>
        <pt x="537" y="117" on="0"/>
        <pt x="705" y="176" on="0"/>
        <pt x="762" y="215" on="1"/>
        <pt x="764" y="215" on="1"/>
        <pt x="764" y="508" on="1"/>
        <pt x="492" y="508" on="1"/>
        <pt x="289" y="508" on="0"/>
      </contour>
    </TTGlyph>
    <TTGlyph name="acute" xMin="100" yMin="1264" xMax="526" yMax="1536">
      <contour>
        <pt x="100" y="1264" on="1"/>
        <pt x="301" y="1536" on="1"/>
        <pt x="526" y="1536" on="1"/>
        <pt x="285" y="1264" on="1"/>
      </contour>
    </TTGlyph>
    <TTGlyph name="adieresis" xMin="111" yMin="-20" xMax="940" yMax="1536">
      <contour>
        <pt x="111" y="324" on="1"/>
        <pt x="111" y="461" on="0"/>
        <pt x="311" y="645" on="0"/>
        <pt x="492" y="645" on="1"/>
        <pt x="764" y="645" on="1"/>
        <pt x="764" y="723" on="1"/>
        <pt x="764" y="817" on="0"/>
        <pt x="690" y="897" on="0"/>
        <pt x="590" y="897" on="1"/>
        <pt x="516" y="897" on="0"/>
        <pt x="365" y="881" on="1"/>
        <pt x="227" y="864" on="1"/>
        <pt x="227" y="1024" on="1"/>
        <pt x="338" y="1032" on="0"/>
        <pt x="391" y="1038" on="1"/>
        <pt x="571" y="1054" on="0"/>
        <pt x="659" y="1055" on="1"/>
        <pt x="804" y="1055" on="0"/>
        <pt x="940" y="891" on="0"/>
        <pt x="940" y="784" on="1"/>
        <pt x="940" y="0" on="1"/>
        <pt x="811" y="0" on="1"/>
        <pt x="782" y="100" on="1"/>
        <pt x="776" y="100" on="1"/>
        <pt x="598" y="-21" on="0"/>
        <pt x="434" y="-20" on="1"/>
        <pt x="278" y="-20" on="0"/>
        <pt x="111" y="191" on="0"/>
      </contour>
      <contour>
        <pt x="276" y="1348" on="1"/>
        <pt x="276" y="1536" on="1"/>
        <pt x="451" y="1536" on="1"/>
        <pt x="451" y="1348" on="1"/>
      </contour>
      <contour>
        <pt x="289" y="324" on="1"/>
        <pt x="289" y="244" on="0"/>
        <pt x="373" y="117" on="0"/>
        <pt x="469" y="117" on="1"/>
        <pt x="537" y="117" on="0"/>
        <pt x="705" y="176" on="0"/>
        <pt x="762" y="215" on="1"/>
        <pt x="764" y="215" on="1"/>
        <pt x="764" y="508" on="1"/>
        <pt x="492" y="508" on="1"/>
        <pt x="289" y="508" on="0"/>
      </contour>
      <contour>
        <pt x="635" y="1348" on="1"/>
        <pt x="635" y="1536" on="1"/>
        <pt x="809" y="1536" on="1"/>
        <pt x="809" y="1348" on="1"/>
      </contour>
    </TTGlyph>
    <TTGlyph name="ae" xMin="111" yMin="-31" xMax="1675" yMax="1055">
      <contour>
        <pt x="111" y="324" on="1"/>
        <pt x="111" y="461" on="0"/>
        <pt x="311" y="645" on="0"/>
        <pt x="492" y="645" on="1"/>
        <pt x="764" y="645" on="1"/>
        <pt x="764" y="723" on="1"/>
        <pt x="764" y="817" on="0"/>
        <pt x="690" y="897" on="0"/>
        <pt x="590" y="897" on="1"/>
        <pt x="516" y="897" on="0"/>
        <pt x="365" y="881" on="1"/>
        <pt x="227" y="864" on="1"/>
        <pt x="227" y="1024" on="1"/>
        <pt x="338" y="1032" on="0"/>
        <pt x="391" y="1038" on="1"/>
        <pt x="571" y="1054" on="0"/>
        <pt x="659" y="1055" on="1"/>
        <pt x="839" y="1055" on="0"/>
        <pt x="909" y="918" on="1"/>
        <pt x="970" y="984" on="0"/>
        <pt x="1053" y="1016" on="1"/>
        <pt x="1139" y="1055" on="0"/>
        <pt x="1247" y="1055" on="1"/>
        <pt x="1675" y="1055" on="0"/>
        <pt x="1675" y="451" on="1"/>
        <pt x="940" y="451" on="1"/>
        <pt x="950" y="324" on="0"/>
        <pt x="1116" y="125" on="0"/>
        <pt x="1286" y="125" on="1"/>
        <pt x="1483" y="125" on="0"/>
        <pt x="1624" y="190" on="1"/>
        <pt x="1624" y="29" on="1"/>
        <pt x="1470" y="-30" on="0"/>
        <pt x="1309" y="-31" on="1"/>
        <pt x="1164" y="-31" on="0"/>
        <pt x="1061" y="12" on="1"/>
        <pt x="995" y="41" on="0"/>
        <pt x="940" y="86" on="1"/>
        <pt x="940" y="0" on="1"/>
        <pt x="811" y="0" on="1"/>
        <pt x="782" y="100" on="1"/>
        <pt x="776" y="100" on="1"/>
        <pt x="598" y="-21" on="0"/>
        <pt x="434" y="-20" on="1"/>
        <pt x="278" y="-20" on="0"/>
        <pt x="111" y="191" on="0"/>
      </contour>
      <contour>
        <pt x="289" y="324" on="1"/>
        <pt x="289" y="244" on="0"/>
        <pt x="373" y="117" on="0"/>
        <pt x="469" y="117" on="1"/>
        <pt x="537" y="117" on="0"/>
        <pt x="705" y="176" on="0"/>
        <pt x="762" y="215" on="1"/>
        <pt x="764" y="215" on="1"/>
        <pt x="764" y="508" on="1"/>
        <pt x="492" y="508" on="1"/>
        <pt x="289" y="508" on="0"/>
      </contour>
      <contour>
        <pt x="946" y="586" on="1"/>
        <pt x="1499" y="586" on="1"/>
        <pt x="1485" y="723" on="0"/>
        <pt x="1362" y="899" on="0"/>
        <pt x="1243" y="899" on="1"/>
        <pt x="1126" y="899" on="0"/>
        <pt x="962" y="727" on="0"/>
      </contour>
    </TTGlyph>
    <TTGlyph name="agrave" xMin="111" yMin="-20" xMax="940" yMax="1536">
      <contour>
        <pt x="111" y="324" on="1"/>
        <pt x="111" y="461" on="0"/>
        <pt x="311" y="645" on="0"/>
        <pt x="492" y="645" on="1"/>
        <pt x="764" y="645" on="1"/>
        <pt x="764" y="723" on="1"/>
        <pt x="764" y="817" on="0"/>
        <pt x="690" y="897" on="0"/>
        <pt x="590" y="897" on="1"/>
        <pt x="516" y="897" on="0"/>
        <pt x="365" y="881" on="1"/>
        <pt x="227" y="864" on="1"/>
        <pt x="227" y="1024" on="1"/>
        <pt x="338" y="1032" on="0"/>
        <pt x="391" y="1038" on="1"/>
        <pt x="571" y="1054" on="0"/>
        <pt x="659" y="1055" on="1"/>
        <pt x="804" y="1055" on="0"/>
        <pt x="940" y="891" on="0"/>
        <pt x="940" y="784" on="1"/>
        <pt x="940" y="0" on="1"/>
        <pt x="811" y="0" on="1"/>
        <pt x="782" y="100" on="1"/>
        <pt x="776" y="100" on="1"/>
        <pt x="598" y="-21" on="0"/>
        <pt x="434" y="-20" on="1"/>
        <pt x="278" y="-20" on="0"/>
        <pt x="111" y="191" on="0"/>
      </contour>
      <contour>
        <pt x="289" y="324" on="1"/>
        <pt x="289" y="244" on="0"/>
        <pt x="373" y="117" on="0"/>
        <pt x="469" y="117" on="1"/>
        <pt x="537" y="117" on="0"/>
        <pt x="705" y="176" on="0"/>
        <pt x="762" y="215" on="1"/>
        <pt x="764" y="215" on="1"/>
        <pt x="764" y="508" on="1"/>
        <pt x="492" y="508" on="1"/>
        <pt x="289" y="508" on="0"/>
      </contour>
      <contour>
        <pt x="319" y="1536" on="1"/>
        <pt x="545" y="1536" on="1"/>
        <pt x="745" y="1264" on="1"/>
        <pt x="561" y="1264" on="1"/>
      </contour>
    </TTGlyph>
    <TTGlyph name="ampersand" xMin="53" yMin="-31" xMax="1290" yMax="1464">
      <contour>
        <pt x="53" y="354" on="1"/>
        <pt x="53" y="485" on="0"/>
        <pt x="215" y="684" on="0"/>
        <pt x="356" y="780" on="1"/>
        <pt x="196" y="952" on="0"/>
        <pt x="197" y="1143" on="1"/>
        <pt x="197" y="1166" on="0"/>
        <pt x="201" y="1214" on="0"/>
        <pt x="236" y="1323" on="0"/>
        <pt x="295" y="1401" on="0"/>
        <pt x="424" y="1464" on="0"/>
        <pt x="514" y="1464" on="1"/>
        <pt x="719" y="1464" on="0"/>
        <pt x="807" y="1303" on="1"/>
        <pt x="846" y="1229" on="0"/>
        <pt x="848" y="1143" on="1"/>
        <pt x="848" y="950" on="0"/>
        <pt x="616" y="758" on="1"/>
        <pt x="881" y="455" on="1"/>
        <pt x="932" y="574" on="0"/>
        <pt x="932" y="676" on="1"/>
        <pt x="1116" y="676" on="1"/>
        <pt x="1116" y="479" on="0"/>
        <pt x="1016" y="307" on="1"/>
        <pt x="1290" y="0" on="1"/>
        <pt x="1028" y="0" on="1"/>
        <pt x="897" y="152" on="1"/>
        <pt x="711" y="-30" on="0"/>
        <pt x="489" y="-31" on="1"/>
        <pt x="301" y="-31" on="0"/>
        <pt x="53" y="192" on="0"/>
      </contour>
      <contour>
        <pt x="238" y="371" on="1"/>
        <pt x="238" y="285" on="0"/>
        <pt x="383" y="154" on="0"/>
        <pt x="494" y="154" on="1"/>
        <pt x="639" y="154" on="0"/>
        <pt x="774" y="295" on="1"/>
        <pt x="467" y="649" on="1"/>
        <pt x="350" y="567" on="0"/>
        <pt x="238" y="445" on="0"/>
      </contour>
      <contour>
        <pt x="381" y="1157" on="1"/>
        <pt x="381" y="1044" on="0"/>
        <pt x="508" y="889" on="1"/>
        <pt x="664" y="1016" on="0"/>
        <pt x="664" y="1157" on="1"/>
        <pt x="662" y="1194" on="0"/>
        <pt x="645" y="1229" on="1"/>
        <pt x="606" y="1301" on="0"/>
        <pt x="520" y="1300" on="1"/>
        <pt x="430" y="1300" on="0"/>
        <pt x="397" y="1229" on="1"/>
        <pt x="385" y="1200" on="0"/>
      </contour>
    </TTGlyph>
    <TTGlyph name="aring" xMin="111" yMin="-20" xMax="940" yMax="1536">
      <contour>
        <pt x="111" y="324" on="1"/>
        <pt x="111" y="461" on="0"/>
        <pt x="311" y="645" on="0"/>
        <pt x="492" y="645" on="1"/>
        <pt x="764" y="645" on="1"/>
        <pt x="764" y="723" on="1"/>
        <pt x="764" y="817" on="0"/>
        <pt x="690" y="897" on="0"/>
        <pt x="590" y="897" on="1"/>
        <pt x="516" y="897" on="0"/>
        <pt x="365" y="881" on="1"/>
        <pt x="227" y="864" on="1"/>
        <pt x="227" y="1024" on="1"/>
        <pt x="338" y="1032" on="0"/>
        <pt x="391" y="1038" on="1"/>
        <pt x="571" y="1054" on="0"/>
        <pt x="659" y="1055" on="1"/>
        <pt x="804" y="1055" on="0"/>
        <pt x="940" y="891" on="0"/>
        <pt x="940" y="784" on="1"/>
        <pt x="940" y="0" on="1"/>
        <pt x="811" y="0" on="1"/>
        <pt x="782" y="100" on="1"/>
        <pt x="776" y="100" on="1"/>
        <pt x="598" y="-21" on="0"/>
        <pt x="434" y="-20" on="1"/>
        <pt x="278" y="-20" on="0"/>
        <pt x="111" y="191" on="0"/>
      </contour>
      <contour>
        <pt x="289" y="324" on="1"/>
        <pt x="289" y="244" on="0"/>
        <pt x="373" y="117" on="0"/>
        <pt x="469" y="117" on="1"/>
        <pt x="537" y="117" on="0"/>
        <pt x="705" y="176" on="0"/>
        <pt x="762" y="215" on="1"/>
        <pt x="764" y="215" on="1"/>
        <pt x="764" y="508" on="1"/>
        <pt x="492" y="508" on="1"/>
        <pt x="289" y="508" on="0"/>
      </contour>
      <contour>
        <pt x="416" y="1298" on="0"/>
        <pt x="416" y="1438" on="0"/>
        <pt x="514" y="1536" on="0"/>
        <pt x="653" y="1536" on="0"/>
        <pt x="752" y="1438" on="0"/>
        <pt x="752" y="1298" on="0"/>
        <pt x="653" y="1200" on="0"/>
        <pt x="514" y="1200" on="0"/>
      </contour>
      <contour>
        <pt x="498" y="1403" on="0"/>
        <pt x="498" y="1333" on="0"/>
        <pt x="549" y="1282" on="0"/>
        <pt x="618" y="1282" on="0"/>
        <pt x="670" y="1333" on="0"/>
        <pt x="670" y="1403" on="0"/>
        <pt x="618" y="1454" on="0"/>
        <pt x="549" y="1454" on="0"/>
      </contour>
    </TTGlyph>
    <TTGlyph name="asterisk" xMin="31" yMin="631" xMax="907" yMax="1464">
      <contour>
        <pt x="31" y="1092" on="1"/>
        <pt x="37" y="1115" on="0"/>
        <pt x="74" y="1214" on="0"/>
        <pt x="82" y="1241" on="1"/>
        <pt x="387" y="1137" on="1"/>
        <pt x="387" y="1464" on="1"/>
        <pt x="547" y="1464" on="1"/>
        <pt x="547" y="1137" on="1"/>
        <pt x="858" y="1241" on="1"/>
        <pt x="866" y="1214" on="0"/>
        <pt x="901" y="1112" on="0"/>
        <pt x="907" y="1092" on="1"/>
        <pt x="598" y="987" on="1"/>
        <pt x="788" y="725" on="1"/>
        <pt x="725" y="674" on="0"/>
        <pt x="659" y="631" on="1"/>
        <pt x="469" y="893" on="1"/>
        <pt x="276" y="631" on="1"/>
        <pt x="145" y="725" on="1"/>
        <pt x="338" y="987" on="1"/>
        <pt x="213" y="1026" on="0"/>
      </contour>
    </TTGlyph>
    <TTGlyph name="at" xMin="55" yMin="-266" xMax="1571" yMax="1229">
      <contour>
        <pt x="55" y="481" on="1"/>
        <pt x="55" y="786" on="0"/>
        <pt x="514" y="1229" on="0"/>
        <pt x="823" y="1229" on="1"/>
        <pt x="1130" y="1229" on="0"/>
        <pt x="1571" y="788" on="0"/>
        <pt x="1571" y="481" on="1"/>
        <pt x="1571" y="227" on="0"/>
        <pt x="1382" y="-72" on="0"/>
        <pt x="1245" y="-72" on="1"/>
        <pt x="1073" y="-72" on="0"/>
        <pt x="1014" y="160" on="1"/>
        <pt x="994" y="127" on="0"/>
        <pt x="954" y="96" on="1"/>
        <pt x="872" y="35" on="0"/>
        <pt x="760" y="35" on="1"/>
        <pt x="596" y="35" on="0"/>
        <pt x="397" y="287" on="0"/>
        <pt x="397" y="453" on="1"/>
        <pt x="397" y="631" on="0"/>
        <pt x="633" y="897" on="0"/>
        <pt x="846" y="897" on="1"/>
        <pt x="965" y="897" on="0"/>
        <pt x="1063" y="850" on="1"/>
        <pt x="1102" y="830" on="0"/>
        <pt x="1135" y="803" on="1"/>
        <pt x="1135" y="340" on="1"/>
        <pt x="1135" y="211" on="0"/>
        <pt x="1198" y="78" on="0"/>
        <pt x="1245" y="78" on="1"/>
        <pt x="1325" y="78" on="0"/>
        <pt x="1386" y="266" on="0"/>
        <pt x="1386" y="481" on="1"/>
        <pt x="1386" y="729" on="0"/>
        <pt x="1057" y="1079" on="0"/>
        <pt x="590" y="1079" on="0"/>
        <pt x="240" y="727" on="0"/>
        <pt x="240" y="481" on="1"/>
        <pt x="240" y="233" on="0"/>
        <pt x="569" y="-117" on="0"/>
        <pt x="803" y="-117" on="1"/>
        <pt x="879" y="-117" on="0"/>
        <pt x="946" y="-102" on="1"/>
        <pt x="987" y="-94" on="0"/>
        <pt x="1008" y="-88" on="1"/>
        <pt x="1036" y="-238" on="1"/>
        <pt x="1018" y="-244" on="0"/>
        <pt x="977" y="-252" on="1"/>
        <pt x="909" y="-266" on="0"/>
        <pt x="803" y="-266" on="1"/>
        <pt x="496" y="-266" on="0"/>
        <pt x="55" y="174" on="0"/>
      </contour>
      <contour>
        <pt x="532" y="449" on="1"/>
        <pt x="532" y="334" on="0"/>
        <pt x="664" y="160" on="0"/>
        <pt x="770" y="160" on="1"/>
        <pt x="901" y="160" on="0"/>
        <pt x="993" y="254" on="1"/>
        <pt x="993" y="735" on="1"/>
        <pt x="985" y="741" on="0"/>
        <pt x="958" y="752" on="1"/>
        <pt x="907" y="770" on="0"/>
        <pt x="852" y="770" on="1"/>
        <pt x="700" y="770" on="0"/>
        <pt x="532" y="578" on="0"/>
      </contour>
    </TTGlyph>
    <TTGlyph name="atilde" xMin="111" yMin="-20" xMax="940" yMax="1536">
      <contour>
        <pt x="111" y="324" on="1"/>
        <pt x="111" y="461" on="0"/>
        <pt x="311" y="645" on="0"/>
        <pt x="492" y="645" on="1"/>
        <pt x="764" y="645" on="1"/>
        <pt x="764" y="723" on="1"/>
        <pt x="764" y="817" on="0"/>
        <pt x="690" y="897" on="0"/>
        <pt x="590" y="897" on="1"/>
        <pt x="516" y="897" on="0"/>
        <pt x="365" y="881" on="1"/>
        <pt x="227" y="864" on="1"/>
        <pt x="227" y="1024" on="1"/>
        <pt x="338" y="1032" on="0"/>
        <pt x="391" y="1038" on="1"/>
        <pt x="571" y="1054" on="0"/>
        <pt x="659" y="1055" on="1"/>
        <pt x="804" y="1055" on="0"/>
        <pt x="940" y="891" on="0"/>
        <pt x="940" y="784" on="1"/>
        <pt x="940" y="0" on="1"/>
        <pt x="811" y="0" on="1"/>
        <pt x="782" y="100" on="1"/>
        <pt x="776" y="100" on="1"/>
        <pt x="598" y="-21" on="0"/>
        <pt x="434" y="-20" on="1"/>
        <pt x="278" y="-20" on="0"/>
        <pt x="111" y="191" on="0"/>
      </contour>
      <contour>
        <pt x="233" y="1313" on="1"/>
        <pt x="233" y="1407" on="0"/>
        <pt x="348" y="1536" on="0"/>
        <pt x="408" y="1536" on="1"/>
        <pt x="453" y="1536" on="0"/>
        <pt x="543" y="1493" on="1"/>
        <pt x="613" y="1456" on="0"/>
        <pt x="662" y="1456" on="1"/>
        <pt x="713" y="1458" on="0"/>
        <pt x="717" y="1536" on="1"/>
        <pt x="852" y="1536" on="1"/>
        <pt x="852" y="1446" on="0"/>
        <pt x="770" y="1313" on="0"/>
        <pt x="688" y="1313" on="1"/>
        <pt x="637" y="1313" on="0"/>
        <pt x="520" y="1362" on="1"/>
        <pt x="450" y="1393" on="0"/>
        <pt x="424" y="1393" on="1"/>
        <pt x="406" y="1393" on="0"/>
        <pt x="375" y="1352" on="0"/>
        <pt x="369" y="1331" on="1"/>
        <pt x="362" y="1313" on="1"/>
      </contour>
      <contour>
        <pt x="289" y="324" on="1"/>
        <pt x="289" y="244" on="0"/>
        <pt x="373" y="117" on="0"/>
        <pt x="469" y="117" on="1"/>
        <pt x="537" y="117" on="0"/>
        <pt x="705" y="176" on="0"/>
        <pt x="762" y="215" on="1"/>
        <pt x="764" y="215" on="1"/>
        <pt x="764" y="508" on="1"/>
        <pt x="492" y="508" on="1"/>
        <pt x="289" y="508" on="0"/>
      </contour>
    </TTGlyph>
    <TTGlyph name="b" xMin="143" yMin="0" xMax="1040" yMax="1536">
      <contour>
        <pt x="143" y="0" on="1"/>
        <pt x="143" y="1536" on="1"/>
        <pt x="313" y="1536" on="1"/>
        <pt x="313" y="999" on="1"/>
        <pt x="471" y="1054" on="0"/>
        <pt x="612" y="1055" on="1"/>
        <pt x="725" y="1055" on="0"/>
        <pt x="897" y="965" on="0"/>
        <pt x="993" y="815" on="0"/>
        <pt x="1040" y="641" on="0"/>
        <pt x="1040" y="549" on="1"/>
        <pt x="1040" y="279" on="0"/>
        <pt x="760" y="0" on="0"/>
        <pt x="459" y="0" on="1"/>
      </contour>
      <contour>
        <pt x="313" y="158" on="1"/>
        <pt x="459" y="158" on="1"/>
        <pt x="676" y="158" on="0"/>
        <pt x="866" y="346" on="0"/>
        <pt x="866" y="555" on="1"/>
        <pt x="866" y="692" on="0"/>
        <pt x="741" y="897" on="0"/>
        <pt x="610" y="897" on="1"/>
        <pt x="436" y="897" on="0"/>
        <pt x="313" y="848" on="1"/>
      </contour>
    </TTGlyph>
    <TTGlyph name="backslash" xMin="14" yMin="0" xMax="557" yMax="1434">
      <contour>
        <pt x="14" y="1434" on="1"/>
        <pt x="199" y="1434" on="1"/>
        <pt x="557" y="0" on="1"/>
        <pt x="373" y="0" on="1"/>
      </contour>
    </TTGlyph>
    <TTGlyph name="bar" xMin="80" yMin="-512" xMax="264" yMax="1536">
      <contour>
        <pt x="80" y="-512" on="1"/>
        <pt x="80" y="1536" on="1"/>
        <pt x="264" y="1536" on="1"/>
        <pt x="264" y="-512" on="1"/>
      </contour>
    </TTGlyph>
    <TTGlyph name="braceleft" xMin="14" yMin="-512" xMax="602" yMax="1536">
      <contour>
        <pt x="14" y="449" on="1"/>
        <pt x="14" y="575" on="1"/>
        <pt x="90" y="575" on="0"/>
        <pt x="178" y="664" on="0"/>
        <pt x="211" y="829" on="0"/>
        <pt x="219" y="1073" on="0"/>
        <pt x="213" y="1229" on="1"/>
        <pt x="213" y="1551" on="0"/>
        <pt x="602" y="1536" on="1"/>
        <pt x="602" y="1352" on="1"/>
        <pt x="551" y="1352" on="0"/>
        <pt x="494" y="1343" on="0"/>
        <pt x="428" y="1311" on="0"/>
        <pt x="397" y="1233" on="0"/>
        <pt x="397" y="1167" on="1"/>
        <pt x="397" y="1015" on="0"/>
        <pt x="377" y="799" on="0"/>
        <pt x="326" y="608" on="0"/>
        <pt x="225" y="512" on="0"/>
        <pt x="152" y="512" on="1"/>
        <pt x="226" y="512" on="0"/>
        <pt x="326" y="416" on="0"/>
        <pt x="377" y="225" on="0"/>
        <pt x="397" y="8" on="0"/>
        <pt x="397" y="-143" on="1"/>
        <pt x="397" y="-209" on="0"/>
        <pt x="428" y="-287" on="0"/>
        <pt x="494" y="-319" on="0"/>
        <pt x="551" y="-328" on="0"/>
        <pt x="602" y="-328" on="1"/>
        <pt x="602" y="-512" on="1"/>
        <pt x="213" y="-526" on="0"/>
        <pt x="213" y="-205" on="1"/>
        <pt x="219" y="-49" on="0"/>
        <pt x="211" y="195" on="0"/>
        <pt x="178" y="360" on="0"/>
        <pt x="90" y="449" on="0"/>
      </contour>
    </TTGlyph>
    <TTGlyph name="braceright" xMin="51" yMin="-513" xMax="639" yMax="1537">
      <contour>
        <pt x="51" y="-328" on="1"/>
        <pt x="102" y="-328" on="0"/>
        <pt x="160" y="-319" on="0"/>
        <pt x="225" y="-287" on="0"/>
        <pt x="256" y="-209" on="0"/>
        <pt x="256" y="-143" on="1"/>
        <pt x="256" y="-8" on="1"/>
        <pt x="256" y="37" on="0"/>
        <pt x="262" y="188" on="0"/>
        <pt x="272" y="266" on="0"/>
        <pt x="291" y="377" on="0"/>
        <pt x="322" y="430" on="0"/>
        <pt x="363" y="489" on="0"/>
        <pt x="424" y="512" on="0"/>
        <pt x="461" y="512" on="1"/>
        <pt x="424" y="512" on="0"/>
        <pt x="362" y="535" on="0"/>
        <pt x="322" y="594" on="0"/>
        <pt x="291" y="647" on="0"/>
        <pt x="272" y="758" on="0"/>
        <pt x="262" y="836" on="0"/>
        <pt x="256" y="987" on="0"/>
        <pt x="256" y="1032" on="1"/>
        <pt x="256" y="1167" on="1"/>
        <pt x="256" y="1233" on="0"/>
        <pt x="225" y="1311" on="0"/>
        <pt x="160" y="1343" on="0"/>
        <pt x="102" y="1352" on="0"/>
        <pt x="51" y="1352" on="1"/>
        <pt x="51" y="1536" on="1"/>
        <pt x="68" y="1537" on="0"/>
        <pt x="84" y="1537" on="1"/>
        <pt x="441" y="1537" on="0"/>
        <pt x="440" y="1229" on="1"/>
        <pt x="436" y="1136" on="0"/>
        <pt x="437" y="1054" on="1"/>
        <pt x="437" y="1000" on="0"/>
        <pt x="438" y="951" on="1"/>
        <pt x="442" y="829" on="0"/>
        <pt x="475" y="664" on="0"/>
        <pt x="563" y="575" on="0"/>
        <pt x="639" y="575" on="1"/>
        <pt x="639" y="449" on="1"/>
        <pt x="563" y="449" on="0"/>
        <pt x="475" y="360" on="0"/>
        <pt x="442" y="195" on="0"/>
        <pt x="438" y="73" on="1"/>
        <pt x="436" y="24" on="0"/>
        <pt x="437" y="-30" on="1"/>
        <pt x="437" y="-111" on="0"/>
        <pt x="440" y="-205" on="1"/>
        <pt x="440" y="-513" on="0"/>
        <pt x="84" y="-513" on="1"/>
        <pt x="68" y="-513" on="0"/>
        <pt x="51" y="-512" on="1"/>
      </contour>
    </TTGlyph>
    <TTGlyph name="bracketleft" xMin="80" yMin="-410" xMax="621" yMax="1434">
      <contour>
        <pt x="80" y="-410" on="1"/>
        <pt x="80" y="1434" on="1"/>
        <pt x="621" y="1434" on="1"/>
        <pt x="621" y="1249" on="1"/>
        <pt x="264" y="1249" on="1"/>
        <pt x="264" y="-225" on="1"/>
        <pt x="621" y="-225" on="1"/>
        <pt x="621" y="-410" on="1"/>
      </contour>
    </TTGlyph>
    <TTGlyph name="bracketright" xMin="33" yMin="-410" xMax="573" yMax="1434">
      <contour>
        <pt x="33" y="-225" on="1"/>
        <pt x="389" y="-225" on="1"/>
        <pt x="389" y="1249" on="1"/>
        <pt x="33" y="1249" on="1"/>
        <pt x="33" y="1434" on="1"/>
        <pt x="573" y="1434" on="1"/>
        <pt x="573" y="-410" on="1"/>
        <pt x="33" y="-410" on="1"/>
      </contour>
    </TTGlyph>
    <TTGlyph name="bullet" xMin="100" yMin="479" xMax="604" yMax="983">
      <contour>
        <pt x="100" y="627" on="0"/>
        <pt x="100" y="836" on="0"/>
        <pt x="248" y="983" on="0"/>
        <pt x="457" y="983" on="0"/>
        <pt x="604" y="836" on="0"/>
        <pt x="604" y="627" on="0"/>
        <pt x="457" y="479" on="0"/>
        <pt x="248" y="479" on="0"/>
      </contour>
    </TTGlyph>
    <TTGlyph name="c" xMin="111" yMin="-31" xMax="926" yMax="1055">
      <contour>
        <pt x="111" y="287" on="0"/>
        <pt x="111" y="737" on="0"/>
        <pt x="426" y="1055" on="0"/>
        <pt x="649" y="1055" on="1"/>
        <pt x="786" y="1055" on="0"/>
        <pt x="926" y="1024" on="1"/>
        <pt x="926" y="868" on="1"/>
        <pt x="787" y="899" on="0"/>
        <pt x="649" y="899" on="1"/>
        <pt x="493" y="899" on="0"/>
        <pt x="279" y="672" on="0"/>
        <pt x="279" y="352" on="0"/>
        <pt x="494" y="125" on="0"/>
        <pt x="649" y="125" on="1"/>
        <pt x="786" y="125" on="0"/>
        <pt x="926" y="156" on="1"/>
        <pt x="926" y="0" on="1"/>
        <pt x="787" y="-31" on="0"/>
        <pt x="649" y="-31" on="1"/>
        <pt x="426" y="-31" on="0"/>
      </contour>
    </TTGlyph>
    <TTGlyph name="ccedilla" xMin="47" yMin="-436" xMax="862" yMax="1055">
      <contour>
        <pt x="47" y="512" on="1"/>
        <pt x="47" y="737" on="0"/>
        <pt x="362" y="1055" on="0"/>
        <pt x="586" y="1055" on="1"/>
        <pt x="725" y="1055" on="0"/>
        <pt x="862" y="1024" on="1"/>
        <pt x="862" y="868" on="1"/>
        <pt x="725" y="899" on="0"/>
        <pt x="586" y="899" on="1"/>
        <pt x="430" y="899" on="0"/>
        <pt x="215" y="672" on="0"/>
        <pt x="215" y="352" on="0"/>
        <pt x="430" y="125" on="0"/>
        <pt x="586" y="125" on="1"/>
        <pt x="725" y="125" on="0"/>
        <pt x="862" y="156" on="1"/>
        <pt x="862" y="0" on="1"/>
        <pt x="725" y="-31" on="0"/>
        <pt x="586" y="-31" on="1"/>
        <pt x="561" y="-31" on="0"/>
        <pt x="549" y="-29" on="1"/>
        <pt x="537" y="-86" on="1"/>
        <pt x="689" y="-113" on="0"/>
        <pt x="688" y="-240" on="1"/>
        <pt x="688" y="-332" on="0"/>
        <pt x="526" y="-436" on="0"/>
        <pt x="401" y="-436" on="1"/>
        <pt x="352" y="-436" on="0"/>
        <pt x="291" y="-426" on="1"/>
        <pt x="315" y="-309" on="1"/>
        <pt x="370" y="-317" on="0"/>
        <pt x="406" y="-317" on="1"/>
        <pt x="533" y="-317" on="0"/>
        <pt x="532" y="-240" on="1"/>
        <pt x="532" y="-154" on="0"/>
        <pt x="365" y="-154" on="1"/>
        <pt x="397" y="2" on="1"/>
        <pt x="377" y="12" on="1"/>
        <pt x="227" y="78" on="0"/>
        <pt x="47" y="346" on="0"/>
      </contour>
    </TTGlyph>
    <TTGlyph name="cedilla" xMin="94" yMin="-436" xMax="492" yMax="10">
      <contour>
        <pt x="94" y="-426" on="1"/>
        <pt x="119" y="-309" on="1"/>
        <pt x="174" y="-317" on="0"/>
        <pt x="209" y="-317" on="1"/>
        <pt x="336" y="-317" on="0"/>
        <pt x="336" y="-240" on="1"/>
        <pt x="336" y="-154" on="0"/>
        <pt x="168" y="-154" on="1"/>
        <pt x="203" y="10" on="1"/>
        <pt x="362" y="10" on="1"/>
        <pt x="340" y="-86" on="1"/>
        <pt x="492" y="-113" on="0"/>
        <pt x="492" y="-240" on="1"/>
        <pt x="492" y="-334" on="0"/>
        <pt x="330" y="-436" on="0"/>
        <pt x="205" y="-436" on="1"/>
        <pt x="160" y="-436" on="0"/>
      </contour>
    </TTGlyph>
    <TTGlyph name="cent" xMin="47" yMin="-203" xMax="862" yMax="1251">
      <contour>
        <pt x="47" y="317" on="0"/>
        <pt x="47" y="707" on="0"/>
        <pt x="293" y="1006" on="0"/>
        <pt x="479" y="1042" on="1"/>
        <pt x="479" y="1251" on="1"/>
        <pt x="623" y="1251" on="1"/>
        <pt x="623" y="1055" on="1"/>
        <pt x="725" y="1053" on="0"/>
        <pt x="862" y="1024" on="1"/>
        <pt x="862" y="868" on="1"/>
        <pt x="725" y="897" on="0"/>
        <pt x="623" y="899" on="1"/>
        <pt x="623" y="125" on="1"/>
        <pt x="742" y="127" on="0"/>
        <pt x="862" y="156" on="1"/>
        <pt x="862" y="0" on="1"/>
        <pt x="725" y="-29" on="0"/>
        <pt x="623" y="-31" on="1"/>
        <pt x="623" y="-203" on="1"/>
        <pt x="479" y="-203" on="1"/>
        <pt x="479" y="-18" on="1"/>
        <pt x="293" y="19" on="0"/>
      </contour>
      <contour>
        <pt x="215" y="641" on="0"/>
        <pt x="215" y="383" on="0"/>
        <pt x="362" y="178" on="0"/>
        <pt x="479" y="141" on="1"/>
        <pt x="479" y="883" on="1"/>
        <pt x="362" y="846" on="0"/>
      </contour>
    </TTGlyph>
    <TTGlyph name="circumflex" xMin="100" yMin="1264" xMax="752" yMax="1536">
      <contour>
        <pt x="100" y="1264" on="1"/>
        <pt x="301" y="1536" on="1"/>
        <pt x="551" y="1536" on="1"/>
        <pt x="752" y="1264" on="1"/>
        <pt x="567" y="1264" on="1"/>
        <pt x="426" y="1464" on="1"/>
        <pt x="285" y="1264" on="1"/>
      </contour>
    </TTGlyph>
    <TTGlyph name="colon" xMin="190" yMin="0" xMax="395" yMax="901">
      <contour>
        <pt x="190" y="0" on="1"/>
        <pt x="190" y="219" on="1"/>
        <pt x="395" y="219" on="1"/>
        <pt x="395" y="0" on="1"/>
      </contour>
      <contour>
        <pt x="190" y="682" on="1"/>
        <pt x="190" y="901" on="1"/>
        <pt x="395" y="901" on="1"/>
        <pt x="395" y="682" on="1"/>
      </contour>
    </TTGlyph>
    <TTGlyph name="comma" xMin="168" yMin="-252" xMax="434" yMax="219">
      <contour>
        <pt x="168" y="-252" on="1"/>
        <pt x="229" y="219" on="1"/>
        <pt x="434" y="219" on="1"/>
        <pt x="311" y="-252" on="1"/>
      </contour>
    </TTGlyph>
    <TTGlyph name="copyright" xMin="219" yMin="596" xMax="1085" yMax="1464">
      <contour>
        <pt x="219" y="848" on="0"/>
        <pt x="219" y="1212" on="0"/>
        <pt x="461" y="1464" on="0"/>
        <pt x="651" y="1464" on="1"/>
        <pt x="839" y="1464" on="0"/>
        <pt x="1085" y="1212" on="0"/>
        <pt x="1085" y="848" on="0"/>
        <pt x="840" y="596" on="0"/>
        <pt x="651" y="596" on="1"/>
        <pt x="461" y="596" on="0"/>
      </contour>
      <contour>
        <pt x="352" y="1161" on="0"/>
        <pt x="352" y="899" on="0"/>
        <pt x="516" y="721" on="0"/>
        <pt x="786" y="721" on="0"/>
        <pt x="950" y="899" on="0"/>
        <pt x="950" y="1161" on="0"/>
        <pt x="786" y="1339" on="0"/>
        <pt x="516" y="1339" on="0"/>
      </contour>
      <contour>
        <pt x="451" y="1022" on="1"/>
        <pt x="451" y="1114" on="0"/>
        <pt x="573" y="1239" on="0"/>
        <pt x="664" y="1239" on="1"/>
        <pt x="721" y="1239" on="0"/>
        <pt x="776" y="1227" on="1"/>
        <pt x="776" y="1165" on="1"/>
        <pt x="721" y="1177" on="0"/>
        <pt x="664" y="1178" on="1"/>
        <pt x="605" y="1178" on="0"/>
        <pt x="516" y="1085" on="0"/>
        <pt x="516" y="958" on="0"/>
        <pt x="604" y="868" on="0"/>
        <pt x="664" y="868" on="1"/>
        <pt x="715" y="868" on="0"/>
        <pt x="776" y="879" on="1"/>
        <pt x="776" y="817" on="1"/>
        <pt x="721" y="805" on="0"/>
        <pt x="664" y="805" on="1"/>
        <pt x="576" y="805" on="0"/>
        <pt x="451" y="932" on="0"/>
      </contour>
    </TTGlyph>
    <TTGlyph name="d" xMin="111" yMin="-31" xMax="1010" yMax="1536">
      <contour>
        <pt x="111" y="547" on="1"/>
        <pt x="111" y="682" on="0"/>
        <pt x="201" y="905" on="0"/>
        <pt x="406" y="1055" on="0"/>
        <pt x="547" y="1055" on="1"/>
        <pt x="694" y="1055" on="0"/>
        <pt x="836" y="975" on="1"/>
        <pt x="836" y="1536" on="1"/>
        <pt x="1010" y="1536" on="1"/>
        <pt x="1010" y="0" on="1"/>
        <pt x="887" y="0" on="1"/>
        <pt x="862" y="76" on="1"/>
        <pt x="725" y="-30" on="0"/>
        <pt x="565" y="-31" on="1"/>
        <pt x="375" y="-31" on="0"/>
        <pt x="111" y="309" on="0"/>
      </contour>
      <contour>
        <pt x="285" y="563" on="1"/>
        <pt x="285" y="385" on="0"/>
        <pt x="457" y="127" on="0"/>
        <pt x="592" y="127" on="1"/>
        <pt x="721" y="127" on="0"/>
        <pt x="836" y="205" on="1"/>
        <pt x="836" y="829" on="1"/>
        <pt x="705" y="907" on="0"/>
        <pt x="561" y="907" on="1"/>
        <pt x="436" y="907" on="0"/>
        <pt x="285" y="725" on="0"/>
      </contour>
    </TTGlyph>
    <TTGlyph name="degree" xMin="57" yMin="940" xMax="498" yMax="1382">
      <contour>
        <pt x="57" y="1069" on="0"/>
        <pt x="57" y="1253" on="0"/>
        <pt x="180" y="1382" on="0"/>
        <pt x="373" y="1382" on="0"/>
        <pt x="498" y="1253" on="0"/>
        <pt x="498" y="1069" on="0"/>
        <pt x="373" y="940" on="0"/>
        <pt x="180" y="940" on="0"/>
      </contour>
      <contour>
        <pt x="137" y="1223" on="0"/>
        <pt x="137" y="1100" on="0"/>
        <pt x="213" y="1016" on="0"/>
        <pt x="340" y="1016" on="0"/>
        <pt x="416" y="1100" on="0"/>
        <pt x="416" y="1223" on="0"/>
        <pt x="340" y="1307" on="0"/>
        <pt x="213" y="1307" on="0"/>
      </contour>
    </TTGlyph>
    <TTGlyph name="dieresis" xMin="80" yMin="1348" xMax="612" yMax="1536">
      <contour>
        <pt x="80" y="1348" on="1"/>
        <pt x="80" y="1536" on="1"/>
        <pt x="254" y="1536" on="1"/>
        <pt x="254" y="1348" on="1"/>
      </contour>
      <contour>
        <pt x="438" y="1348" on="1"/>
        <pt x="438" y="1536" on="1"/>
        <pt x="612" y="1536" on="1"/>
        <pt x="612" y="1348" on="1"/>
      </contour>
    </TTGlyph>
    <TTGlyph name="dollar" xMin="37" yMin="-184" xMax="918" yMax="1556">
      <contour>
        <pt x="37" y="1106" on="1"/>
        <pt x="37" y="1247" on="0"/>
        <pt x="256" y="1438" on="0"/>
        <pt x="414" y="1458" on="1"/>
        <pt x="414" y="1556" on="1"/>
        <pt x="557" y="1556" on="1"/>
        <pt x="557" y="1460" on="1"/>
        <pt x="690" y="1440" on="0"/>
        <pt x="778" y="1391" on="1"/>
        <pt x="823" y="1366" on="0"/>
        <pt x="862" y="1337" on="1"/>
        <pt x="793" y="1186" on="1"/>
        <pt x="748" y="1219" on="0"/>
        <pt x="723" y="1233" on="1"/>
        <pt x="635" y="1282" on="0"/>
        <pt x="557" y="1300" on="1"/>
        <pt x="557" y="811" on="1"/>
        <pt x="657" y="756" on="0"/>
        <pt x="754" y="692" on="0"/>
        <pt x="870" y="586" on="0"/>
        <pt x="918" y="459" on="0"/>
        <pt x="918" y="373" on="1"/>
        <pt x="918" y="230" on="0"/>
        <pt x="711" y="14" on="0"/>
        <pt x="557" y="-18" on="1"/>
        <pt x="557" y="-184" on="1"/>
        <pt x="414" y="-184" on="1"/>
        <pt x="414" y="-29" on="1"/>
        <pt x="275" y="-21" on="0"/>
        <pt x="139" y="63" on="1"/>
        <pt x="88" y="96" on="0"/>
        <pt x="37" y="143" on="1"/>
        <pt x="109" y="297" on="1"/>
        <pt x="164" y="250" on="0"/>
        <pt x="207" y="221" on="1"/>
        <pt x="328" y="139" on="0"/>
        <pt x="414" y="127" on="1"/>
        <pt x="414" y="711" on="1"/>
        <pt x="215" y="815" on="0"/>
        <pt x="152" y="870" on="1"/>
        <pt x="37" y="971" on="0"/>
      </contour>
      <contour>
        <pt x="221" y="1106" on="1"/>
        <pt x="221" y="989" on="0"/>
        <pt x="414" y="889" on="1"/>
        <pt x="414" y="1300" on="1"/>
        <pt x="330" y="1282" on="0"/>
        <pt x="221" y="1184" on="0"/>
      </contour>
      <contour>
        <pt x="557" y="143" on="1"/>
        <pt x="635" y="170" on="0"/>
        <pt x="733" y="291" on="0"/>
        <pt x="733" y="373" on="1"/>
        <pt x="733" y="516" on="0"/>
        <pt x="557" y="631" on="1"/>
      </contour>
    </TTGlyph>
    <TTGlyph name="e" xMin="111" yMin="-31" xMax="1016" yMax="1055">
      <contour>
        <pt x="111" y="516" on="1"/>
        <pt x="111" y="762" on="0"/>
        <pt x="373" y="1055" on="0"/>
        <pt x="588" y="1055" on="1"/>
        <pt x="1016" y="1055" on="0"/>
        <pt x="1016" y="451" on="1"/>
        <pt x="281" y="451" on="1"/>
        <pt x="291" y="324" on="0"/>
        <pt x="457" y="125" on="0"/>
        <pt x="627" y="125" on="1"/>
        <pt x="824" y="125" on="0"/>
        <pt x="965" y="190" on="1"/>
        <pt x="965" y="29" on="1"/>
        <pt x="811" y="-30" on="0"/>
        <pt x="649" y="-31" on="1"/>
        <pt x="508" y="-31" on="0"/>
        <pt x="297" y="57" on="0"/>
        <pt x="172" y="211" on="0"/>
        <pt x="111" y="403" on="0"/>
      </contour>
      <contour>
        <pt x="287" y="586" on="1"/>
        <pt x="840" y="586" on="1"/>
        <pt x="826" y="723" on="0"/>
        <pt x="702" y="899" on="0"/>
        <pt x="584" y="899" on="1"/>
        <pt x="467" y="899" on="0"/>
        <pt x="303" y="727" on="0"/>
      </contour>
    </TTGlyph>
    <TTGlyph name="eacute" xMin="111" yMin="-31" xMax="1016" yMax="1536">
      <contour>
        <pt x="111" y="516" on="1"/>
        <pt x="111" y="762" on="0"/>
        <pt x="373" y="1055" on="0"/>
        <pt x="588" y="1055" on="1"/>
        <pt x="1016" y="1055" on="0"/>
        <pt x="1016" y="451" on="1"/>
        <pt x="281" y="451" on="1"/>
        <pt x="291" y="324" on="0"/>
        <pt x="457" y="125" on="0"/>
        <pt x="627" y="125" on="1"/>
        <pt x="824" y="125" on="0"/>
        <pt x="965" y="190" on="1"/>
        <pt x="965" y="29" on="1"/>
        <pt x="811" y="-30" on="0"/>
        <pt x="649" y="-31" on="1"/>
        <pt x="508" y="-31" on="0"/>
        <pt x="297" y="57" on="0"/>
        <pt x="172" y="211" on="0"/>
        <pt x="111" y="403" on="0"/>
      </contour>
      <contour>
        <pt x="287" y="586" on="1"/>
        <pt x="840" y="586" on="1"/>
        <pt x="826" y="723" on="0"/>
        <pt x="702" y="899" on="0"/>
        <pt x="584" y="899" on="1"/>
        <pt x="467" y="899" on="0"/>
        <pt x="303" y="727" on="0"/>
      </contour>
      <contour>
        <pt x="449" y="1264" on="1"/>
        <pt x="649" y="1536" on="1"/>
        <pt x="874" y="1536" on="1"/>
        <pt x="633" y="1264" on="1"/>
      </contour>
    </TTGlyph>
    <TTGlyph name="ecircumflex" xMin="111" yMin="-31" xMax="1016" yMax="1536">
      <contour>
        <pt x="111" y="516" on="1"/>
        <pt x="111" y="762" on="0"/>
        <pt x="373" y="1055" on="0"/>
        <pt x="588" y="1055" on="1"/>
        <pt x="1016" y="1055" on="0"/>
        <pt x="1016" y="451" on="1"/>
        <pt x="281" y="451" on="1"/>
        <pt x="291" y="324" on="0"/>
        <pt x="457" y="125" on="0"/>
        <pt x="627" y="125" on="1"/>
        <pt x="824" y="125" on="0"/>
        <pt x="965" y="190" on="1"/>
        <pt x="965" y="29" on="1"/>
        <pt x="811" y="-30" on="0"/>
        <pt x="649" y="-31" on="1"/>
        <pt x="508" y="-31" on="0"/>
        <pt x="297" y="57" on="0"/>
        <pt x="172" y="211" on="0"/>
        <pt x="111" y="403" on="0"/>
      </contour>
      <contour>
        <pt x="240" y="1264" on="1"/>
        <pt x="440" y="1536" on="1"/>
        <pt x="690" y="1536" on="1"/>
        <pt x="891" y="1264" on="1"/>
        <pt x="707" y="1264" on="1"/>
        <pt x="565" y="1464" on="1"/>
        <pt x="424" y="1264" on="1"/>
      </contour>
      <contour>
        <pt x="287" y="586" on="1"/>
        <pt x="840" y="586" on="1"/>
        <pt x="826" y="723" on="0"/>
        <pt x="702" y="899" on="0"/>
        <pt x="584" y="899" on="1"/>
        <pt x="467" y="899" on="0"/>
        <pt x="303" y="727" on="0"/>
      </contour>
    </TTGlyph>
    <TTGlyph name="edieresis" xMin="111" yMin="-31" xMax="1016" yMax="1536">
      <contour>
        <pt x="111" y="516" on="1"/>
        <pt x="111" y="762" on="0"/>
        <pt x="373" y="1055" on="0"/>
        <pt x="588" y="1055" on="1"/>
        <pt x="1016" y="1055" on="0"/>
        <pt x="1016" y="451" on="1"/>
        <pt x="281" y="451" on="1"/>
        <pt x="291" y="324" on="0"/>
        <pt x="457" y="125" on="0"/>
        <pt x="627" y="125" on="1"/>
        <pt x="824" y="125" on="0"/>
        <pt x="965" y="190" on="1"/>
        <pt x="965" y="29" on="1"/>
        <pt x="811" y="-30" on="0"/>
        <pt x="649" y="-31" on="1"/>
        <pt x="508" y="-31" on="0"/>
        <pt x="297" y="57" on="0"/>
        <pt x="172" y="211" on="0"/>
        <pt x="111" y="403" on="0"/>
      </contour>
      <contour>
        <pt x="287" y="586" on="1"/>
        <pt x="840" y="586" on="1"/>
        <pt x="826" y="723" on="0"/>
        <pt x="702" y="899" on="0"/>
        <pt x="584" y="899" on="1"/>
        <pt x="467" y="899" on="0"/>
        <pt x="303" y="727" on="0"/>
      </contour>
      <contour>
        <pt x="299" y="1348" on="1"/>
        <pt x="299" y="1536" on="1"/>
        <pt x="473" y="1536" on="1"/>
        <pt x="473" y="1348" on="1"/>
      </contour>
      <contour>
        <pt x="657" y="1348" on="1"/>
        <pt x="657" y="1536" on="1"/>
        <pt x="831" y="1536" on="1"/>
        <pt x="831" y="1348" on="1"/>
      </contour>
    </TTGlyph>
    <TTGlyph name="egrave" xMin="111" yMin="-31" xMax="1016" yMax="1536">
      <contour>
        <pt x="111" y="516" on="1"/>
        <pt x="111" y="762" on="0"/>
        <pt x="373" y="1055" on="0"/>
        <pt x="588" y="1055" on="1"/>
        <pt x="1016" y="1055" on="0"/>
        <pt x="1016" y="451" on="1"/>
        <pt x="281" y="451" on="1"/>
        <pt x="291" y="324" on="0"/>
        <pt x="457" y="125" on="0"/>
        <pt x="627" y="125" on="1"/>
        <pt x="824" y="125" on="0"/>
        <pt x="965" y="190" on="1"/>
        <pt x="965" y="29" on="1"/>
        <pt x="811" y="-30" on="0"/>
        <pt x="649" y="-31" on="1"/>
        <pt x="508" y="-31" on="0"/>
        <pt x="297" y="57" on="0"/>
        <pt x="172" y="211" on="0"/>
        <pt x="111" y="403" on="0"/>
      </contour>
      <contour>
        <pt x="264" y="1536" on="1"/>
        <pt x="489" y="1536" on="1"/>
        <pt x="690" y="1264" on="1"/>
        <pt x="506" y="1264" on="1"/>
      </contour>
      <contour>
        <pt x="287" y="586" on="1"/>
        <pt x="840" y="586" on="1"/>
        <pt x="826" y="723" on="0"/>
        <pt x="702" y="899" on="0"/>
        <pt x="584" y="899" on="1"/>
        <pt x="467" y="899" on="0"/>
        <pt x="303" y="727" on="0"/>
      </contour>
    </TTGlyph>
    <TTGlyph name="eight" xMin="141" yMin="-31" xMax="1130" yMax="1464">
      <contour>
        <pt x="141" y="406" on="1"/>
        <pt x="141" y="551" on="0"/>
        <pt x="301" y="780" on="0"/>
        <pt x="434" y="811" on="1"/>
        <pt x="338" y="834" on="0"/>
        <pt x="227" y="1018" on="0"/>
        <pt x="227" y="1116" on="1"/>
        <pt x="227" y="1259" on="0"/>
        <pt x="438" y="1464" on="0"/>
        <pt x="836" y="1464" on="0"/>
        <pt x="1047" y="1260" on="0"/>
        <pt x="1047" y="1116" on="1"/>
        <pt x="1047" y="1018" on="0"/>
        <pt x="934" y="834" on="0"/>
        <pt x="840" y="811" on="1"/>
        <pt x="973" y="780" on="0"/>
        <pt x="1130" y="551" on="0"/>
        <pt x="1130" y="406" on="1"/>
        <pt x="1130" y="230" on="0"/>
        <pt x="889" y="-31" on="0"/>
        <pt x="637" y="-31" on="1"/>
        <pt x="506" y="-31" on="0"/>
        <pt x="307" y="47" on="0"/>
        <pt x="197" y="176" on="0"/>
        <pt x="141" y="326" on="0"/>
      </contour>
      <contour>
        <pt x="326" y="406" on="1"/>
        <pt x="326" y="119" on="0"/>
        <pt x="948" y="119" on="0"/>
        <pt x="948" y="406" on="1"/>
        <pt x="948" y="562" on="0"/>
        <pt x="788" y="735" on="0"/>
        <pt x="485" y="735" on="0"/>
        <pt x="326" y="562" on="0"/>
      </contour>
      <contour>
        <pt x="412" y="1100" on="1"/>
        <pt x="412" y="1008" on="0"/>
        <pt x="528" y="885" on="0"/>
        <pt x="745" y="885" on="0"/>
        <pt x="862" y="1008" on="0"/>
        <pt x="862" y="1100" on="1"/>
        <pt x="862" y="1190" on="0"/>
        <pt x="756" y="1325" on="0"/>
        <pt x="518" y="1325" on="0"/>
        <pt x="412" y="1190" on="0"/>
      </contour>
    </TTGlyph>
    <TTGlyph name="ellipsis" xMin="188" yMin="0" xMax="1561" yMax="219">
      <contour>
        <pt x="188" y="0" on="1"/>
        <pt x="188" y="219" on="1"/>
        <pt x="393" y="219" on="1"/>
        <pt x="393" y="0" on="1"/>
      </contour>
      <contour>
        <pt x="772" y="0" on="1"/>
        <pt x="772" y="219" on="1"/>
        <pt x="977" y="219" on="1"/>
        <pt x="977" y="0" on="1"/>
      </contour>
      <contour>
        <pt x="1356" y="0" on="1"/>
        <pt x="1356" y="219" on="1"/>
        <pt x="1561" y="219" on="1"/>
        <pt x="1561" y="0" on="1"/>
      </contour>
    </TTGlyph>
    <TTGlyph name="emdash" xMin="80" yMin="383" xMax="1485" yMax="567">
      <contour>
        <pt x="80" y="383" on="1"/>
        <pt x="80" y="567" on="1"/>
        <pt x="1485" y="567" on="1"/>
        <pt x="1485" y="383" on="1"/>
      </contour>
    </TTGlyph>
    <TTGlyph name="endash" xMin="80" yMin="383" xMax="1130" yMax="567">
      <contour>
        <pt x="80" y="383" on="1"/>
        <pt x="80" y="567" on="1"/>
        <pt x="1130" y="567" on="1"/>
        <pt x="1130" y="383" on="1"/>
      </contour>
    </TTGlyph>
    <TTGlyph name="equal" xMin="80" yMin="365" xMax="1022" yMax="987">
      <contour>
        <pt x="80" y="365" on="1"/>
        <pt x="80" y="549" on="1"/>
        <pt x="1022" y="549" on="1"/>
        <pt x="1022" y="365" on="1"/>
      </contour>
      <contour>
        <pt x="80" y="803" on="1"/>
        <pt x="80" y="987" on="1"/>
        <pt x="1022" y="987" on="1"/>
        <pt x="1022" y="803" on="1"/>
      </contour>
    </TTGlyph>
    <TTGlyph name="eth" xMin="82" yMin="-31" xMax="1106" yMax="1485">
      <contour>
        <pt x="82" y="287" on="0"/>
        <pt x="82" y="737" on="0"/>
        <pt x="381" y="1055" on="0"/>
        <pt x="594" y="1055" on="1"/>
        <pt x="744" y="1055" on="0"/>
        <pt x="864" y="971" on="1"/>
        <pt x="790" y="1143" on="0"/>
        <pt x="618" y="1245" on="1"/>
        <pt x="354" y="1098" on="1"/>
        <pt x="293" y="1208" on="1"/>
        <pt x="483" y="1315" on="1"/>
        <pt x="422" y="1342" on="0"/>
        <pt x="322" y="1374" on="1"/>
        <pt x="428" y="1485" on="1"/>
        <pt x="543" y="1444" on="0"/>
        <pt x="635" y="1399" on="1"/>
        <pt x="788" y="1485" on="1"/>
        <pt x="850" y="1374" on="1"/>
        <pt x="762" y="1325" on="1"/>
        <pt x="1106" y="1073" on="0"/>
        <pt x="1106" y="512" on="1"/>
        <pt x="1106" y="287" on="0"/>
        <pt x="807" y="-31" on="0"/>
        <pt x="381" y="-31" on="0"/>
      </contour>
      <contour>
        <pt x="246" y="672" on="0"/>
        <pt x="246" y="352" on="0"/>
        <pt x="451" y="125" on="0"/>
        <pt x="737" y="125" on="0"/>
        <pt x="942" y="352" on="0"/>
        <pt x="942" y="512" on="1"/>
        <pt x="942" y="528" on="1"/>
        <pt x="934" y="682" on="0"/>
        <pt x="735" y="899" on="0"/>
        <pt x="594" y="899" on="1"/>
        <pt x="451" y="899" on="0"/>
      </contour>
    </TTGlyph>
    <TTGlyph name="exclam" xMin="205" yMin="0" xMax="410" yMax="1434">
      <contour>
        <pt x="205" y="0" on="1"/>
        <pt x="205" y="205" on="1"/>
        <pt x="410" y="205" on="1"/>
        <pt x="410" y="0" on="1"/>
      </contour>
      <contour>
        <pt x="205" y="412" on="1"/>
        <pt x="205" y="1434" on="1"/>
        <pt x="410" y="1434" on="1"/>
        <pt x="410" y="412" on="1"/>
      </contour>
    </TTGlyph>
    <TTGlyph name="exclamdown" xMin="205" yMin="-205" xMax="410" yMax="1229">
      <contour>
        <pt x="205" y="-205" on="1"/>
        <pt x="205" y="817" on="1"/>
        <pt x="410" y="817" on="1"/>
        <pt x="410" y="-205" on="1"/>
      </contour>
      <contour>
        <pt x="205" y="1024" on="1"/>
        <pt x="205" y="1229" on="1"/>
        <pt x="410" y="1229" on="1"/>
        <pt x="410" y="1024" on="1"/>
      </contour>
    </TTGlyph>
    <TTGlyph name="f" xMin="111" yMin="0" xMax="778" yMax="1536">
      <contour>
        <pt x="111" y="866" on="1"/>
        <pt x="111" y="1024" on="1"/>
        <pt x="270" y="1024" on="1"/>
        <pt x="270" y="1268" on="1"/>
        <pt x="270" y="1389" on="0"/>
        <pt x="418" y="1536" on="0"/>
        <pt x="526" y="1536" on="1"/>
        <pt x="778" y="1536" on="1"/>
        <pt x="778" y="1378" on="1"/>
        <pt x="618" y="1378" on="1"/>
        <pt x="512" y="1378" on="0"/>
        <pt x="444" y="1292" on="0"/>
        <pt x="444" y="1176" on="1"/>
        <pt x="444" y="1024" on="1"/>
        <pt x="715" y="1024" on="1"/>
        <pt x="715" y="866" on="1"/>
        <pt x="444" y="866" on="1"/>
        <pt x="444" y="0" on="1"/>
        <pt x="270" y="0" on="1"/>
        <pt x="270" y="866" on="1"/>
      </contour>
    </TTGlyph>
    <TTGlyph name="figuredash" xMin="80" yMin="365" xMax="694" yMax="549">
      <contour>
        <pt x="80" y="365" on="1"/>
        <pt x="80" y="549" on="1"/>
        <pt x="694" y="549" on="1"/>
        <pt x="694" y="365" on="1"/>
      </contour>
    </TTGlyph>
    <TTGlyph name="five" xMin="172" yMin="-31" xMax="1098" yMax="1434">
      <contour>
        <pt x="172" y="25" on="1"/>
        <pt x="213" y="184" on="1"/>
        <pt x="270" y="166" on="0"/>
        <pt x="311" y="156" on="1"/>
        <pt x="430" y="127" on="0"/>
        <pt x="537" y="127" on="1"/>
        <pt x="689" y="127" on="0"/>
        <pt x="907" y="283" on="0"/>
        <pt x="907" y="463" on="1"/>
        <pt x="907" y="629" on="0"/>
        <pt x="696" y="836" on="0"/>
        <pt x="475" y="836" on="1"/>
        <pt x="225" y="836" on="1"/>
        <pt x="225" y="1434" on="1"/>
        <pt x="975" y="1434" on="1"/>
        <pt x="975" y="1298" on="1"/>
        <pt x="422" y="1298" on="1"/>
        <pt x="422" y="991" on="1"/>
        <pt x="479" y="991" on="1"/>
        <pt x="784" y="989" on="0"/>
        <pt x="1098" y="715" on="0"/>
        <pt x="1098" y="463" on="1"/>
        <pt x="1098" y="232" on="0"/>
        <pt x="797" y="-31" on="0"/>
        <pt x="520" y="-31" on="1"/>
        <pt x="373" y="-31" on="0"/>
        <pt x="262" y="-4" on="1"/>
        <pt x="213" y="9" on="0"/>
      </contour>
    </TTGlyph>
    <TTGlyph name="four" xMin="154" yMin="0" xMax="1116" yMax="1434">
      <contour>
        <pt x="154" y="326" on="1"/>
        <pt x="154" y="457" on="1"/>
        <pt x="758" y="1434" on="1"/>
        <pt x="942" y="1434" on="1"/>
        <pt x="942" y="457" on="1"/>
        <pt x="1116" y="457" on="1"/>
        <pt x="1116" y="326" on="1"/>
        <pt x="942" y="326" on="1"/>
        <pt x="942" y="0" on="1"/>
        <pt x="758" y="0" on="1"/>
        <pt x="758" y="326" on="1"/>
      </contour>
      <contour>
        <pt x="352" y="457" on="1"/>
        <pt x="758" y="457" on="1"/>
        <pt x="758" y="1155" on="1"/>
      </contour>
    </TTGlyph>
    <TTGlyph name="fraction" xMin="6" yMin="-57" xMax="1174" yMax="1434">
      <contour>
        <pt x="6" y="-57" on="1"/>
        <pt x="989" y="1434" on="1"/>
        <pt x="1174" y="1434" on="1"/>
        <pt x="190" y="-57" on="1"/>
      </contour>
    </TTGlyph>
    <TTGlyph name="g" xMin="143" yMin="-512" xMax="1026" yMax="1055">
      <contour>
        <pt x="143" y="508" on="1"/>
        <pt x="143" y="649" on="0"/>
        <pt x="233" y="891" on="0"/>
        <pt x="436" y="1055" on="0"/>
        <pt x="578" y="1055" on="1"/>
        <pt x="703" y="1055" on="0"/>
        <pt x="887" y="965" on="1"/>
        <pt x="915" y="1024" on="1"/>
        <pt x="1026" y="1024" on="1"/>
        <pt x="1026" y="-143" on="1"/>
        <pt x="1026" y="-317" on="0"/>
        <pt x="924" y="-414" on="1"/>
        <pt x="820" y="-512" on="0"/>
        <pt x="618" y="-512" on="1"/>
        <pt x="401" y="-512" on="0"/>
        <pt x="178" y="-393" on="1"/>
        <pt x="266" y="-260" on="1"/>
        <pt x="446" y="-356" on="0"/>
        <pt x="618" y="-356" on="1"/>
        <pt x="854" y="-356" on="0"/>
        <pt x="854" y="-143" on="1"/>
        <pt x="854" y="39" on="1"/>
        <pt x="725" y="-31" on="0"/>
        <pt x="606" y="-31" on="1"/>
        <pt x="385" y="-31" on="0"/>
        <pt x="143" y="281" on="0"/>
      </contour>
      <contour>
        <pt x="313" y="520" on="1"/>
        <pt x="313" y="442" on="0"/>
        <pt x="344" y="309" on="0"/>
        <pt x="412" y="186" on="0"/>
        <pt x="541" y="117" on="0"/>
        <pt x="631" y="117" on="1"/>
        <pt x="762" y="117" on="0"/>
        <pt x="854" y="168" on="1"/>
        <pt x="854" y="850" on="1"/>
        <pt x="711" y="916" on="0"/>
        <pt x="602" y="915" on="1"/>
        <pt x="471" y="915" on="0"/>
        <pt x="313" y="708" on="0"/>
      </contour>
    </TTGlyph>
    <TTGlyph name="grave" xMin="80" yMin="1264" xMax="506" yMax="1536">
      <contour>
        <pt x="80" y="1536" on="1"/>
        <pt x="305" y="1536" on="1"/>
        <pt x="506" y="1264" on="1"/>
        <pt x="322" y="1264" on="1"/>
      </contour>
    </TTGlyph>
    <TTGlyph name="greater" xMin="80" yMin="180" xMax="1049" yMax="1217">
      <contour>
        <pt x="80" y="180" on="1"/>
        <pt x="80" y="365" on="1"/>
        <pt x="905" y="696" on="1"/>
        <pt x="80" y="1032" on="1"/>
        <pt x="80" y="1217" on="1"/>
        <pt x="1049" y="817" on="1"/>
        <pt x="1049" y="575" on="1"/>
      </contour>
    </TTGlyph>
    <TTGlyph name="guilsinglleft" xMin="8" yMin="180" xMax="977" yMax="1217">
      <contour>
        <pt x="8" y="575" on="1"/>
        <pt x="8" y="817" on="1"/>
        <pt x="977" y="1217" on="1"/>
        <pt x="977" y="1032" on="1"/>
        <pt x="152" y="696" on="1"/>
        <pt x="977" y="365" on="1"/>
        <pt x="977" y="180" on="1"/>
      </contour>
    </TTGlyph>
    <TTGlyph name="guilsinglright" xMin="80" yMin="180" xMax="1049" yMax="1217">
      <contour>
        <pt x="80" y="180" on="1"/>
        <pt x="80" y="365" on="1"/>
        <pt x="905" y="696" on="1"/>
        <pt x="80" y="1032" on="1"/>
        <pt x="80" y="1217" on="1"/>
        <pt x="1049" y="817" on="1"/>
        <pt x="1049" y="575" on="1"/>
      </contour>
    </TTGlyph>
    <TTGlyph name="h" xMin="152" yMin="0" xMax="1014" yMax="1536">
      <contour>
        <pt x="152" y="0" on="1"/>
        <pt x="152" y="1536" on="1"/>
        <pt x="322" y="1536" on="1"/>
        <pt x="322" y="952" on="1"/>
        <pt x="492" y="1054" on="0"/>
        <pt x="653" y="1055" on="1"/>
        <pt x="809" y="1055" on="0"/>
        <pt x="1014" y="877" on="0"/>
        <pt x="1014" y="725" on="1"/>
        <pt x="1014" y="0" on="1"/>
        <pt x="840" y="0" on="1"/>
        <pt x="840" y="725" on="1"/>
        <pt x="840" y="893" on="0"/>
        <pt x="633" y="893" on="1"/>
        <pt x="488" y="893" on="0"/>
        <pt x="322" y="782" on="1"/>
        <pt x="322" y="0" on="1"/>
      </contour>
    </TTGlyph>
    <TTGlyph name="hyphen" xMin="80" yMin="365" xMax="694" yMax="549">
      <contour>
        <pt x="80" y="365" on="1"/>
        <pt x="80" y="549" on="1"/>
        <pt x="694" y="549" on="1"/>
        <pt x="694" y="365" on="1"/>
      </contour>
    </TTGlyph>
    <TTGlyph name="i" xMin="164" yMin="0" xMax="338" yMax="1434">
      <contour>
        <pt x="164" y="0" on="1"/>
        <pt x="164" y="1024" on="1"/>
        <pt x="338" y="1024" on="1"/>
        <pt x="338" y="0" on="1"/>
      </contour>
      <contour>
        <pt x="164" y="1276" on="1"/>
        <pt x="164" y="1434" on="1"/>
        <pt x="338" y="1434" on="1"/>
        <pt x="338" y="1276" on="1"/>
      </contour>
    </TTGlyph>
    <TTGlyph name="iacute" xMin="94" yMin="0" xMax="520" yMax="1536">
      <contour>
        <pt x="94" y="1264" on="1"/>
        <pt x="295" y="1536" on="1"/>
        <pt x="520" y="1536" on="1"/>
        <pt x="279" y="1264" on="1"/>
      </contour>
      <contour>
        <pt x="180" y="0" on="1"/>
        <pt x="180" y="1024" on="1"/>
        <pt x="354" y="1024" on="1"/>
        <pt x="354" y="0" on="1"/>
      </contour>
    </TTGlyph>
    <TTGlyph name="icircumflex" xMin="-51" yMin="0" xMax="600" yMax="1536">
      <contour>
        <pt x="-51" y="1264" on="1"/>
        <pt x="150" y="1536" on="1"/>
        <pt x="399" y="1536" on="1"/>
        <pt x="600" y="1264" on="1"/>
        <pt x="416" y="1264" on="1"/>
        <pt x="274" y="1464" on="1"/>
        <pt x="133" y="1264" on="1"/>
      </contour>
      <contour>
        <pt x="188" y="0" on="1"/>
        <pt x="188" y="1024" on="1"/>
        <pt x="362" y="1024" on="1"/>
        <pt x="362" y="0" on="1"/>
      </contour>
    </TTGlyph>
    <TTGlyph name="idieresis" xMin="12" yMin="0" xMax="545" yMax="1536">
      <contour>
        <pt x="12" y="1348" on="1"/>
        <pt x="12" y="1536" on="1"/>
        <pt x="186" y="1536" on="1"/>
        <pt x="186" y="1348" on="1"/>
      </contour>
      <contour>
        <pt x="193" y="0" on="1"/>
        <pt x="193" y="1024" on="1"/>
        <pt x="367" y="1024" on="1"/>
        <pt x="367" y="0" on="1"/>
      </contour>
      <contour>
        <pt x="371" y="1348" on="1"/>
        <pt x="371" y="1536" on="1"/>
        <pt x="545" y="1536" on="1"/>
        <pt x="545" y="1348" on="1"/>
      </contour>
    </TTGlyph>
    <TTGlyph name="igrave" xMin="6" yMin="0" xMax="432" yMax="1536">
      <contour>
        <pt x="6" y="1536" on="1"/>
        <pt x="231" y="1536" on="1"/>
        <pt x="432" y="1264" on="1"/>
        <pt x="248" y="1264" on="1"/>
      </contour>
      <contour>
        <pt x="174" y="0" on="1"/>
        <pt x="174" y="1024" on="1"/>
        <pt x="348" y="1024" on="1"/>
        <pt x="348" y="0" on="1"/>
      </contour>
    </TTGlyph>
    <TTGlyph name="j" xMin="143" yMin="-512" xMax="438" yMax="1434">
      <contour>
        <pt x="143" y="-356" on="1"/>
        <pt x="194" y="-356" on="0"/>
        <pt x="268" y="-260" on="0"/>
        <pt x="268" y="-186" on="1"/>
        <pt x="268" y="1024" on="1"/>
        <pt x="438" y="1024" on="1"/>
        <pt x="438" y="-186" on="1"/>
        <pt x="438" y="-327" on="0"/>
        <pt x="264" y="-512" on="0"/>
        <pt x="143" y="-512" on="1"/>
      </contour>
      <contour>
        <pt x="268" y="1276" on="1"/>
        <pt x="268" y="1434" on="1"/>
        <pt x="438" y="1434" on="1"/>
        <pt x="438" y="1276" on="1"/>
      </contour>
    </TTGlyph>
    <TTGlyph name="k" xMin="152" yMin="0" xMax="1030" yMax="1536">
      <contour>
        <pt x="152" y="0" on="1"/>
        <pt x="152" y="1536" on="1"/>
        <pt x="322" y="1536" on="1"/>
        <pt x="322" y="625" on="1"/>
        <pt x="702" y="1024" on="1"/>
        <pt x="936" y="1024" on="1"/>
        <pt x="582" y="655" on="1"/>
        <pt x="1030" y="0" on="1"/>
        <pt x="817" y="0" on="1"/>
        <pt x="461" y="530" on="1"/>
        <pt x="322" y="385" on="1"/>
        <pt x="322" y="0" on="1"/>
      </contour>
    </TTGlyph>
    <TTGlyph name="l" xMin="152" yMin="0" xMax="326" yMax="1536">
      <contour>
        <pt x="152" y="0" on="1"/>
        <pt x="152" y="1536" on="1"/>
        <pt x="326" y="1536" on="1"/>
        <pt x="326" y="0" on="1"/>
      </contour>
    </TTGlyph>
    <TTGlyph name="less" xMin="8" yMin="180" xMax="977" yMax="1217">
      <contour>
        <pt x="8" y="575" on="1"/>
        <pt x="8" y="817" on="1"/>
        <pt x="977" y="1217" on="1"/>
        <pt x="977" y="1032" on="1"/>
        <pt x="152" y="696" on="1"/>
        <pt x="977" y="365" on="1"/>
        <pt x="977" y="180" on="1"/>
      </contour>
    </TTGlyph>
    <TTGlyph name="logicalnot" xMin="16" yMin="352" xMax="1020" yMax="801">
      <contour>
        <pt x="16" y="616" on="1"/>
        <pt x="16" y="801" on="1"/>
        <pt x="1020" y="801" on="1"/>
        <pt x="1020" y="352" on="1"/>
        <pt x="813" y="352" on="1"/>
        <pt x="813" y="616" on="1"/>
      </contour>
    </TTGlyph>
    <TTGlyph name="m" xMin="143" yMin="0" xMax="1409" yMax="1055">
      <contour>
        <pt x="143" y="0" on="1"/>
        <pt x="143" y="1024" on="1"/>
        <pt x="266" y="1024" on="1"/>
        <pt x="287" y="965" on="1"/>
        <pt x="402" y="1055" on="0"/>
        <pt x="535" y="1055" on="1"/>
        <pt x="613" y="1055" on="0"/>
        <pt x="770" y="999" on="0"/>
        <pt x="815" y="948" on="1"/>
        <pt x="934" y="1054" on="0"/>
        <pt x="1083" y="1055" on="1"/>
        <pt x="1204" y="1055" on="0"/>
        <pt x="1409" y="934" on="0"/>
        <pt x="1409" y="829" on="1"/>
        <pt x="1409" y="0" on="1"/>
        <pt x="1235" y="0" on="1"/>
        <pt x="1235" y="748" on="1"/>
        <pt x="1235" y="898" on="0"/>
        <pt x="1057" y="897" on="1"/>
        <pt x="946" y="897" on="0"/>
        <pt x="862" y="829" on="1"/>
        <pt x="862" y="0" on="1"/>
        <pt x="688" y="0" on="1"/>
        <pt x="688" y="748" on="1"/>
        <pt x="688" y="898" on="0"/>
        <pt x="510" y="897" on="1"/>
        <pt x="395" y="897" on="0"/>
        <pt x="313" y="827" on="1"/>
        <pt x="313" y="0" on="1"/>
      </contour>
    </TTGlyph>
    <TTGlyph name="n" xMin="143" yMin="0" xMax="1006" yMax="1055">
      <contour>
        <pt x="143" y="0" on="1"/>
        <pt x="143" y="1024" on="1"/>
        <pt x="266" y="1024" on="1"/>
        <pt x="293" y="946" on="1"/>
        <pt x="461" y="1055" on="0"/>
        <pt x="625" y="1055" on="1"/>
        <pt x="795" y="1055" on="0"/>
        <pt x="1006" y="893" on="0"/>
        <pt x="1006" y="727" on="1"/>
        <pt x="1006" y="0" on="1"/>
        <pt x="831" y="0" on="1"/>
        <pt x="831" y="727" on="1"/>
        <pt x="831" y="897" on="0"/>
        <pt x="625" y="897" on="1"/>
        <pt x="465" y="897" on="0"/>
        <pt x="313" y="791" on="1"/>
        <pt x="313" y="0" on="1"/>
      </contour>
    </TTGlyph>
    <TTGlyph name="nine" xMin="135" yMin="-31" xMax="1135" yMax="1464">
      <contour>
        <pt x="135" y="948" on="1"/>
        <pt x="135" y="1200" on="0"/>
        <pt x="420" y="1464" on="0"/>
        <pt x="631" y="1464" on="1"/>
        <pt x="869" y="1464" on="0"/>
        <pt x="1135" y="1092" on="0"/>
        <pt x="1135" y="739" on="1"/>
        <pt x="1135" y="354" on="0"/>
        <pt x="840" y="-31" on="0"/>
        <pt x="565" y="-31" on="1"/>
        <pt x="442" y="-31" on="0"/>
        <pt x="322" y="4" on="1"/>
        <pt x="267" y="20" on="0"/>
        <pt x="225" y="41" on="1"/>
        <pt x="285" y="184" on="1"/>
        <pt x="328" y="166" on="0"/>
        <pt x="377" y="154" on="1"/>
        <pt x="488" y="125" on="0"/>
        <pt x="565" y="125" on="1"/>
        <pt x="735" y="125" on="0"/>
        <pt x="952" y="430" on="0"/>
        <pt x="952" y="659" on="1"/>
        <pt x="911" y="577" on="0"/>
        <pt x="725" y="475" on="0"/>
        <pt x="594" y="475" on="1"/>
        <pt x="373" y="475" on="0"/>
        <pt x="135" y="727" on="0"/>
      </contour>
      <contour>
        <pt x="319" y="954" on="1"/>
        <pt x="319" y="804" on="0"/>
        <pt x="475" y="639" on="0"/>
        <pt x="602" y="639" on="1"/>
        <pt x="719" y="639" on="0"/>
        <pt x="928" y="795" on="0"/>
        <pt x="928" y="956" on="1"/>
        <pt x="928" y="1108" on="0"/>
        <pt x="750" y="1309" on="0"/>
        <pt x="618" y="1309" on="1"/>
        <pt x="481" y="1309" on="0"/>
        <pt x="319" y="1122" on="0"/>
      </contour>
    </TTGlyph>
    <TTGlyph name="ntilde" xMin="80" yMin="0" xMax="942" yMax="1536">
      <contour>
        <pt x="80" y="0" on="1"/>
        <pt x="80" y="1024" on="1"/>
        <pt x="203" y="1024" on="1"/>
        <pt x="229" y="946" on="1"/>
        <pt x="397" y="1055" on="0"/>
        <pt x="561" y="1055" on="1"/>
        <pt x="731" y="1055" on="0"/>
        <pt x="942" y="893" on="0"/>
        <pt x="942" y="727" on="1"/>
        <pt x="942" y="0" on="1"/>
        <pt x="768" y="0" on="1"/>
        <pt x="768" y="727" on="1"/>
        <pt x="768" y="897" on="0"/>
        <pt x="561" y="897" on="1"/>
        <pt x="401" y="897" on="0"/>
        <pt x="250" y="791" on="1"/>
        <pt x="250" y="0" on="1"/>
      </contour>
      <contour>
        <pt x="193" y="1313" on="1"/>
        <pt x="193" y="1407" on="0"/>
        <pt x="307" y="1536" on="0"/>
        <pt x="367" y="1536" on="1"/>
        <pt x="412" y="1536" on="0"/>
        <pt x="502" y="1493" on="1"/>
        <pt x="572" y="1456" on="0"/>
        <pt x="621" y="1456" on="1"/>
        <pt x="672" y="1458" on="0"/>
        <pt x="676" y="1536" on="1"/>
        <pt x="811" y="1536" on="1"/>
        <pt x="811" y="1446" on="0"/>
        <pt x="729" y="1313" on="0"/>
        <pt x="647" y="1313" on="1"/>
        <pt x="596" y="1313" on="0"/>
        <pt x="479" y="1362" on="1"/>
        <pt x="409" y="1393" on="0"/>
        <pt x="383" y="1393" on="1"/>
        <pt x="365" y="1393" on="0"/>
        <pt x="334" y="1352" on="0"/>
        <pt x="328" y="1331" on="1"/>
        <pt x="322" y="1313" on="1"/>
      </contour>
    </TTGlyph>
    <TTGlyph name="numbersign" xMin="41" yMin="0" xMax="1270" yMax="1434">
      <contour>
        <pt x="41" y="348" on="1"/>
        <pt x="41" y="471" on="1"/>
        <pt x="242" y="471" on="1"/>
        <pt x="322" y="963" on="1"/>
        <pt x="41" y="963" on="1"/>
        <pt x="41" y="1085" on="1"/>
        <pt x="342" y="1085" on="1"/>
        <pt x="399" y="1434" on="1"/>
        <pt x="563" y="1434" on="1"/>
        <pt x="506" y="1085" on="1"/>
        <pt x="936" y="1085" on="1"/>
        <pt x="993" y="1434" on="1"/>
        <pt x="1157" y="1434" on="1"/>
        <pt x="1100" y="1085" on="1"/>
        <pt x="1270" y="1085" on="1"/>
        <pt x="1270" y="963" on="1"/>
        <pt x="1079" y="963" on="1"/>
        <pt x="999" y="471" on="1"/>
        <pt x="1270" y="471" on="1"/>
        <pt x="1270" y="348" on="1"/>
        <pt x="979" y="348" on="1"/>
        <pt x="924" y="0" on="1"/>
        <pt x="760" y="0" on="1"/>
        <pt x="815" y="348" on="1"/>
        <pt x="385" y="348" on="1"/>
        <pt x="330" y="0" on="1"/>
        <pt x="166" y="0" on="1"/>
        <pt x="221" y="348" on="1"/>
      </contour>
      <contour>
        <pt x="406" y="471" on="1"/>
        <pt x="836" y="471" on="1"/>
        <pt x="915" y="963" on="1"/>
        <pt x="485" y="963" on="1"/>
      </contour>
    </TTGlyph>
    <TTGlyph name="o" xMin="111" yMin="-31" xMax="1194" yMax="1055">
      <contour>
        <pt x="111" y="283" on="0"/>
        <pt x="111" y="741" on="0"/>
        <pt x="414" y="1055" on="0"/>
        <pt x="651" y="1055" on="1"/>
        <pt x="887" y="1055" on="0"/>
        <pt x="1194" y="739" on="0"/>
        <pt x="1194" y="285" on="0"/>
        <pt x="887" y="-31" on="0"/>
        <pt x="651" y="-31" on="1"/>
        <pt x="413" y="-31" on="0"/>
      </contour>
      <contour>
        <pt x="276" y="676" on="0"/>
        <pt x="276" y="348" on="0"/>
        <pt x="481" y="125" on="0"/>
        <pt x="651" y="125" on="1"/>
        <pt x="819" y="125" on="0"/>
        <pt x="1026" y="348" on="0"/>
        <pt x="1026" y="676" on="0"/>
        <pt x="819" y="899" on="0"/>
        <pt x="651" y="899" on="1"/>
        <pt x="481" y="899" on="0"/>
      </contour>
    </TTGlyph>
    <TTGlyph name="oacute" xMin="55" yMin="-31" xMax="1139" yMax="1536">
      <contour>
        <pt x="55" y="283" on="0"/>
        <pt x="55" y="741" on="0"/>
        <pt x="358" y="1055" on="0"/>
        <pt x="596" y="1055" on="1"/>
        <pt x="832" y="1055" on="0"/>
        <pt x="1139" y="739" on="0"/>
        <pt x="1139" y="285" on="0"/>
        <pt x="831" y="-31" on="0"/>
        <pt x="596" y="-31" on="1"/>
        <pt x="358" y="-31" on="0"/>
      </contour>
      <contour>
        <pt x="221" y="676" on="0"/>
        <pt x="221" y="348" on="0"/>
        <pt x="426" y="125" on="0"/>
        <pt x="596" y="125" on="1"/>
        <pt x="764" y="125" on="0"/>
        <pt x="971" y="348" on="0"/>
        <pt x="971" y="676" on="0"/>
        <pt x="764" y="899" on="0"/>
        <pt x="596" y="899" on="1"/>
        <pt x="426" y="899" on="0"/>
      </contour>
      <contour>
        <pt x="393" y="1264" on="1"/>
        <pt x="594" y="1536" on="1"/>
        <pt x="819" y="1536" on="1"/>
        <pt x="578" y="1264" on="1"/>
      </contour>
    </TTGlyph>
    <TTGlyph name="ocircumflex" xMin="111" yMin="-31" xMax="1194" yMax="1536">
      <contour>
        <pt x="111" y="283" on="0"/>
        <pt x="111" y="741" on="0"/>
        <pt x="414" y="1055" on="0"/>
        <pt x="651" y="1055" on="1"/>
        <pt x="887" y="1055" on="0"/>
        <pt x="1194" y="739" on="0"/>
        <pt x="1194" y="285" on="0"/>
        <pt x="887" y="-31" on="0"/>
        <pt x="651" y="-31" on="1"/>
        <pt x="413" y="-31" on="0"/>
      </contour>
      <contour>
        <pt x="276" y="676" on="0"/>
        <pt x="276" y="348" on="0"/>
        <pt x="481" y="125" on="0"/>
        <pt x="651" y="125" on="1"/>
        <pt x="819" y="125" on="0"/>
        <pt x="1026" y="348" on="0"/>
        <pt x="1026" y="676" on="0"/>
        <pt x="819" y="899" on="0"/>
        <pt x="651" y="899" on="1"/>
        <pt x="481" y="899" on="0"/>
      </contour>
      <contour>
        <pt x="326" y="1264" on="1"/>
        <pt x="526" y="1536" on="1"/>
        <pt x="776" y="1536" on="1"/>
        <pt x="977" y="1264" on="1"/>
        <pt x="793" y="1264" on="1"/>
        <pt x="651" y="1464" on="1"/>
        <pt x="510" y="1264" on="1"/>
      </contour>
    </TTGlyph>
    <TTGlyph name="odieresis" xMin="111" yMin="-31" xMax="1194" yMax="1536">
      <contour>
        <pt x="111" y="283" on="0"/>
        <pt x="111" y="741" on="0"/>
        <pt x="414" y="1055" on="0"/>
        <pt x="651" y="1055" on="1"/>
        <pt x="887" y="1055" on="0"/>
        <pt x="1194" y="739" on="0"/>
        <pt x="1194" y="285" on="0"/>
        <pt x="887" y="-31" on="0"/>
        <pt x="651" y="-31" on="1"/>
        <pt x="413" y="-31" on="0"/>
      </contour>
      <contour>
        <pt x="276" y="676" on="0"/>
        <pt x="276" y="348" on="0"/>
        <pt x="481" y="125" on="0"/>
        <pt x="651" y="125" on="1"/>
        <pt x="819" y="125" on="0"/>
        <pt x="1026" y="348" on="0"/>
        <pt x="1026" y="676" on="0"/>
        <pt x="819" y="899" on="0"/>
        <pt x="651" y="899" on="1"/>
        <pt x="481" y="899" on="0"/>
      </contour>
      <contour>
        <pt x="385" y="1348" on="1"/>
        <pt x="385" y="1536" on="1"/>
        <pt x="559" y="1536" on="1"/>
        <pt x="559" y="1348" on="1"/>
      </contour>
      <contour>
        <pt x="743" y="1348" on="1"/>
        <pt x="743" y="1536" on="1"/>
        <pt x="918" y="1536" on="1"/>
        <pt x="918" y="1348" on="1"/>
      </contour>
    </TTGlyph>
    <TTGlyph name="oe" xMin="111" yMin="-31" xMax="1808" yMax="1055">
      <contour>
        <pt x="111" y="283" on="0"/>
        <pt x="111" y="741" on="0"/>
        <pt x="414" y="1055" on="0"/>
        <pt x="651" y="1055" on="1"/>
        <pt x="764" y="1055" on="0"/>
        <pt x="965" y="975" on="0"/>
        <pt x="1018" y="920" on="1"/>
        <pt x="1032" y="905" on="1"/>
        <pt x="1034" y="909" on="1"/>
        <pt x="1167" y="1054" on="0"/>
        <pt x="1380" y="1055" on="1"/>
        <pt x="1808" y="1055" on="0"/>
        <pt x="1808" y="451" on="1"/>
        <pt x="1073" y="451" on="1"/>
        <pt x="1083" y="324" on="0"/>
        <pt x="1249" y="125" on="0"/>
        <pt x="1419" y="125" on="1"/>
        <pt x="1616" y="125" on="0"/>
        <pt x="1757" y="190" on="1"/>
        <pt x="1757" y="29" on="1"/>
        <pt x="1603" y="-30" on="0"/>
        <pt x="1442" y="-31" on="1"/>
        <pt x="1295" y="-31" on="0"/>
        <pt x="1194" y="12" on="1"/>
        <pt x="1098" y="53" on="0"/>
        <pt x="1036" y="123" on="1"/>
        <pt x="1016" y="100" on="1"/>
        <pt x="971" y="55" on="0"/>
        <pt x="870" y="12" on="1"/>
        <pt x="772" y="-31" on="0"/>
        <pt x="651" y="-31" on="1"/>
        <pt x="413" y="-31" on="0"/>
      </contour>
      <contour>
        <pt x="276" y="676" on="0"/>
        <pt x="276" y="348" on="0"/>
        <pt x="481" y="125" on="0"/>
        <pt x="651" y="125" on="1"/>
        <pt x="819" y="125" on="0"/>
        <pt x="918" y="231" on="1"/>
        <pt x="922" y="235" on="0"/>
        <pt x="932" y="248" on="0"/>
        <pt x="942" y="262" on="0"/>
        <pt x="946" y="266" on="1"/>
        <pt x="938" y="284" on="0"/>
        <pt x="932" y="307" on="1"/>
        <pt x="903" y="409" on="0"/>
        <pt x="903" y="516" on="1"/>
        <pt x="903" y="635" on="0"/>
        <pt x="938" y="739" on="1"/>
        <pt x="944" y="760" on="1"/>
        <pt x="919" y="791" on="0"/>
        <pt x="918" y="793" on="1"/>
        <pt x="820" y="899" on="0"/>
        <pt x="651" y="899" on="1"/>
        <pt x="481" y="899" on="0"/>
      </contour>
      <contour>
        <pt x="1079" y="586" on="1"/>
        <pt x="1632" y="586" on="1"/>
        <pt x="1618" y="723" on="0"/>
        <pt x="1495" y="899" on="0"/>
        <pt x="1376" y="899" on="1"/>
        <pt x="1259" y="899" on="0"/>
        <pt x="1095" y="727" on="0"/>
      </contour>
    </TTGlyph>
    <TTGlyph name="ograve" xMin="55" yMin="-31" xMax="1139" yMax="1536">
      <contour>
        <pt x="55" y="283" on="0"/>
        <pt x="55" y="741" on="0"/>
        <pt x="358" y="1055" on="0"/>
        <pt x="596" y="1055" on="1"/>
        <pt x="832" y="1055" on="0"/>
        <pt x="1139" y="739" on="0"/>
        <pt x="1139" y="285" on="0"/>
        <pt x="831" y="-31" on="0"/>
        <pt x="596" y="-31" on="1"/>
        <pt x="358" y="-31" on="0"/>
      </contour>
      <contour>
        <pt x="221" y="676" on="0"/>
        <pt x="221" y="348" on="0"/>
        <pt x="426" y="125" on="0"/>
        <pt x="596" y="125" on="1"/>
        <pt x="764" y="125" on="0"/>
        <pt x="971" y="348" on="0"/>
        <pt x="971" y="676" on="0"/>
        <pt x="764" y="899" on="0"/>
        <pt x="596" y="899" on="1"/>
        <pt x="426" y="899" on="0"/>
      </contour>
      <contour>
        <pt x="373" y="1536" on="1"/>
        <pt x="598" y="1536" on="1"/>
        <pt x="799" y="1264" on="1"/>
        <pt x="614" y="1264" on="1"/>
      </contour>
    </TTGlyph>
    <TTGlyph name="one" xMin="348" yMin="0" xMax="780" yMax="1434">
      <contour>
        <pt x="348" y="1229" on="1"/>
        <pt x="348" y="1372" on="1"/>
        <pt x="780" y="1434" on="1"/>
        <pt x="780" y="0" on="1"/>
        <pt x="596" y="0" on="1"/>
        <pt x="596" y="1264" on="1"/>
      </contour>
    </TTGlyph>
    <TTGlyph name="onehalf" xMin="348" yMin="-57" xMax="3533" yMax="1464">
      <contour>
        <pt x="348" y="1229" on="1"/>
        <pt x="348" y="1372" on="1"/>
        <pt x="780" y="1434" on="1"/>
        <pt x="780" y="0" on="1"/>
        <pt x="596" y="0" on="1"/>
        <pt x="596" y="1264" on="1"/>
      </contour>
      <contour>
        <pt x="1276" y="-57" on="1"/>
        <pt x="2259" y="1434" on="1"/>
        <pt x="2443" y="1434" on="1"/>
        <pt x="1460" y="-57" on="1"/>
      </contour>
      <contour>
        <pt x="2636" y="1305" on="1"/>
        <pt x="2697" y="1350" on="0"/>
        <pt x="2761" y="1384" on="1"/>
        <pt x="2917" y="1464" on="0"/>
        <pt x="3052" y="1464" on="1"/>
        <pt x="3230" y="1464" on="0"/>
        <pt x="3516" y="1227" on="0"/>
        <pt x="3516" y="1034" on="1"/>
        <pt x="3516" y="788" on="0"/>
        <pt x="3168" y="449" on="1"/>
        <pt x="2898" y="184" on="1"/>
        <pt x="3533" y="184" on="1"/>
        <pt x="3533" y="0" on="1"/>
        <pt x="2664" y="0" on="1"/>
        <pt x="2664" y="184" on="1"/>
        <pt x="3064" y="580" on="1"/>
        <pt x="3332" y="848" on="0"/>
        <pt x="3332" y="1026" on="1"/>
        <pt x="3332" y="1163" on="0"/>
        <pt x="3178" y="1309" on="0"/>
        <pt x="3047" y="1309" on="1"/>
        <pt x="2949" y="1309" on="0"/>
        <pt x="2834" y="1243" on="1"/>
        <pt x="2791" y="1220" on="0"/>
        <pt x="2738" y="1178" on="1"/>
      </contour>
    </TTGlyph>
    <TTGlyph name="onequarter" xMin="348" yMin="-57" xMax="3566" yMax="1434">
      <contour>
        <pt x="348" y="1229" on="1"/>
        <pt x="348" y="1372" on="1"/>
        <pt x="780" y="1434" on="1"/>
        <pt x="780" y="0" on="1"/>
        <pt x="596" y="0" on="1"/>
        <pt x="596" y="1264" on="1"/>
      </contour>
      <contour>
        <pt x="1276" y="-57" on="1"/>
        <pt x="2259" y="1434" on="1"/>
        <pt x="2443" y="1434" on="1"/>
        <pt x="1460" y="-57" on="1"/>
      </contour>
      <contour>
        <pt x="2603" y="326" on="1"/>
        <pt x="2603" y="457" on="1"/>
        <pt x="3207" y="1434" on="1"/>
        <pt x="3391" y="1434" on="1"/>
        <pt x="3391" y="457" on="1"/>
        <pt x="3566" y="457" on="1"/>
        <pt x="3566" y="326" on="1"/>
        <pt x="3391" y="326" on="1"/>
        <pt x="3391" y="0" on="1"/>
        <pt x="3207" y="0" on="1"/>
        <pt x="3207" y="326" on="1"/>
      </contour>
      <contour>
        <pt x="2802" y="457" on="1"/>
        <pt x="3207" y="457" on="1"/>
        <pt x="3207" y="1155" on="1"/>
      </contour>
    </TTGlyph>
    <TTGlyph name="ordfeminine" xMin="55" yMin="950" xMax="379" yMax="1389">
      <contour>
        <pt x="55" y="1036" on="0"/>
        <pt x="55" y="1151" on="0"/>
        <pt x="131" y="1229" on="0"/>
        <pt x="203" y="1229" on="1"/>
        <pt x="297" y="1229" on="1"/>
        <pt x="297" y="1249" on="1"/>
        <pt x="297" y="1310" on="0"/>
        <pt x="240" y="1311" on="1"/>
        <pt x="98" y="1296" on="1"/>
        <pt x="98" y="1376" on="1"/>
        <pt x="204" y="1388" on="0"/>
        <pt x="266" y="1389" on="1"/>
        <pt x="325" y="1389" on="0"/>
        <pt x="379" y="1319" on="0"/>
        <pt x="379" y="1274" on="1"/>
        <pt x="379" y="958" on="1"/>
        <pt x="315" y="958" on="1"/>
        <pt x="305" y="991" on="1"/>
        <pt x="244" y="950" on="0"/>
        <pt x="184" y="950" on="1"/>
        <pt x="121" y="950" on="0"/>
      </contour>
      <contour>
        <pt x="139" y="1094" on="1"/>
        <pt x="139" y="1020" on="0"/>
        <pt x="195" y="1020" on="1"/>
        <pt x="246" y="1020" on="0"/>
        <pt x="297" y="1055" on="1"/>
        <pt x="297" y="1157" on="1"/>
        <pt x="203" y="1157" on="1"/>
        <pt x="139" y="1157" on="0"/>
      </contour>
    </TTGlyph>
    <TTGlyph name="ordmasculine" xMin="111" yMin="-31" xMax="1194" yMax="1055">
      <contour>
        <pt x="111" y="283" on="0"/>
        <pt x="111" y="741" on="0"/>
        <pt x="414" y="1055" on="0"/>
        <pt x="651" y="1055" on="1"/>
        <pt x="887" y="1055" on="0"/>
        <pt x="1194" y="739" on="0"/>
        <pt x="1194" y="285" on="0"/>
        <pt x="887" y="-31" on="0"/>
        <pt x="651" y="-31" on="1"/>
        <pt x="413" y="-31" on="0"/>
      </contour>
      <contour>
        <pt x="276" y="676" on="0"/>
        <pt x="276" y="348" on="0"/>
        <pt x="481" y="125" on="0"/>
        <pt x="651" y="125" on="1"/>
        <pt x="819" y="125" on="0"/>
        <pt x="1026" y="348" on="0"/>
        <pt x="1026" y="676" on="0"/>
        <pt x="819" y="899" on="0"/>
        <pt x="651" y="899" on="1"/>
        <pt x="481" y="899" on="0"/>
      </contour>
    </TTGlyph>
    <TTGlyph name="oslash" xMin="111" yMin="-31" xMax="1194" yMax="1055">
      <contour>
        <pt x="111" y="283" on="0"/>
        <pt x="111" y="741" on="0"/>
        <pt x="414" y="1055" on="0"/>
        <pt x="651" y="1055" on="1"/>
        <pt x="887" y="1055" on="0"/>
        <pt x="1194" y="739" on="0"/>
        <pt x="1194" y="285" on="0"/>
        <pt x="887" y="-31" on="0"/>
        <pt x="651" y="-31" on="1"/>
        <pt x="413" y="-31" on="0"/>
      </contour>
      <contour>
        <pt x="276" y="676" on="0"/>
        <pt x="276" y="348" on="0"/>
        <pt x="377" y="238" on="1"/>
        <pt x="395" y="217" on="1"/>
        <pt x="774" y="881" on="1"/>
        <pt x="717" y="899" on="0"/>
        <pt x="651" y="899" on="1"/>
        <pt x="481" y="899" on="0"/>
      </contour>
      <contour>
        <pt x="537" y="139" on="1"/>
        <pt x="586" y="125" on="0"/>
        <pt x="651" y="125" on="1"/>
        <pt x="819" y="125" on="0"/>
        <pt x="1026" y="348" on="0"/>
        <pt x="1026" y="512" on="1"/>
        <pt x="1026" y="678" on="0"/>
        <pt x="924" y="784" on="1"/>
        <pt x="911" y="799" on="1"/>
      </contour>
    </TTGlyph>
    <TTGlyph name="otilde" xMin="111" yMin="-31" xMax="1194" yMax="1536">
      <contour>
        <pt x="111" y="283" on="0"/>
        <pt x="111" y="741" on="0"/>
        <pt x="414" y="1055" on="0"/>
        <pt x="651" y="1055" on="1"/>
        <pt x="887" y="1055" on="0"/>
        <pt x="1194" y="739" on="0"/>
        <pt x="1194" y="285" on="0"/>
        <pt x="887" y="-31" on="0"/>
        <pt x="651" y="-31" on="1"/>
        <pt x="413" y="-31" on="0"/>
      </contour>
      <contour>
        <pt x="276" y="676" on="0"/>
        <pt x="276" y="348" on="0"/>
        <pt x="481" y="125" on="0"/>
        <pt x="651" y="125" on="1"/>
        <pt x="819" y="125" on="0"/>
        <pt x="1026" y="348" on="0"/>
        <pt x="1026" y="676" on="0"/>
        <pt x="819" y="899" on="0"/>
        <pt x="651" y="899" on="1"/>
        <pt x="481" y="899" on="0"/>
      </contour>
      <contour>
        <pt x="342" y="1313" on="1"/>
        <pt x="342" y="1407" on="0"/>
        <pt x="457" y="1536" on="0"/>
        <pt x="516" y="1536" on="1"/>
        <pt x="561" y="1536" on="0"/>
        <pt x="651" y="1493" on="1"/>
        <pt x="721" y="1456" on="0"/>
        <pt x="770" y="1456" on="1"/>
        <pt x="821" y="1458" on="0"/>
        <pt x="825" y="1536" on="1"/>
        <pt x="961" y="1536" on="1"/>
        <pt x="961" y="1446" on="0"/>
        <pt x="879" y="1313" on="0"/>
        <pt x="797" y="1313" on="1"/>
        <pt x="746" y="1313" on="0"/>
        <pt x="629" y="1362" on="1"/>
        <pt x="559" y="1393" on="0"/>
        <pt x="532" y="1393" on="1"/>
        <pt x="514" y="1393" on="0"/>
        <pt x="483" y="1352" on="0"/>
        <pt x="477" y="1331" on="1"/>
        <pt x="471" y="1313" on="1"/>
      </contour>
    </TTGlyph>
    <TTGlyph name="p" xMin="152" yMin="-512" xMax="1053" yMax="1055">
      <contour>
        <pt x="152" y="-512" on="1"/>
        <pt x="152" y="1024" on="1"/>
        <pt x="262" y="1024" on="1"/>
        <pt x="289" y="967" on="1"/>
        <pt x="469" y="1055" on="0"/>
        <pt x="616" y="1055" on="1"/>
        <pt x="757" y="1055" on="0"/>
        <pt x="963" y="891" on="0"/>
        <pt x="1053" y="653" on="0"/>
        <pt x="1053" y="518" on="1"/>
        <pt x="1053" y="282" on="0"/>
        <pt x="815" y="-31" on="0"/>
        <pt x="598" y="-31" on="1"/>
        <pt x="453" y="-31" on="0"/>
        <pt x="322" y="37" on="1"/>
        <pt x="322" y="-512" on="1"/>
      </contour>
      <contour>
        <pt x="322" y="168" on="1"/>
        <pt x="420" y="117" on="0"/>
        <pt x="569" y="117" on="1"/>
        <pt x="686" y="117" on="0"/>
        <pt x="831" y="244" on="0"/>
        <pt x="881" y="420" on="0"/>
        <pt x="881" y="537" on="1"/>
        <pt x="881" y="703" on="0"/>
        <pt x="721" y="915" on="0"/>
        <pt x="602" y="915" on="1"/>
        <pt x="479" y="915" on="0"/>
        <pt x="322" y="850" on="1"/>
      </contour>
    </TTGlyph>
    <TTGlyph name="parenleft" xMin="29" yMin="-410" xMax="569" yMax="1434">
      <contour>
        <pt x="29" y="522" on="1"/>
        <pt x="29" y="985" on="0"/>
        <pt x="406" y="1434" on="1"/>
        <pt x="569" y="1434" on="1"/>
        <pt x="194" y="957" on="0"/>
        <pt x="195" y="518" on="1"/>
        <pt x="195" y="82" on="0"/>
        <pt x="569" y="-410" on="1"/>
        <pt x="406" y="-410" on="1"/>
        <pt x="29" y="67" on="0"/>
      </contour>
    </TTGlyph>
    <TTGlyph name="parenright" xMin="35" yMin="-410" xMax="575" yMax="1434">
      <contour>
        <pt x="35" y="-410" on="1"/>
        <pt x="410" y="82" on="0"/>
        <pt x="410" y="518" on="1"/>
        <pt x="410" y="956" on="0"/>
        <pt x="35" y="1434" on="1"/>
        <pt x="199" y="1434" on="1"/>
        <pt x="576" y="985" on="0"/>
        <pt x="575" y="522" on="1"/>
        <pt x="575" y="67" on="0"/>
        <pt x="199" y="-410" on="1"/>
      </contour>
    </TTGlyph>
    <TTGlyph name="percent" xMin="51" yMin="-31" xMax="1245" yMax="1464">
      <contour>
        <pt x="51" y="1174" on="1"/>
        <pt x="51" y="1295" on="0"/>
        <pt x="213" y="1464" on="0"/>
        <pt x="328" y="1464" on="1"/>
        <pt x="445" y="1464" on="0"/>
        <pt x="606" y="1294" on="0"/>
        <pt x="606" y="1174" on="1"/>
        <pt x="606" y="1055" on="0"/>
        <pt x="444" y="885" on="0"/>
        <pt x="328" y="885" on="1"/>
        <pt x="213" y="885" on="0"/>
        <pt x="51" y="1055" on="0"/>
      </contour>
      <contour>
        <pt x="154" y="0" on="1"/>
        <pt x="946" y="1434" on="1"/>
        <pt x="1130" y="1434" on="1"/>
        <pt x="338" y="0" on="1"/>
      </contour>
      <contour>
        <pt x="174" y="1174" on="1"/>
        <pt x="174" y="1106" on="0"/>
        <pt x="262" y="1008" on="0"/>
        <pt x="393" y="1008" on="0"/>
        <pt x="483" y="1106" on="0"/>
        <pt x="483" y="1174" on="1"/>
        <pt x="483" y="1244" on="0"/>
        <pt x="393" y="1341" on="0"/>
        <pt x="262" y="1341" on="0"/>
        <pt x="174" y="1244" on="0"/>
      </contour>
      <contour>
        <pt x="690" y="258" on="1"/>
        <pt x="690" y="379" on="0"/>
        <pt x="852" y="549" on="0"/>
        <pt x="967" y="549" on="1"/>
        <pt x="1084" y="549" on="0"/>
        <pt x="1245" y="379" on="0"/>
        <pt x="1245" y="258" on="1"/>
        <pt x="1245" y="139" on="0"/>
        <pt x="1083" y="-31" on="0"/>
        <pt x="967" y="-31" on="1"/>
        <pt x="852" y="-31" on="0"/>
        <pt x="690" y="139" on="0"/>
      </contour>
      <contour>
        <pt x="813" y="258" on="1"/>
        <pt x="813" y="190" on="0"/>
        <pt x="901" y="92" on="0"/>
        <pt x="1032" y="92" on="0"/>
        <pt x="1122" y="190" on="0"/>
        <pt x="1122" y="258" on="1"/>
        <pt x="1122" y="328" on="0"/>
        <pt x="1032" y="426" on="0"/>
        <pt x="901" y="426" on="0"/>
        <pt x="813" y="328" on="0"/>
      </contour>
    </TTGlyph>
    <TTGlyph name="period" xMin="188" yMin="0" xMax="393" yMax="219">
      <contour>
        <pt x="188" y="0" on="1"/>
        <pt x="188" y="219" on="1"/>
        <pt x="393" y="219" on="1"/>
        <pt x="393" y="0" on="1"/>
      </contour>
    </TTGlyph>
    <TTGlyph name="plus" xMin="16" yMin="299" xMax="877" yMax="1118">
      <contour>
        <pt x="16" y="616" on="1"/>
        <pt x="16" y="801" on="1"/>
        <pt x="354" y="801" on="1"/>
        <pt x="354" y="1118" on="1"/>
        <pt x="539" y="1118" on="1"/>
        <pt x="539" y="801" on="1"/>
        <pt x="877" y="801" on="1"/>
        <pt x="877" y="616" on="1"/>
        <pt x="539" y="616" on="1"/>
        <pt x="539" y="299" on="1"/>
        <pt x="354" y="299" on="1"/>
        <pt x="354" y="616" on="1"/>
      </contour>
    </TTGlyph>
    <TTGlyph name="plusminus" xMin="16" yMin="0" xMax="877" yMax="1118">
      <contour>
        <pt x="16" y="0" on="1"/>
        <pt x="16" y="184" on="1"/>
        <pt x="877" y="184" on="1"/>
        <pt x="877" y="0" on="1"/>
      </contour>
      <contour>
        <pt x="16" y="616" on="1"/>
        <pt x="16" y="801" on="1"/>
        <pt x="354" y="801" on="1"/>
        <pt x="354" y="1118" on="1"/>
        <pt x="539" y="1118" on="1"/>
        <pt x="539" y="801" on="1"/>
        <pt x="877" y="801" on="1"/>
        <pt x="877" y="616" on="1"/>
        <pt x="539" y="616" on="1"/>
        <pt x="539" y="299" on="1"/>
        <pt x="354" y="299" on="1"/>
        <pt x="354" y="616" on="1"/>
      </contour>
    </TTGlyph>
    <TTGlyph name="q" xMin="111" yMin="-512" xMax="1030" yMax="1055">
      <contour>
        <pt x="111" y="485" on="1"/>
        <pt x="111" y="596" on="0"/>
        <pt x="178" y="795" on="0"/>
        <pt x="311" y="958" on="0"/>
        <pt x="541" y="1055" on="0"/>
        <pt x="688" y="1055" on="1"/>
        <pt x="776" y="1055" on="0"/>
        <pt x="911" y="1034" on="1"/>
        <pt x="997" y="1020" on="0"/>
        <pt x="1030" y="1014" on="1"/>
        <pt x="1030" y="-512" on="1"/>
        <pt x="858" y="-512" on="1"/>
        <pt x="858" y="33" on="1"/>
        <pt x="704" y="-20" on="0"/>
        <pt x="569" y="-20" on="1"/>
        <pt x="362" y="-20" on="0"/>
        <pt x="111" y="290" on="0"/>
      </contour>
      <contour>
        <pt x="281" y="485" on="1"/>
        <pt x="281" y="354" on="0"/>
        <pt x="444" y="137" on="0"/>
        <pt x="569" y="137" on="1"/>
        <pt x="686" y="137" on="0"/>
        <pt x="856" y="203" on="1"/>
        <pt x="856" y="879" on="1"/>
        <pt x="793" y="887" on="1"/>
        <pt x="736" y="897" on="0"/>
        <pt x="688" y="897" on="1"/>
        <pt x="487" y="897" on="0"/>
        <pt x="281" y="657" on="0"/>
      </contour>
    </TTGlyph>
    <TTGlyph name="question" xMin="66" yMin="0" xMax="918" yMax="1464">
      <contour>
        <pt x="66" y="1350" on="1"/>
        <pt x="224" y="1465" on="0"/>
        <pt x="463" y="1464" on="1"/>
        <pt x="580" y="1464" on="0"/>
        <pt x="764" y="1382" on="0"/>
        <pt x="866" y="1251" on="0"/>
        <pt x="918" y="1114" on="0"/>
        <pt x="918" y="1049" on="1"/>
        <pt x="918" y="945" on="0"/>
        <pt x="842" y="766" on="0"/>
        <pt x="733" y="643" on="0"/>
        <pt x="623" y="532" on="0"/>
        <pt x="547" y="410" on="0"/>
        <pt x="547" y="344" on="1"/>
        <pt x="362" y="344" on="1"/>
        <pt x="362" y="418" on="0"/>
        <pt x="428" y="559" on="0"/>
        <pt x="496" y="639" on="0"/>
        <pt x="567" y="715" on="1"/>
        <pt x="620" y="772" on="0"/>
        <pt x="674" y="838" on="0"/>
        <pt x="733" y="975" on="0"/>
        <pt x="733" y="1049" on="1"/>
        <pt x="733" y="1145" on="0"/>
        <pt x="596" y="1315" on="0"/>
        <pt x="463" y="1315" on="1"/>
        <pt x="293" y="1315" on="0"/>
        <pt x="172" y="1227" on="1"/>
      </contour>
      <contour>
        <pt x="362" y="0" on="1"/>
        <pt x="362" y="184" on="1"/>
        <pt x="547" y="184" on="1"/>
        <pt x="547" y="0" on="1"/>
      </contour>
    </TTGlyph>
    <TTGlyph name="questiondown" xMin="66" yMin="-236" xMax="918" yMax="1229">
      <contour>
        <pt x="66" y="180" on="1"/>
        <pt x="66" y="284" on="0"/>
        <pt x="141" y="463" on="0"/>
        <pt x="197" y="524" on="1"/>
        <pt x="306" y="641" on="1"/>
        <pt x="360" y="696" on="0"/>
        <pt x="436" y="819" on="0"/>
        <pt x="436" y="885" on="1"/>
        <pt x="621" y="885" on="1"/>
        <pt x="621" y="811" on="0"/>
        <pt x="555" y="670" on="0"/>
        <pt x="487" y="590" on="0"/>
        <pt x="416" y="514" on="1"/>
        <pt x="363" y="457" on="0"/>
        <pt x="309" y="391" on="0"/>
        <pt x="250" y="254" on="0"/>
        <pt x="250" y="180" on="1"/>
        <pt x="250" y="84" on="0"/>
        <pt x="387" y="-86" on="0"/>
        <pt x="520" y="-86" on="1"/>
        <pt x="690" y="-86" on="0"/>
        <pt x="811" y="2" on="1"/>
        <pt x="918" y="-121" on="1"/>
        <pt x="760" y="-236" on="0"/>
        <pt x="520" y="-236" on="1"/>
        <pt x="403" y="-236" on="0"/>
        <pt x="219" y="-154" on="0"/>
        <pt x="117" y="-23" on="0"/>
        <pt x="66" y="114" on="0"/>
      </contour>
      <contour>
        <pt x="436" y="1044" on="1"/>
        <pt x="436" y="1229" on="1"/>
        <pt x="621" y="1229" on="1"/>
        <pt x="621" y="1044" on="1"/>
      </contour>
    </TTGlyph>
    <TTGlyph name="quotedbl" xMin="287" yMin="1210" xMax="696" yMax="1577">
      <contour>
        <pt x="287" y="1577" on="1"/>
        <pt x="451" y="1577" on="1"/>
        <pt x="430" y="1210" on="1"/>
        <pt x="307" y="1210" on="1"/>
      </contour>
      <contour>
        <pt x="532" y="1577" on="1"/>
        <pt x="696" y="1577" on="1"/>
        <pt x="676" y="1210" on="1"/>
        <pt x="553" y="1210" on="1"/>
      </contour>
    </TTGlyph>
    <TTGlyph name="quotedblleft" xMin="59" yMin="1210" xMax="547" yMax="1577">
      <contour>
        <pt x="59" y="1577" on="1"/>
        <pt x="223" y="1577" on="1"/>
        <pt x="264" y="1210" on="1"/>
        <pt x="141" y="1210" on="1"/>
      </contour>
      <contour>
        <pt x="342" y="1577" on="1"/>
        <pt x="506" y="1577" on="1"/>
        <pt x="547" y="1210" on="1"/>
        <pt x="424" y="1210" on="1"/>
      </contour>
    </TTGlyph>
    <TTGlyph name="quotedblright" xMin="70" yMin="1210" xMax="557" yMax="1577">
      <contour>
        <pt x="70" y="1210" on="1"/>
        <pt x="111" y="1577" on="1"/>
        <pt x="274" y="1577" on="1"/>
        <pt x="193" y="1210" on="1"/>
      </contour>
      <contour>
        <pt x="352" y="1210" on="1"/>
        <pt x="393" y="1577" on="1"/>
        <pt x="557" y="1577" on="1"/>
        <pt x="475" y="1210" on="1"/>
      </contour>
    </TTGlyph>
    <TTGlyph name="quoteleft" xMin="35" yMin="1210" xMax="240" yMax="1577">
      <contour>
        <pt x="35" y="1577" on="1"/>
        <pt x="199" y="1577" on="1"/>
        <pt x="240" y="1210" on="1"/>
        <pt x="117" y="1210" on="1"/>
      </contour>
    </TTGlyph>
    <TTGlyph name="quoteright" xMin="59" yMin="1210" xMax="264" yMax="1577">
      <contour>
        <pt x="59" y="1210" on="1"/>
        <pt x="100" y="1577" on="1"/>
        <pt x="264" y="1577" on="1"/>
        <pt x="182" y="1210" on="1"/>
      </contour>
    </TTGlyph>
    <TTGlyph name="quotesingle" xMin="188" yMin="1210" xMax="393" yMax="1577">
      <contour>
        <pt x="188" y="1210" on="1"/>
        <pt x="229" y="1577" on="1"/>
        <pt x="393" y="1577" on="1"/>
        <pt x="311" y="1210" on="1"/>
      </contour>
    </TTGlyph>
    <TTGlyph name="r" xMin="143" yMin="0" xMax="729" yMax="1053">
      <contour>
        <pt x="143" y="0" on="1"/>
        <pt x="143" y="1024" on="1"/>
        <pt x="266" y="1024" on="1"/>
        <pt x="291" y="952" on="1"/>
        <pt x="422" y="1052" on="0"/>
        <pt x="524" y="1053" on="1"/>
        <pt x="635" y="1053" on="0"/>
        <pt x="729" y="1004" on="1"/>
        <pt x="662" y="866" on="1"/>
        <pt x="574" y="897" on="0"/>
        <pt x="500" y="897" on="1"/>
        <pt x="398" y="897" on="0"/>
        <pt x="313" y="821" on="1"/>
        <pt x="313" y="0" on="1"/>
      </contour>
    </TTGlyph>
    <TTGlyph name="registered" xMin="219" yMin="596" xMax="1085" yMax="1464">
      <contour>
        <pt x="219" y="848" on="0"/>
        <pt x="219" y="1212" on="0"/>
        <pt x="461" y="1464" on="0"/>
        <pt x="651" y="1464" on="1"/>
        <pt x="839" y="1464" on="0"/>
        <pt x="1085" y="1212" on="0"/>
        <pt x="1085" y="848" on="0"/>
        <pt x="840" y="596" on="0"/>
        <pt x="651" y="596" on="1"/>
        <pt x="461" y="596" on="0"/>
      </contour>
      <contour>
        <pt x="352" y="1161" on="0"/>
        <pt x="352" y="899" on="0"/>
        <pt x="516" y="721" on="0"/>
        <pt x="786" y="721" on="0"/>
        <pt x="950" y="899" on="0"/>
        <pt x="950" y="1161" on="0"/>
        <pt x="786" y="1339" on="0"/>
        <pt x="516" y="1339" on="0"/>
      </contour>
      <contour>
        <pt x="524" y="821" on="1"/>
        <pt x="524" y="1231" on="1"/>
        <pt x="653" y="1231" on="1"/>
        <pt x="710" y="1231" on="0"/>
        <pt x="795" y="1155" on="0"/>
        <pt x="795" y="1100" on="1"/>
        <pt x="795" y="1059" on="0"/>
        <pt x="745" y="993" on="0"/>
        <pt x="707" y="979" on="1"/>
        <pt x="801" y="821" on="1"/>
        <pt x="748" y="821" on="1"/>
        <pt x="662" y="971" on="1"/>
        <pt x="575" y="971" on="1"/>
        <pt x="575" y="821" on="1"/>
      </contour>
      <contour>
        <pt x="575" y="1010" on="1"/>
        <pt x="653" y="1010" on="1"/>
        <pt x="692" y="1010" on="0"/>
        <pt x="743" y="1059" on="0"/>
        <pt x="743" y="1141" on="0"/>
        <pt x="692" y="1192" on="0"/>
        <pt x="653" y="1192" on="1"/>
        <pt x="575" y="1192" on="1"/>
      </contour>
    </TTGlyph>
    <TTGlyph name="s" xMin="111" yMin="-31" xMax="920" yMax="1055">
      <contour>
        <pt x="111" y="133" on="1"/>
        <pt x="221" y="250" on="1"/>
        <pt x="260" y="219" on="0"/>
        <pt x="322" y="186" on="1"/>
        <pt x="441" y="125" on="0"/>
        <pt x="526" y="125" on="1"/>
        <pt x="602" y="125" on="0"/>
        <pt x="750" y="209" on="0"/>
        <pt x="750" y="285" on="1"/>
        <pt x="750" y="355" on="0"/>
        <pt x="608" y="444" on="0"/>
        <pt x="440" y="506" on="1"/>
        <pt x="370" y="531" on="0"/>
        <pt x="293" y="563" on="0"/>
        <pt x="193" y="627" on="0"/>
        <pt x="145" y="713" on="0"/>
        <pt x="145" y="768" on="1"/>
        <pt x="145" y="897" on="0"/>
        <pt x="383" y="1055" on="0"/>
        <pt x="532" y="1055" on="1"/>
        <pt x="643" y="1055" on="0"/>
        <pt x="770" y="1001" on="1"/>
        <pt x="823" y="978" on="0"/>
        <pt x="870" y="948" on="1"/>
        <pt x="766" y="823" on="1"/>
        <pt x="733" y="843" on="0"/>
        <pt x="694" y="860" on="1"/>
        <pt x="604" y="899" on="0"/>
        <pt x="532" y="899" on="1"/>
        <pt x="448" y="899" on="0"/>
        <pt x="315" y="825" on="0"/>
        <pt x="315" y="768" on="1"/>
        <pt x="315" y="750" on="0"/>
        <pt x="348" y="715" on="0"/>
        <pt x="420" y="682" on="0"/>
        <pt x="471" y="662" on="0"/>
        <pt x="518" y="645" on="1"/>
        <pt x="633" y="602" on="0"/>
        <pt x="745" y="551" on="0"/>
        <pt x="870" y="465" on="0"/>
        <pt x="920" y="358" on="0"/>
        <pt x="920" y="285" on="1"/>
        <pt x="920" y="181" on="0"/>
        <pt x="780" y="31" on="0"/>
        <pt x="608" y="-31" on="0"/>
        <pt x="526" y="-31" on="1"/>
        <pt x="401" y="-31" on="0"/>
        <pt x="242" y="51" on="1"/>
        <pt x="172" y="88" on="0"/>
      </contour>
    </TTGlyph>
    <TTGlyph name="semicolon" xMin="158" yMin="-252" xMax="424" yMax="901">
      <contour>
        <pt x="158" y="-252" on="1"/>
        <pt x="219" y="219" on="1"/>
        <pt x="424" y="219" on="1"/>
        <pt x="301" y="-252" on="1"/>
      </contour>
      <contour>
        <pt x="219" y="682" on="1"/>
        <pt x="219" y="901" on="1"/>
        <pt x="424" y="901" on="1"/>
        <pt x="424" y="682" on="1"/>
      </contour>
    </TTGlyph>
    <TTGlyph name="seven" xMin="246" yMin="0" xMax="1024" yMax="1434">
      <contour>
        <pt x="246" y="1298" on="1"/>
        <pt x="246" y="1434" on="1"/>
        <pt x="1024" y="1434" on="1"/>
        <pt x="512" y="0" on="1"/>
        <pt x="328" y="0" on="1"/>
        <pt x="791" y="1298" on="1"/>
      </contour>
    </TTGlyph>
    <TTGlyph name="six" xMin="135" yMin="-31" xMax="1135" yMax="1464">
      <contour>
        <pt x="135" y="694" on="1"/>
        <pt x="135" y="1077" on="0"/>
        <pt x="430" y="1464" on="0"/>
        <pt x="705" y="1464" on="1"/>
        <pt x="822" y="1464" on="0"/>
        <pt x="948" y="1427" on="1"/>
        <pt x="995" y="1413" on="0"/>
        <pt x="1044" y="1393" on="1"/>
        <pt x="985" y="1249" on="1"/>
        <pt x="924" y="1269" on="0"/>
        <pt x="893" y="1278" on="1"/>
        <pt x="774" y="1309" on="0"/>
        <pt x="705" y="1309" on="1"/>
        <pt x="535" y="1309" on="0"/>
        <pt x="317" y="1004" on="0"/>
        <pt x="317" y="774" on="1"/>
        <pt x="358" y="856" on="0"/>
        <pt x="545" y="958" on="0"/>
        <pt x="676" y="958" on="1"/>
        <pt x="897" y="958" on="0"/>
        <pt x="1135" y="707" on="0"/>
        <pt x="1135" y="485" on="1"/>
        <pt x="1135" y="233" on="0"/>
        <pt x="850" y="-31" on="0"/>
        <pt x="639" y="-31" on="1"/>
        <pt x="401" y="-31" on="0"/>
        <pt x="135" y="342" on="0"/>
      </contour>
      <contour>
        <pt x="342" y="477" on="1"/>
        <pt x="342" y="325" on="0"/>
        <pt x="520" y="125" on="0"/>
        <pt x="651" y="125" on="1"/>
        <pt x="788" y="125" on="0"/>
        <pt x="950" y="311" on="0"/>
        <pt x="950" y="479" on="1"/>
        <pt x="950" y="629" on="0"/>
        <pt x="795" y="795" on="0"/>
        <pt x="668" y="795" on="1"/>
        <pt x="551" y="795" on="0"/>
        <pt x="342" y="639" on="0"/>
      </contour>
    </TTGlyph>
    <TTGlyph name="slash" xMin="14" yMin="0" xMax="557" yMax="1434">
      <contour>
        <pt x="14" y="0" on="1"/>
        <pt x="373" y="1434" on="1"/>
        <pt x="557" y="1434" on="1"/>
        <pt x="199" y="0" on="1"/>
      </contour>
    </TTGlyph>
    <TTGlyph name="t" xMin="111" yMin="0" xMax="713" yMax="1321">
      <contour>
        <pt x="111" y="866" on="1"/>
        <pt x="111" y="1024" on="1"/>
        <pt x="285" y="1024" on="1"/>
        <pt x="285" y="1321" on="1"/>
        <pt x="459" y="1321" on="1"/>
        <pt x="459" y="1024" on="1"/>
        <pt x="713" y="1024" on="1"/>
        <pt x="713" y="866" on="1"/>
        <pt x="459" y="866" on="1"/>
        <pt x="459" y="301" on="1"/>
        <pt x="459" y="225" on="0"/>
        <pt x="506" y="158" on="0"/>
        <pt x="586" y="158" on="1"/>
        <pt x="692" y="158" on="1"/>
        <pt x="692" y="0" on="1"/>
        <pt x="508" y="0" on="1"/>
        <pt x="408" y="0" on="0"/>
        <pt x="285" y="106" on="0"/>
        <pt x="285" y="197" on="1"/>
        <pt x="285" y="866" on="1"/>
      </contour>
    </TTGlyph>
    <TTGlyph name="thorn" xMin="164" yMin="0" xMax="881" yMax="1024">
      <contour>
        <pt x="164" y="0" on="1"/>
        <pt x="164" y="1024" on="1"/>
        <pt x="338" y="1024" on="1"/>
        <pt x="338" y="860" on="1"/>
        <pt x="551" y="860" on="1"/>
        <pt x="686" y="860" on="0"/>
        <pt x="881" y="664" on="0"/>
        <pt x="881" y="528" on="1"/>
        <pt x="881" y="391" on="0"/>
        <pt x="688" y="199" on="0"/>
        <pt x="551" y="199" on="1"/>
        <pt x="338" y="199" on="1"/>
        <pt x="338" y="0" on="1"/>
      </contour>
      <contour>
        <pt x="338" y="354" on="1"/>
        <pt x="551" y="354" on="1"/>
        <pt x="619" y="354" on="0"/>
        <pt x="717" y="455" on="0"/>
        <pt x="717" y="528" on="1"/>
        <pt x="717" y="600" on="0"/>
        <pt x="618" y="705" on="0"/>
        <pt x="551" y="705" on="1"/>
        <pt x="338" y="705" on="1"/>
      </contour>
    </TTGlyph>
    <TTGlyph name="three" xMin="174" yMin="-31" xMax="1098" yMax="1464">
      <contour>
        <pt x="174" y="143" on="1"/>
        <pt x="301" y="244" on="1"/>
        <pt x="356" y="189" on="0"/>
        <pt x="528" y="117" on="0"/>
        <pt x="614" y="117" on="1"/>
        <pt x="743" y="117" on="0"/>
        <pt x="909" y="291" on="0"/>
        <pt x="909" y="426" on="1"/>
        <pt x="909" y="555" on="0"/>
        <pt x="754" y="731" on="0"/>
        <pt x="616" y="731" on="1"/>
        <pt x="616" y="885" on="1"/>
        <pt x="718" y="885" on="0"/>
        <pt x="827" y="999" on="0"/>
        <pt x="827" y="1090" on="1"/>
        <pt x="827" y="1178" on="0"/>
        <pt x="719" y="1315" on="0"/>
        <pt x="606" y="1315" on="1"/>
        <pt x="463" y="1315" on="0"/>
        <pt x="340" y="1221" on="1"/>
        <pt x="246" y="1341" on="1"/>
        <pt x="406" y="1464" on="0"/>
        <pt x="602" y="1464" on="1"/>
        <pt x="797" y="1464" on="0"/>
        <pt x="1016" y="1249" on="0"/>
        <pt x="1016" y="1106" on="1"/>
        <pt x="1016" y="1008" on="0"/>
        <pt x="909" y="834" on="0"/>
        <pt x="813" y="811" on="1"/>
        <pt x="907" y="795" on="0"/>
        <pt x="1042" y="662" on="0"/>
        <pt x="1098" y="506" on="0"/>
        <pt x="1098" y="346" on="0"/>
        <pt x="1036" y="190" on="0"/>
        <pt x="920" y="53" on="0"/>
        <pt x="719" y="-31" on="0"/>
        <pt x="592" y="-31" on="1"/>
        <pt x="305" y="-31" on="0"/>
      </contour>
    </TTGlyph>
    <TTGlyph name="threequarters" xMin="174" yMin="-57" xMax="3566" yMax="1464">
      <contour>
        <pt x="174" y="143" on="1"/>
        <pt x="301" y="244" on="1"/>
        <pt x="356" y="189" on="0"/>
        <pt x="528" y="117" on="0"/>
        <pt x="614" y="117" on="1"/>
        <pt x="743" y="117" on="0"/>
        <pt x="909" y="291" on="0"/>
        <pt x="909" y="426" on="1"/>
        <pt x="909" y="555" on="0"/>
        <pt x="754" y="731" on="0"/>
        <pt x="616" y="731" on="1"/>
        <pt x="616" y="885" on="1"/>
        <pt x="718" y="885" on="0"/>
        <pt x="827" y="999" on="0"/>
        <pt x="827" y="1090" on="1"/>
        <pt x="827" y="1178" on="0"/>
        <pt x="719" y="1315" on="0"/>
        <pt x="606" y="1315" on="1"/>
        <pt x="463" y="1315" on="0"/>
        <pt x="340" y="1221" on="1"/>
        <pt x="246" y="1341" on="1"/>
        <pt x="406" y="1464" on="0"/>
        <pt x="602" y="1464" on="1"/>
        <pt x="797" y="1464" on="0"/>
        <pt x="1016" y="1249" on="0"/>
        <pt x="1016" y="1106" on="1"/>
        <pt x="1016" y="1008" on="0"/>
        <pt x="909" y="834" on="0"/>
        <pt x="813" y="811" on="1"/>
        <pt x="907" y="795" on="0"/>
        <pt x="1042" y="662" on="0"/>
        <pt x="1098" y="506" on="0"/>
        <pt x="1098" y="346" on="0"/>
        <pt x="1036" y="190" on="0"/>
        <pt x="920" y="53" on="0"/>
        <pt x="719" y="-31" on="0"/>
        <pt x="592" y="-31" on="1"/>
        <pt x="305" y="-31" on="0"/>
      </contour>
      <contour>
        <pt x="1276" y="-57" on="1"/>
        <pt x="2259" y="1434" on="1"/>
        <pt x="2443" y="1434" on="1"/>
        <pt x="1460" y="-57" on="1"/>
      </contour>
      <contour>
        <pt x="2603" y="326" on="1"/>
        <pt x="2603" y="457" on="1"/>
        <pt x="3207" y="1434" on="1"/>
        <pt x="3391" y="1434" on="1"/>
        <pt x="3391" y="457" on="1"/>
        <pt x="3566" y="457" on="1"/>
        <pt x="3566" y="326" on="1"/>
        <pt x="3391" y="326" on="1"/>
        <pt x="3391" y="0" on="1"/>
        <pt x="3207" y="0" on="1"/>
        <pt x="3207" y="326" on="1"/>
      </contour>
      <contour>
        <pt x="2802" y="457" on="1"/>
        <pt x="3207" y="457" on="1"/>
        <pt x="3207" y="1155" on="1"/>
      </contour>
    </TTGlyph>
    <TTGlyph name="tilde" xMin="33" yMin="1313" xMax="651" yMax="1536">
      <contour>
        <pt x="33" y="1313" on="1"/>
        <pt x="33" y="1407" on="0"/>
        <pt x="147" y="1536" on="0"/>
        <pt x="207" y="1536" on="1"/>
        <pt x="252" y="1536" on="0"/>
        <pt x="342" y="1493" on="1"/>
        <pt x="412" y="1456" on="0"/>
        <pt x="461" y="1456" on="1"/>
        <pt x="512" y="1458" on="0"/>
        <pt x="516" y="1536" on="1"/>
        <pt x="651" y="1536" on="1"/>
        <pt x="651" y="1446" on="0"/>
        <pt x="569" y="1313" on="0"/>
        <pt x="487" y="1313" on="1"/>
        <pt x="436" y="1313" on="0"/>
        <pt x="319" y="1362" on="1"/>
        <pt x="249" y="1393" on="0"/>
        <pt x="223" y="1393" on="1"/>
        <pt x="205" y="1393" on="0"/>
        <pt x="174" y="1352" on="0"/>
        <pt x="168" y="1331" on="1"/>
        <pt x="162" y="1313" on="1"/>
      </contour>
    </TTGlyph>
    <TTGlyph name="trademark" xMin="750" yMin="848" xMax="1761" yMax="1434">
      <contour>
        <pt x="750" y="1380" on="1"/>
        <pt x="750" y="1434" on="1"/>
        <pt x="1178" y="1434" on="1"/>
        <pt x="1178" y="1380" on="1"/>
        <pt x="1001" y="1380" on="1"/>
        <pt x="1001" y="848" on="1"/>
        <pt x="926" y="848" on="1"/>
        <pt x="926" y="1380" on="1"/>
      </contour>
      <contour>
        <pt x="1249" y="848" on="1"/>
        <pt x="1249" y="1434" on="1"/>
        <pt x="1325" y="1434" on="1"/>
        <pt x="1505" y="1176" on="1"/>
        <pt x="1686" y="1434" on="1"/>
        <pt x="1761" y="1434" on="1"/>
        <pt x="1761" y="848" on="1"/>
        <pt x="1686" y="848" on="1"/>
        <pt x="1686" y="1317" on="1"/>
        <pt x="1534" y="1104" on="1"/>
        <pt x="1475" y="1104" on="1"/>
        <pt x="1325" y="1317" on="1"/>
        <pt x="1325" y="848" on="1"/>
      </contour>
    </TTGlyph>
    <TTGlyph name="two" xMin="186" yMin="0" xMax="1083" yMax="1464">
      <contour>
        <pt x="186" y="1305" on="1"/>
        <pt x="247" y="1350" on="0"/>
        <pt x="311" y="1384" on="1"/>
        <pt x="467" y="1464" on="0"/>
        <pt x="602" y="1464" on="1"/>
        <pt x="780" y="1464" on="0"/>
        <pt x="1067" y="1227" on="0"/>
        <pt x="1067" y="1034" on="1"/>
        <pt x="1067" y="788" on="0"/>
        <pt x="719" y="449" on="1"/>
        <pt x="449" y="184" on="1"/>
        <pt x="1083" y="184" on="1"/>
        <pt x="1083" y="0" on="1"/>
        <pt x="215" y="0" on="1"/>
        <pt x="215" y="184" on="1"/>
        <pt x="614" y="580" on="1"/>
        <pt x="882" y="848" on="0"/>
        <pt x="883" y="1026" on="1"/>
        <pt x="883" y="1163" on="0"/>
        <pt x="729" y="1309" on="0"/>
        <pt x="598" y="1309" on="1"/>
        <pt x="500" y="1309" on="0"/>
        <pt x="385" y="1243" on="1"/>
        <pt x="342" y="1220" on="0"/>
        <pt x="289" y="1178" on="1"/>
      </contour>
    </TTGlyph>
    <TTGlyph name="u" xMin="160" yMin="-31" xMax="1006" yMax="1024">
      <contour>
        <pt x="160" y="313" on="1"/>
        <pt x="160" y="1024" on="1"/>
        <pt x="330" y="1024" on="1"/>
        <pt x="330" y="313" on="1"/>
        <pt x="330" y="227" on="0"/>
        <pt x="481" y="133" on="0"/>
        <pt x="582" y="133" on="1"/>
        <pt x="684" y="133" on="0"/>
        <pt x="834" y="227" on="0"/>
        <pt x="834" y="313" on="1"/>
        <pt x="834" y="1024" on="1"/>
        <pt x="1006" y="1024" on="1"/>
        <pt x="1006" y="313" on="1"/>
        <pt x="1006" y="153" on="0"/>
        <pt x="745" y="-31" on="0"/>
        <pt x="418" y="-31" on="0"/>
        <pt x="160" y="151" on="0"/>
      </contour>
    </TTGlyph>
    <TTGlyph name="uacute" xMin="160" yMin="-31" xMax="1006" yMax="1536">
      <contour>
        <pt x="160" y="313" on="1"/>
        <pt x="160" y="1024" on="1"/>
        <pt x="330" y="1024" on="1"/>
        <pt x="330" y="313" on="1"/>
        <pt x="330" y="227" on="0"/>
        <pt x="481" y="133" on="0"/>
        <pt x="582" y="133" on="1"/>
        <pt x="684" y="133" on="0"/>
        <pt x="834" y="227" on="0"/>
        <pt x="834" y="313" on="1"/>
        <pt x="834" y="1024" on="1"/>
        <pt x="1006" y="1024" on="1"/>
        <pt x="1006" y="313" on="1"/>
        <pt x="1006" y="153" on="0"/>
        <pt x="745" y="-31" on="0"/>
        <pt x="418" y="-31" on="0"/>
        <pt x="160" y="151" on="0"/>
      </contour>
      <contour>
        <pt x="430" y="1264" on="1"/>
        <pt x="631" y="1536" on="1"/>
        <pt x="856" y="1536" on="1"/>
        <pt x="614" y="1264" on="1"/>
      </contour>
    </TTGlyph>
    <TTGlyph name="ucircumflex" xMin="160" yMin="-31" xMax="1006" yMax="1536">
      <contour>
        <pt x="160" y="313" on="1"/>
        <pt x="160" y="1024" on="1"/>
        <pt x="330" y="1024" on="1"/>
        <pt x="330" y="313" on="1"/>
        <pt x="330" y="227" on="0"/>
        <pt x="481" y="133" on="0"/>
        <pt x="582" y="133" on="1"/>
        <pt x="684" y="133" on="0"/>
        <pt x="834" y="227" on="0"/>
        <pt x="834" y="313" on="1"/>
        <pt x="834" y="1024" on="1"/>
        <pt x="1006" y="1024" on="1"/>
        <pt x="1006" y="313" on="1"/>
        <pt x="1006" y="153" on="0"/>
        <pt x="745" y="-31" on="0"/>
        <pt x="418" y="-31" on="0"/>
        <pt x="160" y="151" on="0"/>
      </contour>
      <contour>
        <pt x="256" y="1264" on="1"/>
        <pt x="457" y="1536" on="1"/>
        <pt x="707" y="1536" on="1"/>
        <pt x="907" y="1264" on="1"/>
        <pt x="723" y="1264" on="1"/>
        <pt x="582" y="1464" on="1"/>
        <pt x="440" y="1264" on="1"/>
      </contour>
    </TTGlyph>
    <TTGlyph name="udieresis" xMin="160" yMin="-31" xMax="1006" yMax="1536">
      <contour>
        <pt x="160" y="313" on="1"/>
        <pt x="160" y="1024" on="1"/>
        <pt x="330" y="1024" on="1"/>
        <pt x="330" y="313" on="1"/>
        <pt x="330" y="227" on="0"/>
        <pt x="481" y="133" on="0"/>
        <pt x="582" y="133" on="1"/>
        <pt x="684" y="133" on="0"/>
        <pt x="834" y="227" on="0"/>
        <pt x="834" y="313" on="1"/>
        <pt x="834" y="1024" on="1"/>
        <pt x="1006" y="1024" on="1"/>
        <pt x="1006" y="313" on="1"/>
        <pt x="1006" y="153" on="0"/>
        <pt x="745" y="-31" on="0"/>
        <pt x="418" y="-31" on="0"/>
        <pt x="160" y="151" on="0"/>
      </contour>
      <contour>
        <pt x="315" y="1348" on="1"/>
        <pt x="315" y="1536" on="1"/>
        <pt x="489" y="1536" on="1"/>
        <pt x="489" y="1348" on="1"/>
      </contour>
      <contour>
        <pt x="674" y="1348" on="1"/>
        <pt x="674" y="1536" on="1"/>
        <pt x="848" y="1536" on="1"/>
        <pt x="848" y="1348" on="1"/>
      </contour>
    </TTGlyph>
    <TTGlyph name="ugrave" xMin="160" yMin="-31" xMax="1006" yMax="1536">
      <contour>
        <pt x="160" y="313" on="1"/>
        <pt x="160" y="1024" on="1"/>
        <pt x="330" y="1024" on="1"/>
        <pt x="330" y="313" on="1"/>
        <pt x="330" y="227" on="0"/>
        <pt x="481" y="133" on="0"/>
        <pt x="582" y="133" on="1"/>
        <pt x="684" y="133" on="0"/>
        <pt x="834" y="227" on="0"/>
        <pt x="834" y="313" on="1"/>
        <pt x="834" y="1024" on="1"/>
        <pt x="1006" y="1024" on="1"/>
        <pt x="1006" y="313" on="1"/>
        <pt x="1006" y="153" on="0"/>
        <pt x="745" y="-31" on="0"/>
        <pt x="418" y="-31" on="0"/>
        <pt x="160" y="151" on="0"/>
      </contour>
      <contour>
        <pt x="307" y="1536" on="1"/>
        <pt x="532" y="1536" on="1"/>
        <pt x="733" y="1264" on="1"/>
        <pt x="549" y="1264" on="1"/>
      </contour>
    </TTGlyph>
    <TTGlyph name="underscore" xMin="80" yMin="-393" xMax="1251" yMax="-209">
      <contour>
        <pt x="80" y="-209" on="1"/>
        <pt x="1251" y="-209" on="1"/>
        <pt x="1251" y="-393" on="1"/>
        <pt x="80" y="-393" on="1"/>
      </contour>
    </TTGlyph>
    <TTGlyph name="uni00AD" xMin="80" yMin="365" xMax="694" yMax="549">
      <contour>
        <pt x="80" y="365" on="1"/>
        <pt x="80" y="549" on="1"/>
        <pt x="694" y="549" on="1"/>
        <pt x="694" y="365" on="1"/>
      </contour>
    </TTGlyph>
    <TTGlyph name="uni00B2" xMin="63" yMin="807" xMax="432" yMax="1399">
      <contour>
        <pt x="63" y="1331" on="1"/>
        <pt x="88" y="1347" on="0"/>
        <pt x="121" y="1364" on="1"/>
        <pt x="191" y="1399" on="0"/>
        <pt x="236" y="1399" on="1"/>
        <pt x="310" y="1399" on="0"/>
        <pt x="428" y="1300" on="0"/>
        <pt x="428" y="1221" on="1"/>
        <pt x="428" y="1127" on="0"/>
        <pt x="289" y="987" on="1"/>
        <pt x="197" y="893" on="1"/>
        <pt x="432" y="893" on="1"/>
        <pt x="432" y="807" on="1"/>
        <pt x="78" y="807" on="1"/>
        <pt x="78" y="891" on="1"/>
        <pt x="238" y="1049" on="1"/>
        <pt x="340" y="1151" on="0"/>
        <pt x="340" y="1219" on="1"/>
        <pt x="340" y="1268" on="0"/>
        <pt x="281" y="1325" on="0"/>
        <pt x="236" y="1325" on="1"/>
        <pt x="187" y="1325" on="0"/>
        <pt x="113" y="1272" on="1"/>
        <pt x="109" y="1278" on="0"/>
        <pt x="91" y="1298" on="1"/>
      </contour>
    </TTGlyph>
    <TTGlyph name="uni00B3" xMin="51" yMin="795" xMax="432" yMax="1399">
      <contour>
        <pt x="51" y="872" on="1"/>
        <pt x="113" y="922" on="1"/>
        <pt x="166" y="869" on="0"/>
        <pt x="233" y="868" on="1"/>
        <pt x="282" y="868" on="0"/>
        <pt x="342" y="932" on="0"/>
        <pt x="342" y="983" on="1"/>
        <pt x="342" y="1030" on="0"/>
        <pt x="283" y="1092" on="0"/>
        <pt x="227" y="1096" on="1"/>
        <pt x="227" y="1171" on="1"/>
        <pt x="311" y="1181" on="0"/>
        <pt x="311" y="1245" on="1"/>
        <pt x="311" y="1276" on="0"/>
        <pt x="272" y="1327" on="0"/>
        <pt x="231" y="1327" on="1"/>
        <pt x="184" y="1327" on="0"/>
        <pt x="125" y="1286" on="1"/>
        <pt x="78" y="1346" on="1"/>
        <pt x="160" y="1399" on="0"/>
        <pt x="229" y="1399" on="1"/>
        <pt x="309" y="1399" on="0"/>
        <pt x="401" y="1309" on="0"/>
        <pt x="401" y="1251" on="1"/>
        <pt x="401" y="1192" on="0"/>
        <pt x="344" y="1137" on="1"/>
        <pt x="385" y="1110" on="0"/>
        <pt x="432" y="1022" on="0"/>
        <pt x="432" y="983" on="1"/>
        <pt x="432" y="913" on="0"/>
        <pt x="326" y="795" on="0"/>
        <pt x="225" y="795" on="1"/>
        <pt x="110" y="794" on="0"/>
      </contour>
    </TTGlyph>
    <TTGlyph name="uni00B9" xMin="16" yMin="807" xMax="205" yMax="1389">
      <contour>
        <pt x="16" y="1290" on="1"/>
        <pt x="16" y="1362" on="1"/>
        <pt x="205" y="1389" on="1"/>
        <pt x="205" y="807" on="1"/>
        <pt x="117" y="807" on="1"/>
        <pt x="117" y="1305" on="1"/>
      </contour>
    </TTGlyph>
    <TTGlyph name="uni2010" xMin="80" yMin="365" xMax="694" yMax="549">
      <contour>
        <pt x="80" y="365" on="1"/>
        <pt x="80" y="549" on="1"/>
        <pt x="694" y="549" on="1"/>
        <pt x="694" y="365" on="1"/>
      </contour>
    </TTGlyph>
    <TTGlyph name="uni2011" xMin="80" yMin="365" xMax="694" yMax="549">
      <contour>
        <pt x="80" y="365" on="1"/>
        <pt x="80" y="549" on="1"/>
        <pt x="694" y="549" on="1"/>
        <pt x="694" y="365" on="1"/>
      </contour>
    </TTGlyph>
    <TTGlyph name="uniE000" xMin="0" yMin="0" xMax="1025" yMax="1025">
      <contour>
        <pt x="0" y="1025" on="1"/>
        <pt x="1025" y="1025" on="1"/>
        <pt x="1025" y="0" on="1"/>
        <pt x="0" y="0" on="1"/>
      </contour>
    </TTGlyph>
    <TTGlyph name="uniFB01" xMin="41" yMin="0" xMax="1001" yMax="1536">
      <contour>
        <pt x="41" y="866" on="1"/>
        <pt x="41" y="1024" on="1"/>
        <pt x="201" y="1024" on="1"/>
        <pt x="201" y="1268" on="1"/>
        <pt x="201" y="1389" on="0"/>
        <pt x="348" y="1536" on="0"/>
        <pt x="457" y="1536" on="1"/>
        <pt x="709" y="1536" on="1"/>
        <pt x="709" y="1378" on="1"/>
        <pt x="549" y="1378" on="1"/>
        <pt x="443" y="1378" on="0"/>
        <pt x="375" y="1292" on="0"/>
        <pt x="375" y="1176" on="1"/>
        <pt x="375" y="1024" on="1"/>
        <pt x="1001" y="1024" on="1"/>
        <pt x="1001" y="0" on="1"/>
        <pt x="827" y="0" on="1"/>
        <pt x="827" y="866" on="1"/>
        <pt x="375" y="866" on="1"/>
        <pt x="375" y="0" on="1"/>
        <pt x="201" y="0" on="1"/>
        <pt x="201" y="866" on="1"/>
      </contour>
      <contour>
        <pt x="827" y="1378" on="1"/>
        <pt x="827" y="1536" on="1"/>
        <pt x="1001" y="1536" on="1"/>
        <pt x="1001" y="1378" on="1"/>
      </contour>
    </TTGlyph>
    <TTGlyph name="uniFB02" xMin="41" yMin="0" xMax="1001" yMax="1536">
      <contour>
        <pt x="41" y="866" on="1"/>
        <pt x="41" y="1024" on="1"/>
        <pt x="201" y="1024" on="1"/>
        <pt x="201" y="1268" on="1"/>
        <pt x="201" y="1389" on="0"/>
        <pt x="348" y="1536" on="0"/>
        <pt x="457" y="1536" on="1"/>
        <pt x="1001" y="1536" on="1"/>
        <pt x="1001" y="0" on="1"/>
        <pt x="827" y="0" on="1"/>
        <pt x="827" y="1378" on="1"/>
        <pt x="549" y="1378" on="1"/>
        <pt x="443" y="1378" on="0"/>
        <pt x="375" y="1292" on="0"/>
        <pt x="375" y="1176" on="1"/>
        <pt x="375" y="1024" on="1"/>
        <pt x="645" y="1024" on="1"/>
        <pt x="645" y="866" on="1"/>
        <pt x="375" y="866" on="1"/>
        <pt x="375" y="0" on="1"/>
        <pt x="201" y="0" on="1"/>
        <pt x="201" y="866" on="1"/>
      </contour>
    </TTGlyph>
    <TTGlyph name="uniFB03" xMin="111" yMin="0" xMax="2083" yMax="1536">
      <contour>
        <pt x="111" y="866" on="1"/>
        <pt x="111" y="1024" on="1"/>
        <pt x="270" y="1024" on="1"/>
        <pt x="270" y="1268" on="1"/>
        <pt x="270" y="1389" on="0"/>
        <pt x="418" y="1536" on="0"/>
        <pt x="526" y="1536" on="1"/>
        <pt x="778" y="1536" on="1"/>
        <pt x="778" y="1378" on="1"/>
        <pt x="618" y="1378" on="1"/>
        <pt x="512" y="1378" on="0"/>
        <pt x="444" y="1292" on="0"/>
        <pt x="444" y="1176" on="1"/>
        <pt x="444" y="1024" on="1"/>
        <pt x="715" y="1024" on="1"/>
        <pt x="715" y="866" on="1"/>
        <pt x="444" y="866" on="1"/>
        <pt x="444" y="0" on="1"/>
        <pt x="270" y="0" on="1"/>
        <pt x="270" y="866" on="1"/>
      </contour>
      <contour>
        <pt x="983" y="866" on="1"/>
        <pt x="983" y="1024" on="1"/>
        <pt x="1143" y="1024" on="1"/>
        <pt x="1143" y="1268" on="1"/>
        <pt x="1143" y="1389" on="0"/>
        <pt x="1290" y="1536" on="0"/>
        <pt x="1399" y="1536" on="1"/>
        <pt x="1651" y="1536" on="1"/>
        <pt x="1651" y="1378" on="1"/>
        <pt x="1491" y="1378" on="1"/>
        <pt x="1385" y="1378" on="0"/>
        <pt x="1317" y="1292" on="0"/>
        <pt x="1317" y="1176" on="1"/>
        <pt x="1317" y="1024" on="1"/>
        <pt x="1587" y="1024" on="1"/>
        <pt x="1587" y="866" on="1"/>
        <pt x="1317" y="866" on="1"/>
        <pt x="1317" y="0" on="1"/>
        <pt x="1143" y="0" on="1"/>
        <pt x="1143" y="866" on="1"/>
      </contour>
      <contour>
        <pt x="1909" y="0" on="1"/>
        <pt x="1909" y="1024" on="1"/>
        <pt x="2083" y="1024" on="1"/>
        <pt x="2083" y="0" on="1"/>
      </contour>
      <contour>
        <pt x="1909" y="1276" on="1"/>
        <pt x="1909" y="1434" on="1"/>
        <pt x="2083" y="1434" on="1"/>
        <pt x="2083" y="1276" on="1"/>
      </contour>
    </TTGlyph>
    <TTGlyph name="uniFB04" xMin="111" yMin="0" xMax="2071" yMax="1536">
      <contour>
        <pt x="111" y="866" on="1"/>
        <pt x="111" y="1024" on="1"/>
        <pt x="270" y="1024" on="1"/>
        <pt x="270" y="1268" on="1"/>
        <pt x="270" y="1389" on="0"/>
        <pt x="418" y="1536" on="0"/>
        <pt x="526" y="1536" on="1"/>
        <pt x="778" y="1536" on="1"/>
        <pt x="778" y="1378" on="1"/>
        <pt x="618" y="1378" on="1"/>
        <pt x="512" y="1378" on="0"/>
        <pt x="444" y="1292" on="0"/>
        <pt x="444" y="1176" on="1"/>
        <pt x="444" y="1024" on="1"/>
        <pt x="715" y="1024" on="1"/>
        <pt x="715" y="866" on="1"/>
        <pt x="444" y="866" on="1"/>
        <pt x="444" y="0" on="1"/>
        <pt x="270" y="0" on="1"/>
        <pt x="270" y="866" on="1"/>
      </contour>
      <contour>
        <pt x="983" y="866" on="1"/>
        <pt x="983" y="1024" on="1"/>
        <pt x="1143" y="1024" on="1"/>
        <pt x="1143" y="1268" on="1"/>
        <pt x="1143" y="1389" on="0"/>
        <pt x="1290" y="1536" on="0"/>
        <pt x="1399" y="1536" on="1"/>
        <pt x="1651" y="1536" on="1"/>
        <pt x="1651" y="1378" on="1"/>
        <pt x="1491" y="1378" on="1"/>
        <pt x="1385" y="1378" on="0"/>
        <pt x="1317" y="1292" on="0"/>
        <pt x="1317" y="1176" on="1"/>
        <pt x="1317" y="1024" on="1"/>
        <pt x="1587" y="1024" on="1"/>
        <pt x="1587" y="866" on="1"/>
        <pt x="1317" y="866" on="1"/>
        <pt x="1317" y="0" on="1"/>
        <pt x="1143" y="0" on="1"/>
        <pt x="1143" y="866" on="1"/>
      </contour>
      <contour>
        <pt x="1896" y="0" on="1"/>
        <pt x="1896" y="1536" on="1"/>
        <pt x="2071" y="1536" on="1"/>
        <pt x="2071" y="0" on="1"/>
      </contour>
    </TTGlyph>
    <TTGlyph name="v" xMin="94" yMin="0" xMax="1092" yMax="1024">
      <contour>
        <pt x="94" y="1024" on="1"/>
        <pt x="279" y="1024" on="1"/>
        <pt x="592" y="180" on="1"/>
        <pt x="907" y="1024" on="1"/>
        <pt x="1092" y="1024" on="1"/>
        <pt x="690" y="0" on="1"/>
        <pt x="494" y="0" on="1"/>
      </contour>
    </TTGlyph>
    <TTGlyph name="w" xMin="94" yMin="0" xMax="1577" yMax="1024">
      <contour>
        <pt x="94" y="1024" on="1"/>
        <pt x="279" y="1024" on="1"/>
        <pt x="512" y="213" on="1"/>
        <pt x="750" y="1024" on="1"/>
        <pt x="922" y="1024" on="1"/>
        <pt x="1157" y="213" on="1"/>
        <pt x="1393" y="1024" on="1"/>
        <pt x="1577" y="1024" on="1"/>
        <pt x="1255" y="0" on="1"/>
        <pt x="1059" y="0" on="1"/>
        <pt x="834" y="809" on="1"/>
        <pt x="610" y="0" on="1"/>
        <pt x="416" y="0" on="1"/>
      </contour>
    </TTGlyph>
    <TTGlyph name="x" xMin="94" yMin="0" xMax="1042" yMax="1024">
      <contour>
        <pt x="94" y="0" on="1"/>
        <pt x="473" y="512" on="1"/>
        <pt x="94" y="1024" on="1"/>
        <pt x="287" y="1024" on="1"/>
        <pt x="569" y="641" on="1"/>
        <pt x="852" y="1024" on="1"/>
        <pt x="1042" y="1024" on="1"/>
        <pt x="662" y="512" on="1"/>
        <pt x="1042" y="0" on="1"/>
        <pt x="852" y="0" on="1"/>
        <pt x="569" y="383" on="1"/>
        <pt x="287" y="0" on="1"/>
      </contour>
    </TTGlyph>
    <TTGlyph name="y" xMin="94" yMin="-512" xMax="1049" yMax="1024">
      <contour>
        <pt x="94" y="1024" on="1"/>
        <pt x="289" y="1024" on="1"/>
        <pt x="569" y="274" on="1"/>
        <pt x="856" y="1024" on="1"/>
        <pt x="1049" y="1024" on="1"/>
        <pt x="459" y="-512" on="1"/>
        <pt x="266" y="-512" on="1"/>
        <pt x="485" y="51" on="1"/>
      </contour>
    </TTGlyph>
    <TTGlyph name="yacute" xMin="94" yMin="-512" xMax="1049" yMax="1536">
      <contour>
        <pt x="94" y="1024" on="1"/>
        <pt x="289" y="1024" on="1"/>
        <pt x="569" y="274" on="1"/>
        <pt x="856" y="1024" on="1"/>
        <pt x="1049" y="1024" on="1"/>
        <pt x="459" y="-512" on="1"/>
        <pt x="266" y="-512" on="1"/>
        <pt x="485" y="51" on="1"/>
      </contour>
      <contour>
        <pt x="358" y="1264" on="1"/>
        <pt x="559" y="1536" on="1"/>
        <pt x="784" y="1536" on="1"/>
        <pt x="543" y="1264" on="1"/>
      </contour>
    </TTGlyph>
    <TTGlyph name="ydieresis" xMin="94" yMin="-512" xMax="1049" yMax="1536">
      <contour>
        <pt x="94" y="1024" on="1"/>
        <pt x="289" y="1024" on="1"/>
        <pt x="569" y="274" on="1"/>
        <pt x="856" y="1024" on="1"/>
        <pt x="1049" y="1024" on="1"/>
        <pt x="459" y="-512" on="1"/>
        <pt x="266" y="-512" on="1"/>
        <pt x="485" y="51" on="1"/>
      </contour>
      <contour>
        <pt x="305" y="1348" on="1"/>
        <pt x="305" y="1536" on="1"/>
        <pt x="479" y="1536" on="1"/>
        <pt x="479" y="1348" on="1"/>
      </contour>
      <contour>
        <pt x="664" y="1348" on="1"/>
        <pt x="664" y="1536" on="1"/>
        <pt x="838" y="1536" on="1"/>
        <pt x="838" y="1348" on="1"/>
      </contour>
    </TTGlyph>
    <TTGlyph name="z" xMin="111" yMin="0" xMax="846" yMax="1024">
      <contour>
        <pt x="111" y="0" on="1"/>
        <pt x="111" y="156" on="1"/>
        <pt x="662" y="868" on="1"/>
        <pt x="111" y="868" on="1"/>
        <pt x="111" y="1024" on="1"/>
        <pt x="846" y="1024" on="1"/>
        <pt x="846" y="868" on="1"/>
        <pt x="295" y="156" on="1"/>
        <pt x="846" y="156" on="1"/>
        <pt x="846" y="0" on="1"/>
      </contour>
    </TTGlyph>
    <TTGlyph name="zero" xMin="61" yMin="-31" xMax="1208" yMax="1464">
      <contour>
        <pt x="61" y="393" on="0"/>
        <pt x="61" y="1040" on="0"/>
        <pt x="362" y="1464" on="0"/>
        <pt x="643" y="1464" on="1"/>
        <pt x="919" y="1464" on="0"/>
        <pt x="1208" y="1042" on="0"/>
        <pt x="1208" y="391" on="0"/>
        <pt x="920" y="-31" on="0"/>
        <pt x="643" y="-31" on="1"/>
        <pt x="362" y="-31" on="0"/>
      </contour>
      <contour>
        <pt x="246" y="975" on="0"/>
        <pt x="246" y="459" on="0"/>
        <pt x="451" y="125" on="0"/>
        <pt x="643" y="125" on="1"/>
        <pt x="831" y="125" on="0"/>
        <pt x="1024" y="457" on="0"/>
        <pt x="1024" y="977" on="0"/>
        <pt x="831" y="1309" on="0"/>
        <pt x="643" y="1309" on="1"/>
        <pt x="450" y="1309" on="0"/>
      </contour>
    </TTGlyph>
</ttFont>
